<?xml version="1.0" encoding="UTF-8"?>
<!--Generator: Apple Native CoreSVG 341-->
<!DOCTYPE svg
PUBLIC "-//W3C//DTD SVG 1.1//EN"
       "http://www.w3.org/Graphics/SVG/1.1/DTD/svg11.dtd">
<svg version="1.1" xmlns="http://www.w3.org/2000/svg" xmlns:xlink="http://www.w3.org/1999/xlink" viewBox="0 0 3300 2200">
 <!--glyph: "1002F1", point size: 100.0, font version: "21.0d6e2", template writer version: "138.0.0"-->
 <style>.defaults {-sfsymbols-draw-reverses-motion-groups:false}

.monochrome-0 {-sfsymbols-motion-group:2;-sfsymbols-layer-tags:list.dash}
.monochrome-1 {-sfsymbols-motion-group:2;-sfsymbols-layer-tags:list.dash}
.monochrome-2 {-sfsymbols-motion-group:1;-sfsymbols-layer-tags:list.dash}
.monochrome-3 {-sfsymbols-motion-group:1;-sfsymbols-layer-tags:list.dash}
.monochrome-4 {-sfsymbols-motion-group:0;-sfsymbols-layer-tags:list.dash}
.monochrome-5 {-sfsymbols-motion-group:0;-sfsymbols-layer-tags:list.dash}

.multicolor-0:secondaryLabelColor {-sfsymbols-motion-group:2;-sfsymbols-layer-tags:list.dash}
.multicolor-1:labelColor {-sfsymbols-motion-group:2;-sfsymbols-layer-tags:list.dash}
.multicolor-2:secondaryLabelColor {-sfsymbols-motion-group:1;-sfsymbols-layer-tags:list.dash}
.multicolor-3:labelColor {-sfsymbols-motion-group:1;-sfsymbols-layer-tags:list.dash}
.multicolor-4:secondaryLabelColor {-sfsymbols-motion-group:0;-sfsymbols-layer-tags:list.dash}
.multicolor-5:labelColor {-sfsymbols-motion-group:0;-sfsymbols-layer-tags:list.dash}

.hierarchical-0:secondary {-sfsymbols-motion-group:2;-sfsymbols-layer-tags:list.dash}
.hierarchical-1:primary {-sfsymbols-motion-group:2;-sfsymbols-layer-tags:list.dash}
.hierarchical-2:secondary {-sfsymbols-motion-group:1;-sfsymbols-layer-tags:list.dash}
.hierarchical-3:primary {-sfsymbols-motion-group:1;-sfsymbols-layer-tags:list.dash}
.hierarchical-4:secondary {-sfsymbols-motion-group:0;-sfsymbols-layer-tags:list.dash}
.hierarchical-5:primary {-sfsymbols-motion-group:0;-sfsymbols-layer-tags:list.dash}

.SFSymbolsPreviewWireframe {fill:none;opacity:1.0;stroke:black;stroke-width:0.5}
</style>
 <g id="Notes">
  <rect height="2200" id="artboard" style="fill:white;opacity:1" width="3300" x="0" y="0"/>
  <line style="fill:none;stroke:black;opacity:1;stroke-width:0.5;" x1="263" x2="3036" y1="292" y2="292"/>
  <text style="stroke:none;fill:black;font-family:sans-serif;font-size:13;font-weight:bold;" transform="matrix(1 0 0 1 263 322)">Weight/Scale Variations</text>
  <text style="stroke:none;fill:black;font-family:sans-serif;font-size:13;text-anchor:middle;" transform="matrix(1 0 0 1 559.711 322)">Ultralight</text>
  <text style="stroke:none;fill:black;font-family:sans-serif;font-size:13;text-anchor:middle;" transform="matrix(1 0 0 1 856.422 322)">Thin</text>
  <text style="stroke:none;fill:black;font-family:sans-serif;font-size:13;text-anchor:middle;" transform="matrix(1 0 0 1 1153.13 322)">Light</text>
  <text style="stroke:none;fill:black;font-family:sans-serif;font-size:13;text-anchor:middle;" transform="matrix(1 0 0 1 1449.84 322)">Regular</text>
  <text style="stroke:none;fill:black;font-family:sans-serif;font-size:13;text-anchor:middle;" transform="matrix(1 0 0 1 1746.56 322)">Medium</text>
  <text style="stroke:none;fill:black;font-family:sans-serif;font-size:13;text-anchor:middle;" transform="matrix(1 0 0 1 2043.27 322)">Semibold</text>
  <text style="stroke:none;fill:black;font-family:sans-serif;font-size:13;text-anchor:middle;" transform="matrix(1 0 0 1 2339.98 322)">Bold</text>
  <text style="stroke:none;fill:black;font-family:sans-serif;font-size:13;text-anchor:middle;" transform="matrix(1 0 0 1 2636.69 322)">Heavy</text>
  <text style="stroke:none;fill:black;font-family:sans-serif;font-size:13;text-anchor:middle;" transform="matrix(1 0 0 1 2933.4 322)">Black</text>
  <line style="fill:none;stroke:black;opacity:1;stroke-width:0.5;" x1="263" x2="3036" y1="1903" y2="1903"/>
  <g transform="matrix(0.2 0 0 0.2 263 1933)">
   <path d="m46.2402 4.15039c21.7773 0 39.4531-17.627 39.4531-39.4043s-17.6758-39.4043-39.4531-39.4043c-21.7285 0-39.4043 17.627-39.4043 39.4043s17.6758 39.4043 39.4043 39.4043Zm0-7.42188c-17.6758 0-31.9336-14.3066-31.9336-31.9824s14.2578-31.9824 31.9336-31.9824 31.9824 14.3066 31.9824 31.9824-14.3066 31.9824-31.9824 31.9824Zm3.61328-17.7734v-28.4668c0-2.24609-1.46484-3.75977-3.71094-3.75977-2.14844 0-3.61328 1.51367-3.61328 3.75977v28.4668c0 2.19727 1.46484 3.71094 3.61328 3.71094 2.24609 0 3.71094-1.51367 3.71094-3.71094Zm-17.8223-10.5957h28.418c2.19727 0 3.71094-1.46484 3.71094-3.61328 0-2.19727-1.51367-3.71094-3.71094-3.71094h-28.418c-2.24609 0-3.75977 1.51367-3.75977 3.71094 0 2.14844 1.51367 3.61328 3.75977 3.61328Z"/>
  </g>
  <g transform="matrix(0.2 0 0 0.2 281.506 1933)">
   <path d="m58.5449 14.5508c27.4902 0 49.8047-22.3145 49.8047-49.8047s-22.3145-49.8047-49.8047-49.8047-49.8047 22.3145-49.8047 49.8047 22.3145 49.8047 49.8047 49.8047Zm0-8.30078c-22.9492 0-41.5039-18.5547-41.5039-41.5039s18.5547-41.5039 41.5039-41.5039 41.5039 18.5547 41.5039 41.5039-18.5547 41.5039-41.5039 41.5039Zm4.05273-23.0957v-36.9141c0-2.49023-1.70898-4.19922-4.15039-4.19922-2.39258 0-4.05273 1.70898-4.05273 4.19922v36.9141c0 2.44141 1.66016 4.15039 4.05273 4.15039 2.44141 0 4.15039-1.66016 4.15039-4.15039Zm-22.5586-14.4043h36.9629c2.44141 0 4.15039-1.61133 4.15039-4.00391 0-2.44141-1.70898-4.15039-4.15039-4.15039h-36.9629c-2.49023 0-4.15039 1.70898-4.15039 4.15039 0 2.39258 1.66016 4.00391 4.15039 4.00391Z"/>
  </g>
  <g transform="matrix(0.2 0 0 0.2 304.924 1933)">
   <path d="m74.8535 28.3203c35.1074 0 63.623-28.4668 63.623-63.5742s-28.5156-63.623-63.623-63.623-63.5742 28.5156-63.5742 63.623 28.4668 63.5742 63.5742 63.5742Zm0-9.08203c-30.127 0-54.4922-24.3652-54.4922-54.4922s24.3652-54.4922 54.4922-54.4922 54.4922 24.3652 54.4922 54.4922-24.3652 54.4922-54.4922 54.4922Zm4.44336-30.3223v-48.4863c0-2.73438-1.85547-4.63867-4.54102-4.63867-2.58789 0-4.44336 1.9043-4.44336 4.63867v48.4863c0 2.68555 1.85547 4.58984 4.44336 4.58984 2.68555 0 4.54102-1.85547 4.54102-4.58984Zm-28.7109-19.7754h48.4863c2.68555 0 4.58984-1.80664 4.58984-4.39453 0-2.73438-1.85547-4.58984-4.58984-4.58984h-48.4863c-2.73438 0-4.58984 1.85547-4.58984 4.58984 0 2.58789 1.85547 4.39453 4.58984 4.39453Z"/>
  </g>
  <text style="stroke:none;fill:black;font-family:sans-serif;font-size:13;font-weight:bold;" transform="matrix(1 0 0 1 263 1953)">Design Variations</text>
  <text style="stroke:none;fill:black;font-family:sans-serif;font-size:13;" transform="matrix(1 0 0 1 263 1971)">Symbols are supported in up to nine weights and three scales.</text>
  <text style="stroke:none;fill:black;font-family:sans-serif;font-size:13;" transform="matrix(1 0 0 1 263 1989)">For optimal layout with text and other symbols, vertically align</text>
  <text style="stroke:none;fill:black;font-family:sans-serif;font-size:13;" transform="matrix(1 0 0 1 263 2007)">symbols with the adjacent text.</text>
  <line style="fill:none;stroke:#00AEEF;stroke-width:0.5;opacity:1.0;" x1="776" x2="776" y1="1919" y2="1933"/>
  <g transform="matrix(0.2 0 0 0.2 776 1933)">
   <path d="m16.5527 0.78125c2.58789 0 3.85742-0.976562 4.78516-3.71094l20.5566-57.5195h0.244141l20.6055 57.5195c0.927734 2.73438 2.19727 3.71094 4.73633 3.71094 2.58789 0 4.24805-1.5625 4.24805-4.00391 0-0.830078-0.146484-1.61133-0.537109-2.63672l-22.9004-60.9863c-1.12305-2.97852-3.125-4.49219-6.25-4.49219-3.02734 0-5.07812 1.46484-6.15234 4.44336l-22.9004 61.084c-0.390625 1.02539-0.537109 1.80664-0.537109 2.63672 0 2.44141 1.5625 3.95508 4.10156 3.95508Zm10.2051-20.9473h30.6641c2.00195 0 3.66211-1.66016 3.66211-3.66211 0-2.05078-1.66016-3.66211-3.66211-3.66211h-30.6641c-2.00195 0-3.66211 1.61133-3.66211 3.66211 0 2.00195 1.66016 3.66211 3.66211 3.66211Z"/>
  </g>
  <line style="fill:none;stroke:#00AEEF;stroke-width:0.5;opacity:1.0;" x1="792.836" x2="792.836" y1="1919" y2="1933"/>
  <text style="stroke:none;fill:black;font-family:sans-serif;font-size:13;font-weight:bold;" transform="matrix(1 0 0 1 776 1953)">Margins</text>
  <text style="stroke:none;fill:black;font-family:sans-serif;font-size:13;" transform="matrix(1 0 0 1 776 1971)">Leading and trailing margins on the left and right side of each symbol</text>
  <text style="stroke:none;fill:black;font-family:sans-serif;font-size:13;" transform="matrix(1 0 0 1 776 1989)">can be adjusted by modifying the x-location of the margin guidelines.</text>
  <text style="stroke:none;fill:black;font-family:sans-serif;font-size:13;" transform="matrix(1 0 0 1 776 2007)">Modifications are automatically applied proportionally to all</text>
  <text style="stroke:none;fill:black;font-family:sans-serif;font-size:13;" transform="matrix(1 0 0 1 776 2025)">scales and weights.</text>
  <g transform="matrix(0.2 0 0 0.2 1289 1933)">
   <path d="m14.209 13.1348 7.86133 7.86133c4.29688 4.39453 9.32617 4.10156 13.8672-1.02539l60.6934-68.2129-4.88281-4.88281-60.2539 67.6758c-1.80664 1.95312-3.4668 2.44141-5.81055 0.0976562l-5.17578-5.12695c-2.29492-2.29492-1.80664-3.95508 0.195312-5.81055l67.4805-62.1582-4.88281-4.83398-68.0664 62.5977c-4.98047 4.58984-5.32227 9.47266-1.02539 13.8184Zm44.873-97.4609c-2.05078 2.00195-2.24609 4.88281-1.07422 6.78711 1.12305 1.80664 3.4668 3.02734 6.5918 2.24609 5.85938-1.66016 12.5977-2.39258 18.8965 0.927734l-2.68555 7.12891c-1.61133 4.00391-0.732422 6.88477 1.70898 9.42383l10.2539 10.3027c2.34375 2.39258 4.54102 2.44141 7.08008 1.95312l4.44336-0.732422 2.58789 2.53906-0.195312 2.24609c-0.0976562 2.29492 0.537109 4.29688 2.7832 6.49414l3.36914 3.32031c2.29492 2.29492 5.51758 2.49023 7.8125 0.195312l12.9883-13.0371c2.29492-2.34375 2.14844-5.37109-0.195312-7.66602l-3.41797-3.41797c-2.19727-2.19727-4.05273-3.02734-6.34766-2.88086l-2.34375 0.244141-2.44141-2.44141 1.02539-4.6875c0.634766-2.73438-0.244141-4.98047-2.88086-7.61719l-11.2793-11.1816c-12.9395-12.8418-35.5957-11.0352-46.6797-0.146484Zm7.08008 2.05078c8.78906-6.39648 25.9766-5.66406 33.6914 1.95312l12.3047 12.207c1.02539 1.02539 1.2207 1.80664 0.927734 3.32031l-1.46484 6.64062 6.73828 6.68945 4.39453-0.244141c1.12305-0.0488281 1.51367 0.0488281 2.34375 0.878906l2.53906 2.49023-10.8398 10.8398-2.49023-2.49023c-0.830078-0.878906-0.976562-1.2207-0.927734-2.39258l0.292969-4.3457-6.68945-6.73828-6.83594 1.17188c-1.41602 0.292969-2.05078 0.195312-3.17383-0.878906l-8.93555-8.88672c-1.07422-1.02539-1.17188-1.70898-0.488281-3.36914l4.58984-11.4746c-6.10352-6.34766-17.041-7.51953-25.5859-4.58984-0.683594 0.244141-0.927734-0.390625-0.390625-0.78125Z"/>
  </g>
  <text style="stroke:none;fill:black;font-family:sans-serif;font-size:13;font-weight:bold;" transform="matrix(1 0 0 1 1289 1953)">Exporting</text>
  <text style="stroke:none;fill:black;font-family:sans-serif;font-size:13;" transform="matrix(1 0 0 1 1289 1971)">Symbols should be outlined when exporting to ensure the</text>
  <text style="stroke:none;fill:black;font-family:sans-serif;font-size:13;" transform="matrix(1 0 0 1 1289 1989)">design is preserved when submitting to Xcode.</text>
  <text id="template-version" style="stroke:none;fill:black;font-family:sans-serif;font-size:13;text-anchor:end;" transform="matrix(1 0 0 1 3036 1933)">Template v.6.0</text>
  <text style="stroke:none;fill:black;font-family:sans-serif;font-size:13;text-anchor:end;" transform="matrix(1 0 0 1 3036 1951)">Requires Xcode 16 or greater</text>
  <text id="descriptive-name" style="stroke:none;fill:black;font-family:sans-serif;font-size:13;text-anchor:end;" transform="matrix(1 0 0 1 3036 1969)">Generated from list.dash</text>
  <text style="stroke:none;fill:black;font-family:sans-serif;font-size:13;text-anchor:end;" transform="matrix(1 0 0 1 3036 1987)">Typeset at 100.0 points</text>
  <text style="stroke:none;fill:black;font-family:sans-serif;font-size:13;" transform="matrix(1 0 0 1 263 726)">Small</text>
  <text style="stroke:none;fill:black;font-family:sans-serif;font-size:13;" transform="matrix(1 0 0 1 263 1156)">Medium</text>
  <text style="stroke:none;fill:black;font-family:sans-serif;font-size:13;" transform="matrix(1 0 0 1 263 1586)">Large</text>
 </g>
 <g id="Guides">
  <g id="H-reference" style="fill:#27AAE1;stroke:none;" transform="matrix(1 0 0 1 339 696)">
   <path d="M0.993654 0L3.63775 0L29.3281-67.1323L30.0303-67.1323L30.0303-70.459L28.1226-70.459ZM11.6885-24.4799L46.9815-24.4799L46.2315-26.7285L12.4385-26.7285ZM55.1196 0L57.7637 0L30.6382-70.459L29.4326-70.459L29.4326-67.1323Z"/>
  </g>
  <line id="Baseline-S" style="fill:none;stroke:#27AAE1;opacity:1;stroke-width:0.5;" x1="263" x2="3036" y1="696" y2="696"/>
  <line id="Capline-S" style="fill:none;stroke:#27AAE1;opacity:1;stroke-width:0.5;" x1="263" x2="3036" y1="625.541" y2="625.541"/>
  <g id="H-reference" style="fill:#27AAE1;stroke:none;" transform="matrix(1 0 0 1 339 1126)">
   <path d="M0.993654 0L3.63775 0L29.3281-67.1323L30.0303-67.1323L30.0303-70.459L28.1226-70.459ZM11.6885-24.4799L46.9815-24.4799L46.2315-26.7285L12.4385-26.7285ZM55.1196 0L57.7637 0L30.6382-70.459L29.4326-70.459L29.4326-67.1323Z"/>
  </g>
  <line id="Baseline-M" style="fill:none;stroke:#27AAE1;opacity:1;stroke-width:0.5;" x1="263" x2="3036" y1="1126" y2="1126"/>
  <line id="Capline-M" style="fill:none;stroke:#27AAE1;opacity:1;stroke-width:0.5;" x1="263" x2="3036" y1="1055.54" y2="1055.54"/>
  <g id="H-reference" style="fill:#27AAE1;stroke:none;" transform="matrix(1 0 0 1 339 1556)">
   <path d="M0.993654 0L3.63775 0L29.3281-67.1323L30.0303-67.1323L30.0303-70.459L28.1226-70.459ZM11.6885-24.4799L46.9815-24.4799L46.2315-26.7285L12.4385-26.7285ZM55.1196 0L57.7637 0L30.6382-70.459L29.4326-70.459L29.4326-67.1323Z"/>
  </g>
  <line id="Baseline-L" style="fill:none;stroke:#27AAE1;opacity:1;stroke-width:0.5;" x1="263" x2="3036" y1="1556" y2="1556"/>
  <line id="Capline-L" style="fill:none;stroke:#27AAE1;opacity:1;stroke-width:0.5;" x1="263" x2="3036" y1="1485.54" y2="1485.54"/>
  <line id="right-margin-Black-S" style="fill:none;stroke:#00AEEF;stroke-width:0.5;opacity:1.0;" x1="2987.11" x2="2987.11" y1="600.785" y2="720.121"/>
  <line id="left-margin-Black-S" style="fill:none;stroke:#00AEEF;stroke-width:0.5;opacity:1.0;" x1="2879.69" x2="2879.69" y1="600.785" y2="720.121"/>
  <line id="right-margin-Regular-S" style="fill:none;stroke:#00AEEF;stroke-width:0.5;opacity:1.0;" x1="1498.55" x2="1498.55" y1="600.785" y2="720.121"/>
  <line id="left-margin-Regular-S" style="fill:none;stroke:#00AEEF;stroke-width:0.5;opacity:1.0;" x1="1401.14" x2="1401.14" y1="600.785" y2="720.121"/>
  <line id="right-margin-Ultralight-S" style="fill:none;stroke:#00AEEF;stroke-width:0.5;opacity:1.0;" x1="606.215" x2="606.215" y1="600.785" y2="720.121"/>
  <line id="left-margin-Ultralight-S" style="fill:none;stroke:#00AEEF;stroke-width:0.5;opacity:1.0;" x1="513.207" x2="513.207" y1="600.785" y2="720.121"/>
 </g>
 <g id="Symbols">
  <g id="Black-S" transform="matrix(1 0 0 1 2879.69 696)">
   <path class="monochrome-0 multicolor-0:secondaryLabelColor hierarchical-0:secondary SFSymbolsPreviewWireframe" d="M43.457-3.61328L91.5527-3.61328C94.9707-3.61328 97.6562-6.64062 97.6562-9.96094C97.6562-13.4277 95.0195-16.3086 91.5527-16.3086L43.457-16.3086C40.0391-16.3086 37.3535-13.3301 37.3535-9.96094C37.3535-6.73828 40.0879-3.61328 43.457-3.61328Z" data-clipstroke-keyframes="0 0 0 0.8570852 0.00069475174 0 1 0.35463142 0.49903297"/>
   <path class="monochrome-1 multicolor-1:labelColor hierarchical-1:primary SFSymbolsPreviewWireframe" d="M16.6016-3.07617L23.1445-3.07617C26.8555-3.07617 29.9805-6.15234 29.9805-9.91211C29.9805-13.6719 26.8555-16.748 23.1445-16.748L16.6016-16.748C12.8906-16.748 9.76562-13.6719 9.76562-9.91211C9.76562-6.15234 12.8906-3.07617 16.6016-3.07617Z"/>
   <path class="monochrome-2 multicolor-2:secondaryLabelColor hierarchical-2:secondary SFSymbolsPreviewWireframe" d="M43.457-28.9062L91.5527-28.9062C94.9707-28.9062 97.6562-31.9336 97.6562-35.2539C97.6562-38.7207 95.0195-41.6016 91.5527-41.6016L43.457-41.6016C40.0391-41.6016 37.3535-38.623 37.3535-35.2539C37.3535-32.0312 40.0879-28.9062 43.457-28.9062Z" data-clipstroke-keyframes="0 0 0 0.857085 0.00069475174 0 1 0.35463142 0.4990332"/>
   <path class="monochrome-3 multicolor-3:labelColor hierarchical-3:primary SFSymbolsPreviewWireframe" d="M16.6016-28.3691L23.1445-28.3691C26.8555-28.3691 29.9805-31.4453 29.9805-35.2051C29.9805-38.9648 26.8555-42.041 23.1445-42.041L16.6016-42.041C12.8906-42.041 9.76562-38.9648 9.76562-35.2051C9.76562-31.4453 12.8906-28.3691 16.6016-28.3691Z"/>
   <path class="monochrome-4 multicolor-4:secondaryLabelColor hierarchical-4:secondary SFSymbolsPreviewWireframe" d="M43.457-54.1992L91.5527-54.1992C94.9707-54.1992 97.6562-57.2266 97.6562-60.5469C97.6562-64.0137 95.0195-66.8945 91.5527-66.8945L43.457-66.8945C40.0391-66.8945 37.3535-63.916 37.3535-60.5469C37.3535-57.3242 40.0879-54.1992 43.457-54.1992Z" data-clipstroke-keyframes="0 0 0 0.857085 0.00069463253 0 1 0.35463142 0.4990332"/>
   <path class="monochrome-5 multicolor-5:labelColor hierarchical-5:primary SFSymbolsPreviewWireframe" d="M16.6016-53.6621L23.1445-53.6621C26.8555-53.6621 29.9805-56.7383 29.9805-60.498C29.9805-64.2578 26.8555-67.334 23.1445-67.334L16.6016-67.334C12.8906-67.334 9.76562-64.2578 9.76562-60.498C9.76562-56.7383 12.8906-53.6621 16.6016-53.6621Z"/>
  </g>
  <g id="Regular-S" transform="matrix(1 0 0 1 1401.14 696)">
   <path class="monochrome-0 multicolor-0:secondaryLabelColor hierarchical-0:secondary SFSymbolsPreviewWireframe" d="M36.6699-8.39844L84.082-8.39844C86.0352-8.39844 87.6465-9.96094 87.6465-11.9141C87.6465-13.8672 86.0352-15.4297 84.082-15.4297L36.6699-15.4297C34.7168-15.4297 33.1543-13.8672 33.1543-11.9141C33.1543-9.96094 34.7168-8.39844 36.6699-8.39844Z" data-clipstroke-keyframes="0 0 0 0.90628386 0.0007915497 0 1 0.40443373 0.49949837"/>
   <path class="monochrome-1 multicolor-1:labelColor hierarchical-1:primary SFSymbolsPreviewWireframe" d="M13.8184-7.8125L20.6055-7.8125C22.8516-7.8125 24.707-9.66797 24.707-11.9141C24.707-14.209 22.8516-16.0156 20.6055-16.0156L13.8184-16.0156C11.5723-16.0156 9.76562-14.209 9.76562-11.9141C9.76562-9.66797 11.5723-7.8125 13.8184-7.8125Z"/>
   <path class="monochrome-2 multicolor-2:secondaryLabelColor hierarchical-2:secondary SFSymbolsPreviewWireframe" d="M36.6699-31.6895L84.082-31.6895C86.0352-31.6895 87.6465-33.252 87.6465-35.2051C87.6465-37.1582 86.0352-38.7207 84.082-38.7207L36.6699-38.7207C34.7168-38.7207 33.1543-37.1582 33.1543-35.2051C33.1543-33.252 34.7168-31.6895 36.6699-31.6895Z" data-clipstroke-keyframes="0 0 0 0.90628386 0.0007915497 0 1 0.40443373 0.49949837"/>
   <path class="monochrome-3 multicolor-3:labelColor hierarchical-3:primary SFSymbolsPreviewWireframe" d="M13.8184-31.1035L20.6055-31.1035C22.8516-31.1035 24.707-32.959 24.707-35.2051C24.707-37.5 22.8516-39.3066 20.6055-39.3066L13.8184-39.3066C11.5723-39.3066 9.76562-37.5 9.76562-35.2051C9.76562-32.959 11.5723-31.1035 13.8184-31.1035Z"/>
   <path class="monochrome-4 multicolor-4:secondaryLabelColor hierarchical-4:secondary SFSymbolsPreviewWireframe" d="M36.6699-54.9805L84.082-54.9805C86.0352-54.9805 87.6465-56.543 87.6465-58.4961C87.6465-60.4492 86.0352-62.0117 84.082-62.0117L36.6699-62.0117C34.7168-62.0117 33.1543-60.4492 33.1543-58.4961C33.1543-56.543 34.7168-54.9805 36.6699-54.9805Z" data-clipstroke-keyframes="0 0 0 0.906284 0.0007914305 0 1 0.40443373 0.49949837"/>
   <path class="monochrome-5 multicolor-5:labelColor hierarchical-5:primary SFSymbolsPreviewWireframe" d="M13.8184-54.3945L20.6055-54.3945C22.8516-54.3945 24.707-56.25 24.707-58.4961C24.707-60.791 22.8516-62.5977 20.6055-62.5977L13.8184-62.5977C11.5723-62.5977 9.76562-60.791 9.76562-58.4961C9.76562-56.25 11.5723-54.3945 13.8184-54.3945Z"/>
  </g>
  <g id="Ultralight-S" transform="matrix(1 0 0 1 513.207 696)">
   <path class="monochrome-0 multicolor-0:secondaryLabelColor hierarchical-0:secondary SFSymbolsPreviewWireframe" d="M29.1773-11.7134L82.1294-11.7134C82.7657-11.7134 83.2417-12.1406 83.2417-12.7768C83.2417-13.4585 82.7657-13.8858 82.1294-13.8858L29.1773-13.8858C28.5411-13.8858 28.1138-13.4585 28.1138-12.7768C28.1138-12.1406 28.5411-11.7134 29.1773-11.7134Z" data-clipstroke-keyframes="0 0 0 0.97016287 0.000916481 0 1 0.46889353 0.499763"/>
   <path class="monochrome-1 multicolor-1:labelColor hierarchical-1:primary SFSymbolsPreviewWireframe" d="M12.2744-10.31L17.9263-10.31C19.3096-10.31 20.4385-11.439 20.4385-12.7768C20.4385-14.1636 19.3096-15.2891 17.9263-15.2891L12.2744-15.2891C10.9365-15.2891 9.76562-14.1636 9.76562-12.7768C9.76562-11.439 10.9365-10.31 12.2744-10.31Z"/>
   <path class="monochrome-2 multicolor-2:secondaryLabelColor hierarchical-2:secondary SFSymbolsPreviewWireframe" d="M29.1773-34.0962L82.1294-34.0962C82.7657-34.0962 83.2417-34.5688 83.2417-35.2051C83.2417-35.8413 82.7657-36.314 82.1294-36.314L29.1773-36.314C28.5411-36.314 28.1138-35.8413 28.1138-35.2051C28.1138-34.5688 28.5411-34.0962 29.1773-34.0962Z" data-clipstroke-keyframes="0 0 0 0.9699931 0.000916481 0 1 0.46872807 0.4997592"/>
   <path class="monochrome-3 multicolor-3:labelColor hierarchical-3:primary SFSymbolsPreviewWireframe" d="M12.2744-32.7383L17.9263-32.7383C19.3096-32.7383 20.4385-33.8218 20.4385-35.2051C20.4385-36.5918 19.3096-37.6719 17.9263-37.6719L12.2744-37.6719C10.9365-37.6719 9.76562-36.5918 9.76562-35.2051C9.76562-33.8218 10.9365-32.7383 12.2744-32.7383Z"/>
   <path class="monochrome-4 multicolor-4:secondaryLabelColor hierarchical-4:secondary SFSymbolsPreviewWireframe" d="M29.1773-56.5244L82.1294-56.5244C82.7657-56.5244 83.2417-56.9517 83.2417-57.6333C83.2417-58.2695 82.7657-58.6968 82.1294-58.6968L29.1773-58.6968C28.5411-58.6968 28.1138-58.2695 28.1138-57.6333C28.1138-56.9517 28.5411-56.5244 29.1773-56.5244Z" data-clipstroke-keyframes="0 0 0 0.9701631 0.00091671944 0 1 0.46889353 0.49976325"/>
   <path class="monochrome-5 multicolor-5:labelColor hierarchical-5:primary SFSymbolsPreviewWireframe" d="M12.2744-55.1211L17.9263-55.1211C19.3096-55.1211 20.4385-56.25 20.4385-57.6333C20.4385-58.9746 19.3096-60.1001 17.9263-60.1001L12.2744-60.1001C10.9365-60.1001 9.76562-58.9746 9.76562-57.6333C9.76562-56.25 10.9365-55.1211 12.2744-55.1211Z"/>
  </g>
 </g>
</svg>
