<?xml version="1.0" encoding="UTF-8"?>
<!--Generator: Apple Native CoreSVG 232.5-->
<!DOCTYPE svg
PUBLIC "-//W3C//DTD SVG 1.1//EN"
       "http://www.w3.org/Graphics/SVG/1.1/DTD/svg11.dtd">
<svg version="1.1" xmlns="http://www.w3.org/2000/svg" xmlns:xlink="http://www.w3.org/1999/xlink" width="3300" height="2200">
 <g id="Notes">
  <rect height="2200" id="artboard" style="fill:white;opacity:1" width="3300" x="0" y="0"/>
  <line style="fill:none;stroke:black;opacity:1;stroke-width:0.5;" x1="263" x2="3036" y1="292" y2="292"/>
  <text style="stroke:none;fill:black;font-family:sans-serif;font-size:13;font-weight:bold;" transform="matrix(1 0 0 1 263 322)">Weight/Scale Variations</text>
  <text style="stroke:none;fill:black;font-family:sans-serif;font-size:13;text-anchor:middle;" transform="matrix(1 0 0 1 559.711 322)">Ultralight</text>
  <text style="stroke:none;fill:black;font-family:sans-serif;font-size:13;text-anchor:middle;" transform="matrix(1 0 0 1 856.422 322)">Thin</text>
  <text style="stroke:none;fill:black;font-family:sans-serif;font-size:13;text-anchor:middle;" transform="matrix(1 0 0 1 1153.13 322)">Light</text>
  <text style="stroke:none;fill:black;font-family:sans-serif;font-size:13;text-anchor:middle;" transform="matrix(1 0 0 1 1449.84 322)">Regular</text>
  <text style="stroke:none;fill:black;font-family:sans-serif;font-size:13;text-anchor:middle;" transform="matrix(1 0 0 1 1746.56 322)">Medium</text>
  <text style="stroke:none;fill:black;font-family:sans-serif;font-size:13;text-anchor:middle;" transform="matrix(1 0 0 1 2043.27 322)">Semibold</text>
  <text style="stroke:none;fill:black;font-family:sans-serif;font-size:13;text-anchor:middle;" transform="matrix(1 0 0 1 2339.98 322)">Bold</text>
  <text style="stroke:none;fill:black;font-family:sans-serif;font-size:13;text-anchor:middle;" transform="matrix(1 0 0 1 2636.69 322)">Heavy</text>
  <text style="stroke:none;fill:black;font-family:sans-serif;font-size:13;text-anchor:middle;" transform="matrix(1 0 0 1 2933.4 322)">Black</text>
  <line style="fill:none;stroke:black;opacity:1;stroke-width:0.5;" x1="263" x2="3036" y1="1903" y2="1903"/>
  <g transform="matrix(0.2 0 0 0.2 263 1933)">
   <path d="m46.2402 4.15039c21.5332 0 39.4531-17.8711 39.4531-39.4043s-17.9688-39.4043-39.502-39.4043c-21.4844 0-39.3555 17.8711-39.3555 39.4043s17.9199 39.4043 39.4043 39.4043Zm0-7.42188c-17.7246 0-31.8848-14.209-31.8848-31.9824s14.1113-31.9824 31.8359-31.9824c17.7734 0 32.0312 14.209 32.0312 31.9824s-14.209 31.9824-31.9824 31.9824Zm-17.9688-31.9824c0 2.14844 1.51367 3.61328 3.75977 3.61328h10.498v10.5957c0 2.19727 1.46484 3.71094 3.61328 3.71094 2.24609 0 3.71094-1.51367 3.71094-3.71094v-10.5957h10.5957c2.19727 0 3.71094-1.46484 3.71094-3.61328 0-2.19727-1.51367-3.71094-3.71094-3.71094h-10.5957v-10.5469c0-2.24609-1.46484-3.75977-3.71094-3.75977-2.14844 0-3.61328 1.51367-3.61328 3.75977v10.5469h-10.498c-2.24609 0-3.75977 1.51367-3.75977 3.71094Z"/>
  </g>
  <g transform="matrix(0.2 0 0 0.2 281.506 1933)">
   <path d="m58.5449 14.5508c27.2461 0 49.8047-22.6074 49.8047-49.8047 0-27.2461-22.6074-49.8047-49.8535-49.8047-27.1973 0-49.7559 22.5586-49.7559 49.8047 0 27.1973 22.6074 49.8047 49.8047 49.8047Zm0-8.30078c-23.0469 0-41.4551-18.457-41.4551-41.5039s18.3594-41.5039 41.4062-41.5039 41.5527 18.457 41.5527 41.5039-18.457 41.5039-41.5039 41.5039Zm-22.6562-41.5039c0 2.39258 1.66016 4.00391 4.15039 4.00391h14.3555v14.4043c0 2.44141 1.66016 4.15039 4.05273 4.15039 2.44141 0 4.15039-1.66016 4.15039-4.15039v-14.4043h14.4043c2.44141 0 4.15039-1.61133 4.15039-4.00391 0-2.44141-1.70898-4.15039-4.15039-4.15039h-14.4043v-14.3555c0-2.49023-1.70898-4.19922-4.15039-4.19922-2.39258 0-4.05273 1.70898-4.05273 4.19922v14.3555h-14.3555c-2.49023 0-4.15039 1.70898-4.15039 4.15039Z"/>
  </g>
  <g transform="matrix(0.2 0 0 0.2 304.924 1933)">
   <path d="m74.8535 28.3203c34.8145 0 63.623-28.8086 63.623-63.5742 0-34.8145-28.8574-63.623-63.6719-63.623-34.7656 0-63.5254 28.8086-63.5254 63.623 0 34.7656 28.8086 63.5742 63.5742 63.5742Zm0-9.08203c-30.1758 0-54.4434-24.3164-54.4434-54.4922 0-30.2246 24.2188-54.4922 54.3945-54.4922 30.2246 0 54.541 24.2676 54.541 54.4922 0 30.1758-24.2676 54.4922-54.4922 54.4922Zm-28.8574-54.4922c0 2.58789 1.85547 4.39453 4.58984 4.39453h19.7266v19.7754c0 2.68555 1.85547 4.58984 4.44336 4.58984 2.68555 0 4.54102-1.85547 4.54102-4.58984v-19.7754h19.7754c2.68555 0 4.58984-1.80664 4.58984-4.39453 0-2.73438-1.85547-4.58984-4.58984-4.58984h-19.7754v-19.7266c0-2.73438-1.85547-4.63867-4.54102-4.63867-2.58789 0-4.44336 1.9043-4.44336 4.63867v19.7266h-19.7266c-2.73438 0-4.58984 1.85547-4.58984 4.58984Z"/>
  </g>
  <text style="stroke:none;fill:black;font-family:sans-serif;font-size:13;font-weight:bold;" transform="matrix(1 0 0 1 263 1953)">Design Variations</text>
  <text style="stroke:none;fill:black;font-family:sans-serif;font-size:13;" transform="matrix(1 0 0 1 263 1971)">Symbols are supported in up to nine weights and three scales.</text>
  <text style="stroke:none;fill:black;font-family:sans-serif;font-size:13;" transform="matrix(1 0 0 1 263 1989)">For optimal layout with text and other symbols, vertically align</text>
  <text style="stroke:none;fill:black;font-family:sans-serif;font-size:13;" transform="matrix(1 0 0 1 263 2007)">symbols with the adjacent text.</text>
  <line style="fill:none;stroke:#00AEEF;stroke-width:0.5;opacity:1.0;" x1="776" x2="776" y1="1919" y2="1933"/>
  <g transform="matrix(0.2 0 0 0.2 776 1933)">
   <path d="m16.5527 0.78125c2.58789 0 3.85742-0.976562 4.78516-3.71094l6.29883-17.2363h28.8086l6.29883 17.2363c0.927734 2.73438 2.19727 3.71094 4.73633 3.71094 2.58789 0 4.24805-1.5625 4.24805-4.00391 0-0.830078-0.146484-1.61133-0.537109-2.63672l-22.9004-60.9863c-1.12305-2.97852-3.125-4.49219-6.25-4.49219-3.02734 0-5.07812 1.46484-6.15234 4.44336l-22.9004 61.084c-0.390625 1.02539-0.537109 1.80664-0.537109 2.63672 0 2.44141 1.5625 3.95508 4.10156 3.95508Zm13.4766-28.3691 11.8652-32.8613h0.244141l11.8652 32.8613Z"/>
  </g>
  <line style="fill:none;stroke:#00AEEF;stroke-width:0.5;opacity:1.0;" x1="792.836" x2="792.836" y1="1919" y2="1933"/>
  <text style="stroke:none;fill:black;font-family:sans-serif;font-size:13;font-weight:bold;" transform="matrix(1 0 0 1 776 1953)">Margins</text>
  <text style="stroke:none;fill:black;font-family:sans-serif;font-size:13;" transform="matrix(1 0 0 1 776 1971)">Leading and trailing margins on the left and right side of each symbol</text>
  <text style="stroke:none;fill:black;font-family:sans-serif;font-size:13;" transform="matrix(1 0 0 1 776 1989)">can be adjusted by modifying the x-location of the margin guidelines.</text>
  <text style="stroke:none;fill:black;font-family:sans-serif;font-size:13;" transform="matrix(1 0 0 1 776 2007)">Modifications are automatically applied proportionally to all</text>
  <text style="stroke:none;fill:black;font-family:sans-serif;font-size:13;" transform="matrix(1 0 0 1 776 2025)">scales and weights.</text>
  <g transform="matrix(0.2 0 0 0.2 1289 1933)">
   <path d="m14.209 9.32617 8.49609 8.54492c4.29688 4.3457 9.22852 4.05273 13.8672-1.07422l53.4668-58.9355-4.83398-4.88281-53.0762 58.3984c-1.75781 2.00195-3.41797 2.49023-5.76172 0.146484l-5.85938-5.81055c-2.34375-2.29492-1.80664-4.00391 0.195312-5.81055l57.373-54.0039-4.88281-4.83398-57.959 54.4434c-4.93164 4.58984-5.32227 9.47266-1.02539 13.8184Zm32.0801-90.9668c-2.09961 2.05078-2.24609 4.93164-1.07422 6.88477 1.17188 1.80664 3.4668 2.97852 6.68945 2.14844 7.32422-1.70898 14.9414-2.00195 22.0703 2.68555l-2.92969 7.27539c-1.70898 4.15039-0.830078 7.08008 1.85547 9.81445l11.4746 11.5723c2.44141 2.44141 4.49219 2.53906 7.32422 2.05078l5.32227-0.976562 3.32031 3.36914-0.195312 2.7832c-0.195312 2.49023 0.439453 4.39453 2.88086 6.78711l3.80859 3.71094c2.39258 2.39258 5.46875 2.53906 7.8125 0.195312l14.5508-14.5996c2.34375-2.34375 2.24609-5.32227-0.146484-7.71484l-3.85742-3.80859c-2.39258-2.39258-4.24805-3.17383-6.64062-2.97852l-2.88086 0.244141-3.22266-3.17383 1.2207-5.61523c0.634766-2.83203-0.146484-5.0293-3.07617-7.95898l-10.9863-10.9375c-16.6992-16.6016-38.8672-16.2109-53.3203-1.75781Zm7.4707 1.85547c12.1582-8.88672 28.6133-7.37305 39.7461 3.75977l12.1582 12.0605c1.17188 1.17188 1.36719 2.09961 1.02539 3.80859l-1.61133 7.42188 7.51953 7.42188 4.93164-0.292969c1.26953-0.0488281 1.66016 0.0488281 2.63672 1.02539l2.88086 2.88086-12.207 12.207-2.88086-2.88086c-0.976562-0.976562-1.12305-1.36719-1.07422-2.68555l0.341797-4.88281-7.4707-7.42188-7.61719 1.26953c-1.61133 0.341797-2.34375 0.195312-3.56445-0.976562l-10.0098-10.0098c-1.26953-1.17188-1.41602-2.00195-0.634766-3.85742l4.39453-10.4492c-7.8125-7.27539-17.9688-10.4004-28.125-7.42188-0.78125 0.195312-1.07422-0.439453-0.439453-0.976562Z"/>
  </g>
  <text style="stroke:none;fill:black;font-family:sans-serif;font-size:13;font-weight:bold;" transform="matrix(1 0 0 1 1289 1953)">Exporting</text>
  <text style="stroke:none;fill:black;font-family:sans-serif;font-size:13;" transform="matrix(1 0 0 1 1289 1971)">Symbols should be outlined when exporting to ensure the</text>
  <text style="stroke:none;fill:black;font-family:sans-serif;font-size:13;" transform="matrix(1 0 0 1 1289 1989)">design is preserved when submitting to Xcode.</text>
  <text id="template-version" style="stroke:none;fill:black;font-family:sans-serif;font-size:13;text-anchor:end;" transform="matrix(1 0 0 1 3036 1933)">Template v.2.0</text>
  <text style="stroke:none;fill:black;font-family:sans-serif;font-size:13;text-anchor:end;" transform="matrix(1 0 0 1 3036 1951)">Requires Xcode 12 or greater</text>
  <text id="descriptive-name" style="stroke:none;fill:black;font-family:sans-serif;font-size:13;text-anchor:end;" transform="matrix(1 0 0 1 3036 1969)">Generated from ellipsis.bubble</text>
  <text style="stroke:none;fill:black;font-family:sans-serif;font-size:13;text-anchor:end;" transform="matrix(1 0 0 1 3036 1987)">Typeset at 100.0 points</text>
  <text style="stroke:none;fill:black;font-family:sans-serif;font-size:13;" transform="matrix(1 0 0 1 263 726)">Small</text>
  <text style="stroke:none;fill:black;font-family:sans-serif;font-size:13;" transform="matrix(1 0 0 1 263 1156)">Medium</text>
  <text style="stroke:none;fill:black;font-family:sans-serif;font-size:13;" transform="matrix(1 0 0 1 263 1586)">Large</text>
 </g>
 <g id="Guides">
  <g id="H-reference" style="fill:#27AAE1;stroke:none;" transform="matrix(1 0 0 1 339 696)">
   <path d="M0.993654 0L3.63775 0L29.3281-67.1323L30.0303-67.1323L30.0303-70.459L28.1226-70.459ZM11.6885-24.4799L46.9815-24.4799L46.2315-26.7285L12.4385-26.7285ZM55.1196 0L57.7637 0L30.6382-70.459L29.4326-70.459L29.4326-67.1323Z"/>
  </g>
  <line id="Baseline-S" style="fill:none;stroke:#27AAE1;opacity:1;stroke-width:0.5;" x1="263" x2="3036" y1="696" y2="696"/>
  <line id="Capline-S" style="fill:none;stroke:#27AAE1;opacity:1;stroke-width:0.5;" x1="263" x2="3036" y1="625.541" y2="625.541"/>
  <g id="H-reference" style="fill:#27AAE1;stroke:none;" transform="matrix(1 0 0 1 339 1126)">
   <path d="M0.993654 0L3.63775 0L29.3281-67.1323L30.0303-67.1323L30.0303-70.459L28.1226-70.459ZM11.6885-24.4799L46.9815-24.4799L46.2315-26.7285L12.4385-26.7285ZM55.1196 0L57.7637 0L30.6382-70.459L29.4326-70.459L29.4326-67.1323Z"/>
  </g>
  <line id="Baseline-M" style="fill:none;stroke:#27AAE1;opacity:1;stroke-width:0.5;" x1="263" x2="3036" y1="1126" y2="1126"/>
  <line id="Capline-M" style="fill:none;stroke:#27AAE1;opacity:1;stroke-width:0.5;" x1="263" x2="3036" y1="1055.54" y2="1055.54"/>
  <g id="H-reference" style="fill:#27AAE1;stroke:none;" transform="matrix(1 0 0 1 339 1556)">
   <path d="M0.993654 0L3.63775 0L29.3281-67.1323L30.0303-67.1323L30.0303-70.459L28.1226-70.459ZM11.6885-24.4799L46.9815-24.4799L46.2315-26.7285L12.4385-26.7285ZM55.1196 0L57.7637 0L30.6382-70.459L29.4326-70.459L29.4326-67.1323Z"/>
  </g>
  <line id="Baseline-L" style="fill:none;stroke:#27AAE1;opacity:1;stroke-width:0.5;" x1="263" x2="3036" y1="1556" y2="1556"/>
  <line id="Capline-L" style="fill:none;stroke:#27AAE1;opacity:1;stroke-width:0.5;" x1="263" x2="3036" y1="1485.54" y2="1485.54"/>
  <line id="left-margin" style="fill:none;stroke:#00AEEF;stroke-width:0.5;opacity:1.0;" x1="1383.59" x2="1383.59" y1="1030.79" y2="1150.12"/>
  <line id="right-margin" style="fill:none;stroke:#00AEEF;stroke-width:0.5;opacity:1.0;" x1="1516.1" x2="1516.1" y1="1030.79" y2="1150.12"/>
 </g>
 <g id="Symbols">
  <g id="Black-L" transform="matrix(1 0 0 1 2842.82 1556)">
   <path d="M62.972 38.4136C67.9919 38.4136 72.1912 36.4078 78.3502 31.0561L99.3403 12.8031L132.874 12.8031C152.566 12.8031 165.078 0.204932 165.078-19.4018L165.078-70.1914C165.078-89.7981 152.566-102.396 132.874-102.396L48.2888-102.396C28.5965-102.396 16.084-89.8005 16.084-70.1914L16.084-19.4018C16.084 0.207325 29.7646 12.8031 46.5366 12.8031L51.0861 12.8031L51.0861 25.393C51.0861 33.5116 55.6255 38.4136 62.972 38.4136ZM67.7234 16.3772L67.7234-0.620692C67.7234-5.3943 65.2389-7.17794 61.1662-7.17794L49.8098-7.17794C40.6742-7.17794 36.065-11.7004 36.065-20.9227L36.065-68.6705C36.065-77.8732 40.6742-82.3944 49.8098-82.3944L131.353-82.3944C140.483-82.3944 145.097-77.8732 145.097-68.6705L145.097-20.9227C145.097-11.7004 140.483-7.17794 131.353-7.17794L97.6659-7.17794C92.7891-7.17794 90.7382-6.15134 87.1302-2.6221ZM61.1826-34.1814C67.0296-34.1814 71.74-38.9502 71.74-44.7984C71.74-50.6442 67.0296-55.413 61.1826-55.413C55.2771-55.413 50.5656-50.6442 50.5656-44.7984C50.5656-38.9502 55.2771-34.1814 61.1826-34.1814ZM90.5708-34.1814C96.4178-34.1814 101.185-38.9502 101.185-44.7984C101.185-50.6442 96.4178-55.413 90.5708-55.413C84.7226-55.413 79.955-50.6442 79.955-44.7984C79.955-38.9502 84.7226-34.1814 90.5708-34.1814ZM119.98-34.1814C125.884-34.1814 130.596-38.9502 130.596-44.7984C130.596-50.6442 125.884-55.413 119.98-55.413C114.132-55.413 109.421-50.6442 109.421-44.7984C109.421-38.9502 114.132-34.1814 119.98-34.1814Z"/>
  </g>
  <g id="Heavy-L" transform="matrix(1 0 0 1 2547.37 1556)">
   <path d="M60.8794 37.2547C65.4041 37.2547 69.0877 35.361 74.6114 30.535L95.8187 12.0206L131.275 12.0206C150.631 12.0206 162.55-0.0299295 162.55-19.2547L162.55-69.616C162.55-88.8407 150.631-100.891 131.275-100.891L47.3593-100.891C28.0025-100.891 16.084-88.852 16.084-69.616L16.084-19.2547C16.084-0.0187036 28.895 12.0206 46.0206 12.0206L50.2676 12.0206L50.2676 25.543C50.2676 32.8249 54.2919 37.2547 60.8794 37.2547ZM65.0755 17.8844L65.0755 0.575984C65.0755-3.83187 62.8921-5.4798 59.0197-5.4798L48.5307-5.4798C38.5565-5.4798 33.5844-10.4903 33.5844-20.4261L33.5844-68.4446C33.5844-78.3558 38.5565-83.3607 48.5307-83.3607L130.103-83.3607C140.055-83.3607 145.05-78.3558 145.05-68.4446L145.05-20.4261C145.05-10.4903 140.055-5.4798 130.103-5.4798L94.4676-5.4798C89.967-5.4798 87.9961-4.57672 84.698-1.32437ZM59.6769-34.2526C65.2884-34.2526 69.8178-38.8266 69.8178-44.4438C69.8178-50.0496 65.2884-54.6237 59.6769-54.6237C54.0208-54.6237 49.4858-50.0496 49.4858-44.4438C49.4858-38.8266 54.0208-34.2526 59.6769-34.2526ZM89.3019-34.2526C94.9134-34.2526 99.4818-38.8266 99.4818-44.4438C99.4818-50.0496 94.9134-54.6237 89.3019-54.6237C83.6848-54.6237 79.1163-50.0496 79.1163-44.4438C79.1163-38.8266 83.6848-34.2526 89.3019-34.2526ZM118.957-34.2526C124.608-34.2526 129.143-38.8266 129.143-44.4438C129.143-50.0496 124.608-54.6237 118.957-54.6237C113.34-54.6237 108.81-50.0496 108.81-44.4438C108.81-38.8266 113.34-34.2526 118.957-34.2526Z"/>
  </g>
  <g id="Bold-L" transform="matrix(1 0 0 1 2252.2 1556)">
   <path d="M58.2228 35.7657C62.1104 35.7657 65.1637 34.0401 69.8588 29.9119L91.3574 11.0971L129.486 11.0971C148.264 11.0971 159.467-0.284626 159.467-18.884L159.467-69.0579C159.467-87.6573 148.264-99.0391 129.486-99.0391L46.0651-99.0391C27.2873-99.0391 16.084-87.6838 16.084-69.0579L16.084-18.884C16.084-0.258166 27.8714 11.0971 45.189 11.0971L49.2235 11.0971L49.2235 25.7349C49.2235 31.9497 52.61 35.7657 58.2228 35.7657ZM61.72 19.7069L61.72 2.0217C61.72-1.88064 59.9055-3.34465 56.3536-3.34465L46.8509-3.34465C35.9735-3.34465 30.5257-8.9547 30.5257-19.6698L30.5257-68.2722C30.5257-78.9625 35.9735-84.5593 46.8509-84.5593L128.7-84.5593C139.525-84.5593 145.025-78.9625 145.025-68.2722L145.025-19.6698C145.025-8.9547 139.525-3.34465 128.7-3.34465L90.4133-3.34465C86.4112-3.34465 84.5699-2.58778 81.6561 0.303972ZM58.0408-34.367C63.338-34.367 67.6222-38.6804 67.6222-43.9908C67.6222-49.2748 63.338-53.5882 58.0408-53.5882C52.7144-53.5882 48.417-49.2748 48.417-43.9908C48.417-38.6804 52.7144-34.367 58.0408-34.367ZM87.7566-34.367C93.0537-34.367 97.3539-38.6804 97.3539-43.9908C97.3539-49.2748 93.0537-53.5882 87.7566-53.5882C82.4462-53.5882 78.146-49.2748 78.146-43.9908C78.146-38.6804 82.4462-34.367 87.7566-34.367ZM117.51-34.367C122.823-34.367 127.121-38.6804 127.121-43.9908C127.121-49.2748 122.823-53.5882 117.51-53.5882C112.2-53.5882 107.916-49.2748 107.916-43.9908C107.916-38.6804 112.2-34.367 117.51-34.367Z"/>
  </g>
  <g id="Semibold-L" transform="matrix(1 0 0 1 1956.55 1556)">
   <path d="M56.3913 34.7392C59.8398 34.7392 62.4585 33.1295 66.5824 29.4824L88.2818 10.4604L128.253 10.4604C146.632 10.4604 157.342-0.460212 157.342-18.6285L157.342-68.6732C157.342-86.8415 146.632-97.7622 128.253-97.7622L45.1729-97.7622C26.7942-97.7622 16.084-86.8785 16.084-68.6732L16.084-18.6285C16.084-0.423249 27.1657 10.4604 44.6157 10.4604L48.5038 10.4604L48.5038 25.8672C48.5038 31.3464 51.4506 34.7392 56.3913 34.7392ZM59.4067 20.9633L59.4067 3.01837C59.4067-0.535472 57.8466-1.87269 54.5156-1.87269L45.6928-1.87269C34.1927-1.87269 28.4171-7.89603 28.4171-19.1484L28.4171-68.1533C28.4171-79.3808 34.1927-85.3857 45.6928-85.3857L127.733-85.3857C139.159-85.3857 145.009-79.3808 145.009-68.1533L145.009-19.1484C145.009-7.89603 139.159-1.87269 127.733-1.87269L87.6184-1.87269C83.9598-1.87269 82.208-1.21661 79.559 1.42654ZM56.9129-34.4459C61.9933-34.4459 66.1085-38.5796 66.1085-43.6786C66.1085-48.7406 61.9933-52.8743 56.9129-52.8743C51.8139-52.8743 47.6802-48.7406 47.6802-43.6786C47.6802-38.5796 51.8139-34.4459 56.9129-34.4459ZM86.6913-34.4459C91.7717-34.4459 95.8869-38.5796 95.8869-43.6786C95.8869-48.7406 91.7717-52.8743 86.6913-52.8743C81.5923-52.8743 77.4771-48.7406 77.4771-43.6786C77.4771-38.5796 81.5923-34.4459 86.6913-34.4459ZM116.513-34.4459C121.594-34.4459 125.727-38.5796 125.727-43.6786C125.727-48.7406 121.594-52.8743 116.513-52.8743C111.414-52.8743 107.299-48.7406 107.299-43.6786C107.299-38.5796 111.414-34.4459 116.513-34.4459Z"/>
  </g>
  <g id="Medium-L" transform="matrix(1 0 0 1 1660.65 1556)">
   <path d="M55.0026 33.9608C58.1181 33.9608 60.4073 32.4391 64.0981 29.1566L85.9498 9.97771L127.318 9.97771C145.394 9.97771 155.73-0.593349 155.73-18.4348L155.73-68.3815C155.73-86.2229 145.394-96.794 127.318-96.794L44.4964-96.794C26.4203-96.794 16.084-86.2678 16.084-68.3815L16.084-18.4348C16.084-0.548423 26.6306 9.97771 44.1811 9.97771L47.958 9.97771L47.958 25.9675C47.958 30.8889 50.5714 33.9608 55.0026 33.9608ZM57.6527 21.9159L57.6527 3.77409C57.6527 0.484488 56.2854-0.756592 53.122-0.756592L44.8147-0.756592C32.8425-0.756592 26.8183-7.09331 26.8183-18.753L26.8183-68.0632C26.8183-79.698 32.8425-86.0122 44.8147-86.0122L127-86.0122C138.882-86.0122 144.996-79.698 144.996-68.0632L144.996-18.753C144.996-7.09331 138.882-0.756592 127-0.756592L85.4991-0.756592C82.1011-0.756592 80.4171-0.176937 77.9689 2.27773ZM56.0576-34.5058C60.9738-34.5058 64.9607-38.5032 64.9607-43.4418C64.9607-48.3355 60.9738-52.333 56.0576-52.333C51.131-52.333 47.1216-48.3355 47.1216-43.4418C47.1216-38.5032 51.131-34.5058 56.0576-34.5058ZM85.8835-34.5058C90.7996-34.5058 94.7746-38.5032 94.7746-43.4418C94.7746-48.3355 90.7996-52.333 85.8835-52.333C80.9449-52.333 76.9699-48.3355 76.9699-43.4418C76.9699-38.5032 80.9449-34.5058 85.8835-34.5058ZM115.757-34.5058C120.661-34.5058 124.67-38.5032 124.67-43.4418C124.67-48.3355 120.661-52.333 115.757-52.333C110.818-52.333 106.831-48.3355 106.831-43.4418C106.831-38.5032 110.818-34.5058 115.757-34.5058Z"/>
  </g>
  <g id="Regular-L" transform="matrix(1 0 0 1 1364.99 1556)">
   <path d="M53.1913 32.9456C55.8724 32.9456 57.7319 31.5385 60.8577 28.7318L82.908 9.34805L126.098 9.34805C143.78 9.34805 153.629-0.767006 153.629-18.182L153.629-68.001C153.629-85.416 143.78-95.5311 126.098-95.5311L43.6141-95.5311C25.9327-95.5311 16.084-85.4713 16.084-68.001L16.084-18.182C16.084-0.711692 25.9327 9.34805 43.6141 9.34805L47.2461 9.34805L47.2461 26.0983C47.2461 30.2921 49.4247 32.9456 53.1913 32.9456ZM55.3648 23.1585L55.3648 4.75981C55.3648 1.81487 54.2491 0.699192 51.3042 0.699192L43.6694 0.699192C31.0813 0.699192 24.7328-6.04628 24.7328-18.2373L24.7328-67.9457C24.7328-80.1117 31.0813-86.8295 43.6694-86.8295L126.043-86.8295C138.521-86.8295 144.98-80.1117 144.98-67.9457L144.98-18.2373C144.98-6.04628 138.521 0.699192 126.043 0.699192L82.7348 0.699192C79.6767 0.699192 78.0811 1.17916 75.8948 3.38796ZM54.9421-34.5838C59.6439-34.5838 63.4637-38.4035 63.4637-43.133C63.4637-47.8072 59.6439-51.6269 54.9421-51.6269C50.2403-51.6269 46.3929-47.8072 46.3929-43.133C46.3929-38.4035 50.2403-34.5838 54.9421-34.5838ZM84.8299-34.5838C89.5317-34.5838 93.3238-38.4035 93.3238-43.133C93.3238-47.8072 89.5317-51.6269 84.8299-51.6269C80.1004-51.6269 76.3083-47.8072 76.3083-43.133C76.3083-38.4035 80.1004-34.5838 84.8299-34.5838ZM114.77-34.5838C119.445-34.5838 123.292-38.4035 123.292-43.133C123.292-47.8072 119.445-51.6269 114.77-51.6269C110.041-51.6269 106.221-47.8072 106.221-43.133C106.221-38.4035 110.041-34.5838 114.77-34.5838Z"/>
  </g>
  <g id="Light-L" transform="matrix(1 0 0 1 1069.18 1556)">
   <path d="M50.9392 31.5715C53.0287 31.5715 54.5065 30.4697 56.7925 28.4455L79.1864 9.00452L126.098 9.00452C142.329 9.00452 151.815-0.70975 151.815-16.7125L151.815-68.6117C151.815-84.6145 142.329-94.3287 126.098-94.3287L41.801-94.3287C25.5701-94.3287 16.084-84.7079 16.084-68.6117L16.084-16.7125C16.084-0.616266 25.5701 9.00452 41.801 9.00452L46.33 9.00452L46.33 26.2701C46.33 29.5287 48.0697 31.5715 50.9392 31.5715ZM52.5593 24.1319L52.5593 5.52322C52.5593 3.26535 51.6726 2.3787 49.4147 2.3787L41.8945 2.3787C29.5545 2.3787 22.7098-4.74848 22.7098-16.806L22.7098-68.5182C22.7098-80.5888 29.5545-87.6692 41.8945-87.6692L126.005-87.6692C138.158-87.6692 145.19-80.5888 145.19-68.5182L145.19-16.806C145.19-4.74848 138.158 2.3787 126.005 2.3787L79.3376 2.3787C76.833 2.3787 75.5236 2.80141 73.6046 4.64759ZM55.2856-34.8319C59.6248-34.8319 63.1392-38.3463 63.1392-42.7322C63.1392-47.0247 59.6248-50.5391 55.2856-50.5391C50.9464-50.5391 47.3853-47.0247 47.3853-42.7322C47.3853-38.3463 50.9464-34.8319 55.2856-34.8319ZM83.9329-34.8319C88.2721-34.8319 91.7397-38.3463 91.7397-42.7322C91.7397-47.0247 88.2721-50.5391 83.9329-50.5391C79.5469-50.5391 76.0793-47.0247 76.0793-42.7322C76.0793-38.3463 79.5469-34.8319 83.9329-34.8319ZM112.614-34.8319C116.906-34.8319 120.467-38.3463 120.467-42.7322C120.467-47.0247 116.906-50.5391 112.614-50.5391C108.228-50.5391 104.713-47.0247 104.713-42.7322C104.713-38.3463 108.228-34.8319 112.614-34.8319Z"/>
  </g>
  <g id="Thin-L" transform="matrix(1 0 0 1 773.672 1556)">
   <path d="M47.9607 29.7541C49.2677 29.7541 50.2406 29.0561 51.416 28.0669L74.2642 8.55017L126.098 8.55017C140.411 8.55017 149.417-0.634024 149.417-14.7688L149.417-69.4195C149.417-83.5543 140.411-92.7385 126.098-92.7385L39.403-92.7385C25.0905-92.7385 16.084-83.6983 16.084-69.4195L16.084-14.7688C16.084-0.490057 25.0905 8.55017 39.403 8.55017L45.1184 8.55017L45.1184 26.4973C45.1184 28.5191 46.2775 29.7541 47.9607 29.7541ZM48.8487 25.4192L48.8487 6.53289C48.8487 5.18373 48.265 4.59998 46.9158 4.59998L39.547 4.59998C27.5351 4.59998 20.0342-3.03203 20.0342-14.9128L20.0342-69.2755C20.0342-81.2198 27.5351-88.7799 39.547-88.7799L125.954-88.7799C137.678-88.7799 145.467-81.2198 145.467-69.2755L145.467-14.9128C145.467-3.03203 137.678 4.59998 125.954 4.59998L74.8446 4.59998C73.072 4.59998 72.1412 4.94696 70.5756 6.31355ZM55.74-35.16C59.5996-35.16 62.7101-38.2705 62.7101-42.2021C62.7101-45.9898 59.5996-49.1003 55.74-49.1003C51.8804-49.1003 48.6979-45.9898 48.6979-42.2021C48.6979-38.2705 51.8804-35.16 55.74-35.16ZM82.7465-35.16C86.6061-35.16 89.6446-38.2705 89.6446-42.2021C89.6446-45.9898 86.6061-49.1003 82.7465-49.1003C78.8149-49.1003 75.7764-45.9898 75.7764-42.2021C75.7764-38.2705 78.8149-35.16 82.7465-35.16ZM109.761-35.16C113.549-35.16 116.732-38.2705 116.732-42.2021C116.732-45.9898 113.549-49.1003 109.761-49.1003C105.83-49.1003 102.719-45.9898 102.719-42.2021C102.719-38.2705 105.83-35.16 109.761-35.16Z"/>
  </g>
  <g id="Ultralight-L" transform="matrix(1 0 0 1 477.575 1556)">
   <path d="M46.4351 28.8232C47.3413 28.8232 48.0556 28.3321 48.6622 27.873L71.7431 8.31745L126.098 8.31745C139.428 8.31745 148.189-0.595238 148.189-13.7733L148.189-69.8332C148.189-83.0113 139.428-91.924 126.098-91.924L38.1748-91.924C24.8448-91.924 16.084-83.1811 16.084-69.8332L16.084-13.7733C16.084-0.425413 24.8448 8.31745 38.1748 8.31745L44.4978 8.31745L44.4978 26.6137C44.4978 28.0019 45.3595 28.8232 46.4351 28.8232ZM46.9482 26.0786L46.9482 7.05004C46.9482 6.16631 46.5196 5.73771 45.6358 5.73771L38.3446 5.73771C26.5008 5.73771 18.6637-2.15288 18.6637-13.9432L18.6637-69.6634C18.6637-81.5431 26.5008-89.3487 38.3446-89.3487L125.929-89.3487C137.433-89.3487 145.609-81.5431 145.609-69.6634L145.609-13.9432C145.609-2.15288 137.433 5.73771 125.929 5.73771L72.5433 5.73771C71.1456 5.73771 70.4088 6.04591 69.0241 7.16685ZM55.9727-35.3281C59.5867-35.3281 62.4903-38.2318 62.4903-41.9306C62.4903-45.4597 59.5867-48.3633 55.9727-48.3633C52.3588-48.3633 49.3702-45.4597 49.3702-41.9306C49.3702-38.2318 52.3588-35.3281 55.9727-35.3281ZM82.1388-35.3281C85.7528-35.3281 88.5715-38.2318 88.5715-41.9306C88.5715-45.4597 85.7528-48.3633 82.1388-48.3633C78.44-48.3633 75.6212-45.4597 75.6212-41.9306C75.6212-38.2318 78.44-35.3281 82.1388-35.3281ZM108.3-35.3281C111.83-35.3281 114.818-38.2318 114.818-41.9306C114.818-45.4597 111.83-48.3633 108.3-48.3633C104.602-48.3633 101.698-45.4597 101.698-41.9306C101.698-38.2318 104.602-35.3281 108.3-35.3281Z"/>
  </g>
  <g id="Black-M" transform="matrix(1 0 0 1 2862.26 1126)">
   <path d="M50.2803 22.6346C54.515 22.6346 58.1598 21.0258 63.3637 16.5338L79.4853 2.60929L104.317 2.60929C119.665 2.60929 129.821-7.56735 129.821-22.8944L129.821-62.8933C129.821-78.2203 119.665-88.397 104.317-88.397L37.9647-88.397C22.6162-88.397 12.4609-78.2198 12.4609-62.8933L12.4609-22.8944C12.4609-7.56792 23.7581 2.60929 36.2518 2.60929L40.1579 2.60929L40.1579 11.6316C40.1579 18.5138 44.0579 22.6346 50.2803 22.6346ZM54.3637 3.58898L54.3637-9.34163C54.3637-13.2612 52.2111-14.7287 48.9767-14.7287L39.4486-14.7287C33.1251-14.7287 29.7989-17.8647 29.7989-24.3784L29.7989-61.4093C29.7989-67.9172 33.1251-71.0535 39.4486-71.0535L102.833-71.0535C109.158-71.0535 112.483-67.9172 112.483-61.4093L112.483-24.3784C112.483-17.8647 109.158-14.7287 102.833-14.7287L77.9544-14.7287C73.9278-14.7287 72.3088-13.8349 69.2834-10.9118ZM48.7413-34.3899C53.4245-34.3899 57.188-38.2105 57.188-42.8934C57.188-47.5769 53.4245-51.3975 48.7413-51.3975C44.0009-51.3975 40.2378-47.5769 40.2378-42.8934C40.2378-38.2105 44.0009-34.3899 48.7413-34.3899ZM71.138-34.3899C75.8213-34.3899 79.6421-38.2105 79.6421-42.8934C79.6421-47.5769 75.8213-51.3975 71.138-51.3975C66.4551-51.3975 62.6343-47.5769 62.6343-42.8934C62.6343-38.2105 66.4551-34.3899 71.138-34.3899ZM93.5403-34.3899C98.2809-34.3899 102.044-38.2105 102.044-42.8934C102.044-47.5769 98.2809-51.3975 93.5403-51.3975C88.8574-51.3975 85.0939-47.5769 85.0939-42.8934C85.0939-38.2105 88.8574-34.3899 93.5403-34.3899Z"/>
  </g>
  <g id="Heavy-M" transform="matrix(1 0 0 1 2566.7 1126)">
   <path d="M48.4424 21.6286C52.2475 21.6286 55.4235 20.1011 60.0838 16.0508L76.3861 1.87606L102.754 1.87606C117.908 1.87606 127.516-7.80223 127.516-22.8862L127.516-62.2744C127.516-77.3583 117.908-87.0366 102.754-87.0366L37.2232-87.0366C22.069-87.0366 12.4609-77.3629 12.4609-62.2744L12.4609-22.8862C12.4609-7.79768 22.9415 1.87606 35.9145 1.87606L39.4422 1.87606L39.4422 11.7624C39.4422 17.913 42.8793 21.6286 48.4424 21.6286ZM52.0341 4.97253L52.0341-8.24222C52.0341-11.8676 50.1547-13.2235 47.0527-13.2235L38.3619-13.2235C31.1958-13.2235 27.5605-16.8015 27.5605-24.0249L27.5605-61.1357C27.5605-68.345 31.1958-71.9206 38.3619-71.9206L101.615-71.9206C108.772-71.9206 112.416-68.345 112.416-61.1357L112.416-24.0249C112.416-16.8015 108.772-13.2235 101.615-13.2235L75.1412-13.2235C71.4313-13.2235 69.8642-12.4453 67.117-9.75941ZM47.2377-34.4366C51.7241-34.4366 55.3389-38.095 55.3389-42.5837C55.3389-47.0679 51.7241-50.7262 47.2377-50.7262C42.7076-50.7262 39.0906-47.0679 39.0906-42.5837C39.0906-38.095 42.7076-34.4366 47.2377-34.4366ZM69.9803-34.4366C74.4668-34.4366 78.1228-38.095 78.1228-42.5837C78.1228-47.0679 74.4668-50.7262 69.9803-50.7262C65.4916-50.7262 61.8355-47.0679 61.8355-42.5837C61.8355-38.095 65.4916-34.4366 69.9803-34.4366ZM92.7394-34.4366C97.2671-34.4366 100.884-38.095 100.884-42.5837C100.884-47.0679 97.2671-50.7262 92.7394-50.7262C88.2506-50.7262 84.6359-47.0679 84.6359-42.5837C84.6359-38.095 88.2506-34.4366 92.7394-34.4366Z"/>
  </g>
  <g id="Bold-M" transform="matrix(1 0 0 1 2271.28 1126)">
   <path d="M46.3866 20.5031C49.7111 20.5031 52.3625 19.0666 56.4146 15.5105L72.9192 1.05583L101.005 1.05583C115.942 1.05583 124.938-8.06497 124.938-22.877L124.938-61.5821C124.938-76.3941 115.942-85.5149 101.005-85.5149L36.3937-85.5149C21.457-85.5149 12.4609-76.4044 12.4609-61.5821L12.4609-22.877C12.4609-8.0547 22.0279 1.05583 35.5373 1.05583L38.6417 1.05583L38.6417 11.9087C38.6417 17.2409 41.5607 20.5031 46.3866 20.5031ZM49.428 6.52023L49.428-7.01238C49.428-10.3087 47.8542-11.5399 44.9005-11.5399L37.1463-11.5399C29.0376-11.5399 25.0566-15.6121 25.0566-23.6295L25.0566-60.8296C25.0566-68.8235 29.0376-72.8906 37.1463-72.8906L100.253-72.8906C108.341-72.8906 112.342-68.8235 112.342-60.8296L112.342-23.6295C112.342-15.6121 108.341-11.5399 100.253-11.5399L71.9942-11.5399C68.6386-11.5399 67.1294-10.8908 64.6937-8.47027ZM45.5557-34.4889C49.822-34.4889 53.2704-37.9658 53.2704-42.2372C53.2704-46.4984 49.822-49.9753 45.5557-49.9753C41.2609-49.9753 37.8074-46.4984 37.8074-42.2372C37.8074-37.9658 41.2609-34.4889 45.5557-34.4889ZM68.6852-34.4889C72.9515-34.4889 76.4233-37.9658 76.4233-42.2372C76.4233-46.4984 72.9515-49.9753 68.6852-49.9753C64.4138-49.9753 60.942-46.4984 60.942-42.2372C60.942-37.9658 64.4138-34.4889 68.6852-34.4889ZM91.8434-34.4889C96.1331-34.4889 99.5866-37.9658 99.5866-42.2372C99.5866-46.4984 96.1331-49.9753 91.8434-49.9753C87.5719-49.9753 84.1235-46.4984 84.1235-42.2372C84.1235-37.9658 87.5719-34.4889 91.8434-34.4889Z"/>
  </g>
  <g id="Semibold-M" transform="matrix(1 0 0 1 1975.46 1126)">
   <path d="M44.9693 19.7273C47.9625 19.7273 50.2523 18.3535 53.8852 15.138L70.5291 0.49037L99.7999 0.49037C114.587 0.49037 123.161-8.2461 123.161-22.8706L123.161-61.1048C123.161-75.7294 114.587-84.4658 99.7999-84.4658L35.8219-84.4658C21.035-84.4658 12.4609-75.7436 12.4609-61.1048L12.4609-22.8706C12.4609-8.23189 21.3982 0.49037 35.2772 0.49037L38.0898 0.49037L38.0898 12.0096C38.0898 16.7775 40.6518 19.7273 44.9693 19.7273ZM47.6313 7.58721L47.6313-6.16454C47.6313-9.23401 46.2683-10.3792 43.4167-10.3792L36.3082-10.3792C27.5497-10.3792 23.3305-14.7922 23.3305-23.3569L23.3305-60.6185C23.3305-69.1533 27.5497-73.5593 36.3082-73.5593L99.3136-73.5593C108.044-73.5593 112.291-69.1533 112.291-60.6185L112.291-23.3569C112.291-14.7922 108.044-10.3792 99.3136-10.3792L69.8247-10.3792C66.7133-10.3792 65.2441-9.81909 63.023-7.58155ZM44.3962-34.5249C48.5107-34.5249 51.8444-37.8768 51.8444-41.9984C51.8444-46.1058 48.5107-49.4577 44.3962-49.4577C40.2635-49.4577 36.9227-46.1058 36.9227-41.9984C36.9227-37.8768 40.2635-34.5249 44.3962-34.5249ZM67.7924-34.5249C71.9069-34.5249 75.2517-37.8768 75.2517-41.9984C75.2517-46.1058 71.9069-49.4577 67.7924-49.4577C63.6708-49.4577 60.326-46.1058 60.326-41.9984C60.326-37.8768 63.6708-34.5249 67.7924-34.5249ZM91.2257-34.5249C95.3512-34.5249 98.6921-37.8768 98.6921-41.9984C98.6921-46.1058 95.3512-49.4577 91.2257-49.4577C87.104-49.4577 83.7703-46.1058 83.7703-41.9984C83.7703-37.8768 87.104-34.5249 91.2257-34.5249Z"/>
  </g>
  <g id="Medium-M" transform="matrix(1 0 0 1 1679.42 1126)">
   <path d="M43.8946 19.139C46.6366 19.139 48.6523 17.8128 51.9672 14.8555L68.7169 0.0616135L98.8859 0.0616135C113.559 0.0616135 121.813-8.38344 121.813-22.8658L121.813-60.743C121.813-75.2253 113.559-83.6704 98.8859-83.6704L35.3884-83.6704C20.7151-83.6704 12.4609-75.2425 12.4609-60.743L12.4609-22.8658C12.4609-8.36624 20.9206 0.0616135 35.0801 0.0616135L37.6714 0.0616135L37.6714 12.0861C37.6714 16.4262 39.9626 19.139 43.8946 19.139ZM46.269 8.39623L46.269-5.52166C46.269-8.41912 45.0658-9.49906 42.2917-9.49906L35.6728-9.49906C26.4216-9.49906 22.0216-14.1705 22.0216-23.1502L22.0216-60.4585C22.0216-69.4035 26.4216-74.0663 35.6728-74.0663L98.6015-74.0663C107.818-74.0663 112.253-69.4035 112.253-60.4585L112.253-23.1502C112.253-14.1705 107.818-9.49906 98.6015-9.49906L68.1797-9.49906C65.2535-9.49906 63.8146-9.00651 61.7563-6.90768ZM43.517-34.5522C47.5164-34.5522 50.7632-37.8092 50.7632-41.8173C50.7632-45.8081 47.5164-49.0652 43.517-49.0652C39.5073-49.0652 36.2519-45.8081 36.2519-41.8173C36.2519-37.8092 39.5073-34.5522 43.517-34.5522ZM67.1154-34.5522C71.1149-34.5522 74.3633-37.8092 74.3633-41.8173C74.3633-45.8081 71.1149-49.0652 67.1154-49.0652C63.1074-49.0652 59.859-45.8081 59.859-41.8173C59.859-37.8092 63.1074-34.5522 67.1154-34.5522ZM90.7573-34.5522C94.7584-34.5522 98.0138-37.8092 98.0138-41.8173C98.0138-45.8081 94.7584-49.0652 90.7573-49.0652C86.7493-49.0652 83.5025-45.8081 83.5025-41.8173C83.5025-37.8092 86.7493-34.5522 90.7573-34.5522Z"/>
  </g>
  <g id="Regular-M" transform="matrix(1 0 0 1 1383.59 1126)">
   <path d="M42.4929 18.3717C44.9072 18.3717 46.5653 17.1075 49.4655 14.4871L66.3531-0.497634L97.6938-0.497634C112.219-0.497634 120.056-8.56259 120.056-22.8595L120.056-60.2709C120.056-74.5679 112.219-82.6328 97.6938-82.6328L34.8228-82.6328C20.2978-82.6328 12.4609-74.589 12.4609-60.2709L12.4609-22.8595C12.4609-8.54148 20.2978-0.497634 34.8228-0.497634L37.1256-0.497634L37.1256 12.1859C37.1256 15.9679 39.0636 18.3717 42.4929 18.3717ZM44.4922 9.45148L44.4922-4.68313C44.4922-7.35623 43.4973-8.3511 40.8242-8.3511L34.8439-8.3511C24.9501-8.3511 20.3144-13.3596 20.3144-22.8806L20.3144-60.2498C20.3144-69.7297 24.9501-74.7276 34.8439-74.7276L97.6726-74.7276C107.524-74.7276 112.202-69.7297 112.202-60.2498L112.202-22.8806C112.202-13.3596 107.524-8.3511 97.6726-8.3511L66.034-8.3511C63.3494-8.3511 61.95-7.94662 60.104-6.02873ZM42.3702-34.5878C46.2195-34.5878 49.3529-37.7212 49.3529-41.5811C49.3529-45.4198 46.2195-48.5532 42.3702-48.5532C38.5209-48.5532 35.377-45.4198 35.377-41.5811C35.377-37.7212 38.5209-34.5878 42.3702-34.5878ZM66.2324-34.5878C70.0818-34.5878 73.2045-37.7212 73.2045-41.5811C73.2045-45.4198 70.0818-48.5532 66.2324-48.5532C62.3725-48.5532 59.2498-45.4198 59.2498-41.5811C59.2498-37.7212 62.3725-34.5878 66.2324-34.5878ZM90.1464-34.5878C93.9852-34.5878 97.1291-37.7212 97.1291-41.5811C97.1291-45.4198 93.9852-48.5532 90.1464-48.5532C86.2865-48.5532 83.1532-45.4198 83.1532-41.5811C83.1532-37.7212 86.2865-34.5878 90.1464-34.5878Z"/>
  </g>
  <g id="Light-M" transform="matrix(1 0 0 1 1087.69 1126)">
   <path d="M40.4738 17.1397C42.3577 17.1397 43.6736 16.1493 45.8209 14.2305L63.0165-0.80563L97.6938-0.80563C110.918-0.80563 118.43-8.51125 118.43-21.542L118.43-60.8185C118.43-73.8492 110.918-81.5549 97.6938-81.5549L33.1973-81.5549C19.9727-81.5549 12.4609-73.9046 12.4609-60.8185L12.4609-21.542C12.4609-8.45593 19.9727-0.80563 33.1973-0.80563L36.3043-0.80563L36.3043 12.3399C36.3043 15.2835 37.8487 17.1397 40.4738 17.1397ZM41.9769 10.3241L41.9769-3.9987C41.9769-6.0558 41.1873-6.84534 39.1302-6.84534L33.2526-6.84534C23.5812-6.84534 18.5006-12.196 18.5006-21.5973L18.5006-60.7632C18.5006-70.1575 23.5812-75.4805 33.2526-75.4805L97.6384-75.4805C107.199-75.4805 112.39-70.1575 112.39-60.7632L112.39-21.5973C112.39-12.196 107.199-6.84534 97.6384-6.84534L62.9883-6.84534C60.7998-6.84534 59.6572-6.49219 58.0507-4.89941ZM42.6782-34.8103C46.2024-34.8103 49.062-37.6698 49.062-41.2217C49.062-44.7183 46.2024-47.5779 42.6782-47.5779C39.154-47.5779 36.2667-44.7183 36.2667-41.2217C36.2667-37.6698 39.154-34.8103 42.6782-34.8103ZM65.4282-34.8103C68.9524-34.8103 71.7843-37.6698 71.7843-41.2217C71.7843-44.7183 68.9524-47.5779 65.4282-47.5779C61.8763-47.5779 59.0444-44.7183 59.0444-41.2217C59.0444-37.6698 61.8763-34.8103 65.4282-34.8103ZM88.2129-34.8103C91.7094-34.8103 94.5967-37.6698 94.5967-41.2217C94.5967-44.7183 91.7094-47.5779 88.2129-47.5779C84.661-47.5779 81.8014-44.7183 81.8014-41.2217C81.8014-37.6698 84.661-34.8103 88.2129-34.8103Z"/>
  </g>
  <g id="Thin-M" transform="matrix(1 0 0 1 792.052 1126)">
   <path d="M37.8034 15.5103C38.9857 15.5103 39.849 14.882 41.0006 13.891L58.6035-1.21298L97.6938-1.21298C109.198-1.21298 116.28-8.44336 116.28-19.7994L116.28-61.5427C116.28-72.8987 109.198-80.1291 97.6938-80.1291L31.0474-80.1291C19.5427-80.1291 12.4609-72.9993 12.4609-61.5427L12.4609-19.7994C12.4609-8.34278 19.5427-1.21298 31.0474-1.21298L35.218-1.21298L35.218 12.5436C35.218 14.3782 36.2419 15.5103 37.8034 15.5103ZM38.6502 11.4783L38.6502-3.09347C38.6502-4.33587 38.1322-4.85384 36.8898-4.85384L31.148-4.85384C21.7707-4.85384 16.1018-10.6572 16.1018-19.9L16.1018-61.4421C16.1018-70.7232 21.7707-76.4763 31.148-76.4763L97.5932-76.4763C106.769-76.4763 112.639-70.7232 112.639-61.4421L112.639-19.9C112.639-10.6572 106.769-4.85384 97.5932-4.85384L58.96-4.85384C57.4279-4.85384 56.6247-4.56859 55.335-3.40579ZM43.0855-35.1045C46.1798-35.1045 48.6773-37.602 48.6773-40.7465C48.6773-43.7904 46.1798-46.2879 43.0855-46.2879C39.9913-46.2879 37.4435-43.7904 37.4435-40.7465C37.4435-37.602 39.9913-35.1045 43.0855-35.1045ZM64.3646-35.1045C67.4588-35.1045 69.906-37.602 69.906-40.7465C69.906-43.7904 67.4588-46.2879 64.3646-46.2879C61.22-46.2879 58.7729-43.7904 58.7729-40.7465C58.7729-37.602 61.22-35.1045 64.3646-35.1045ZM85.6556-35.1045C88.6996-35.1045 91.2473-37.602 91.2473-40.7465C91.2473-43.7904 88.6996-46.2879 85.6556-46.2879C82.5111-46.2879 80.0136-43.7904 80.0136-40.7465C80.0136-37.602 82.5111-35.1045 85.6556-35.1045Z"/>
  </g>
  <g id="Ultralight-M" transform="matrix(1 0 0 1 495.891 1126)">
   <path d="M36.4356 14.6757C37.2586 14.6757 37.8901 14.2328 38.5316 13.7172L56.3432-1.42162L97.6938-1.42162C108.318-1.42162 115.179-8.40859 115.179-18.9069L115.179-61.9136C115.179-72.4119 108.318-79.3989 97.6938-79.3989L29.9462-79.3989C19.3224-79.3989 12.4609-72.5357 12.4609-61.9136L12.4609-18.9069C12.4609-8.28482 19.3224-1.42162 29.9462-1.42162L34.6616-1.42162L34.6616 12.6479C34.6616 13.9146 35.4189 14.6757 36.4356 14.6757ZM36.9462 12.0695L36.9462-2.62982C36.9462-3.45493 36.5674-3.83381 35.7422-3.83381L30.07-3.83381C20.8434-3.83381 14.8731-9.86895 14.8731-19.0307L14.8731-61.7898C14.8731-71.013 20.8434-76.9863 30.07-76.9863L97.57-76.9863C106.549-76.9863 112.767-71.013 112.767-61.7898L112.767-19.0307C112.767-9.86895 106.549-3.83381 97.57-3.83381L56.8968-3.83381C55.7008-3.83381 55.0714-3.58333 53.9441-2.64076ZM43.2942-35.2552C46.1682-35.2552 48.4802-37.5672 48.4802-40.5031C48.4802-43.3152 46.1682-45.6272 43.2942-45.6272C40.4202-45.6272 38.0463-43.3152 38.0463-40.5031C38.0463-37.5672 40.4202-35.2552 43.2942-35.2552ZM63.8198-35.2552C66.6938-35.2552 68.9439-37.5672 68.9439-40.5031C68.9439-43.3152 66.6938-45.6272 63.8198-45.6272C60.8839-45.6272 58.6338-43.3152 58.6338-40.5031C58.6338-37.5672 60.8839-35.2552 63.8198-35.2552ZM84.3458-35.2552C87.1579-35.2552 89.5318-37.5672 89.5318-40.5031C89.5318-43.3152 87.1579-45.6272 84.3458-45.6272C81.4099-45.6272 79.0979-43.3152 79.0979-40.5031C79.0979-37.5672 81.4099-35.2552 84.3458-35.2552Z"/>
  </g>
  <g id="Black-S" transform="matrix(1 0 0 1 2877.35 696)">
   <path d="M39.8438 10.3516C43.2617 10.3516 46.2402 9.08203 50.4395 5.46875L63.0371-5.37109L82.2266-5.37109C94.2383-5.37109 102.344-13.4766 102.344-25.4883L102.344-57.1289C102.344-69.1406 94.2383-77.2461 82.2266-77.2461L29.8828-77.2461C17.8711-77.2461 9.76562-69.1406 9.76562-57.1289L9.76562-25.4883C9.76562-13.4766 18.8477-5.37109 28.418-5.37109L31.6406-5.37109L31.6406 1.46484C31.6406 7.03125 34.8145 10.3516 39.8438 10.3516ZM43.1641-5.17578L43.1641-15.2344C43.1641-18.3594 41.4062-19.5312 38.8672-19.5312L31.1523-19.5312C26.4648-19.5312 23.9258-21.875 23.9258-26.7578L23.9258-55.8594C23.9258-60.7422 26.4648-63.0859 31.1523-63.0859L80.957-63.0859C85.6445-63.0859 88.1836-60.7422 88.1836-55.8594L88.1836-26.7578C88.1836-21.875 85.6445-19.5312 80.957-19.5312L61.7676-19.5312C58.5449-19.5312 57.2754-18.7988 54.834-16.4551ZM38.6719-34.5703C42.3828-34.5703 45.3613-37.5977 45.3613-41.3086C45.3613-45.0195 42.3828-48.0469 38.6719-48.0469C34.9121-48.0469 31.9336-45.0195 31.9336-41.3086C31.9336-37.5977 34.9121-34.5703 38.6719-34.5703ZM56.0547-34.5703C59.7656-34.5703 62.793-37.5977 62.793-41.3086C62.793-45.0195 59.7656-48.0469 56.0547-48.0469C52.3438-48.0469 49.3164-45.0195 49.3164-41.3086C49.3164-37.5977 52.3438-34.5703 56.0547-34.5703ZM73.4375-34.5703C77.1973-34.5703 80.1758-37.5977 80.1758-41.3086C80.1758-45.0195 77.1973-48.0469 73.4375-48.0469C69.7266-48.0469 66.748-45.0195 66.748-41.3086C66.748-37.5977 69.7266-34.5703 73.4375-34.5703Z"/>
  </g>
  <g id="Heavy-S" transform="matrix(1 0 0 1 2581.52 696)">
   <path d="M38.53 9.64857C41.6483 9.64857 44.2696 8.41361 48.1 5.08844L60.8129-5.95884L80.8897-5.95884C92.9014-5.95884 100.581-13.684 100.581-25.6496L100.581-56.5296C100.581-68.4953 92.9014-76.2204 80.8897-76.2204L29.4564-76.2204C17.4447-76.2204 9.76562-68.4953 9.76562-56.5296L9.76562-25.6496C9.76562-13.684 18.1908-5.95884 28.3373-5.95884L31.1335-5.95884L31.1335 1.55704C31.1335 6.60484 33.9616 9.64857 38.53 9.64857ZM41.493-4.10401L41.493-14.3816C41.493-17.3337 39.9426-18.4364 37.4382-18.4364L30.4263-18.4364C24.9897-18.4364 22.2432-21.1144 22.2432-26.6195L22.2432-55.5597C22.2432-61.0533 24.9897-63.7313 30.4263-63.7313L79.9198-63.7313C85.3564-63.7313 88.1029-61.0533 88.1029-55.5597L88.1029-26.6195C88.1029-21.1144 85.3564-18.4364 79.9198-18.4364L59.7508-18.4364C56.7356-18.4364 55.4776-17.7962 53.2436-15.6138ZM37.3466-34.5818C40.9307-34.5818 43.817-37.5055 43.817-41.0896C43.817-44.6738 40.9307-47.5974 37.3466-47.5974C33.7251-47.5974 30.8388-44.6738 30.8388-41.0896C30.8388-37.5055 33.7251-34.5818 37.3466-34.5818ZM55.1673-34.5818C58.7515-34.5818 61.6751-37.5055 61.6751-41.0896C61.6751-44.6738 58.7515-47.5974 55.1673-47.5974C51.5831-47.5974 48.6595-44.6738 48.6595-41.0896C48.6595-37.5055 51.5831-34.5818 55.1673-34.5818ZM72.9996-34.5818C76.621-34.5818 79.5074-37.5055 79.5074-41.0896C79.5074-44.6738 76.621-47.5974 72.9996-47.5974C69.4154-47.5974 66.5291-44.6738 66.5291-41.0896C66.5291-37.5055 69.4154-34.5818 72.9996-34.5818Z"/>
  </g>
  <g id="Bold-S" transform="matrix(1 0 0 1 2285.79 696)">
   <path d="M37.0605 8.8623C39.8438 8.8623 42.0654 7.66602 45.4834 4.66309L58.3252-6.61621L79.3945-6.61621C91.4062-6.61621 98.6084-13.916 98.6084-25.8301L98.6084-55.8594C98.6084-67.7734 91.4062-75.0732 79.3945-75.0732L28.9795-75.0732C16.9678-75.0732 9.76562-67.7734 9.76562-55.8594L9.76562-25.8301C9.76562-13.916 17.4561-6.61621 28.2471-6.61621L30.5664-6.61621L30.5664 1.66016C30.5664 6.12793 33.0078 8.8623 37.0605 8.8623ZM39.624-2.90527L39.624-13.4277C39.624-16.1865 38.3057-17.2119 35.8398-17.2119L29.6143-17.2119C23.3398-17.2119 20.3613-20.2637 20.3613-26.4648L20.3613-55.2246C20.3613-61.4014 23.3398-64.4531 29.6143-64.4531L78.7598-64.4531C85.0342-64.4531 88.0127-61.4014 88.0127-55.2246L88.0127-26.4648C88.0127-20.2637 85.0342-17.2119 78.7598-17.2119L57.4951-17.2119C54.7119-17.2119 53.4668-16.6748 51.4648-14.6729ZM35.8643-34.5947C39.3066-34.5947 42.0898-37.4023 42.0898-40.8447C42.0898-44.2871 39.3066-47.0947 35.8643-47.0947C32.3975-47.0947 29.6143-44.2871 29.6143-40.8447C29.6143-37.4023 32.3975-34.5947 35.8643-34.5947ZM54.1748-34.5947C57.6172-34.5947 60.4248-37.4023 60.4248-40.8447C60.4248-44.2871 57.6172-47.0947 54.1748-47.0947C50.7324-47.0947 47.9248-44.2871 47.9248-40.8447C47.9248-37.4023 50.7324-34.5947 54.1748-34.5947ZM72.5098-34.5947C75.9766-34.5947 78.7598-37.4023 78.7598-40.8447C78.7598-44.2871 75.9766-47.0947 72.5098-47.0947C69.0674-47.0947 66.2842-44.2871 66.2842-40.8447C66.2842-37.4023 69.0674-34.5947 72.5098-34.5947Z"/>
  </g>
  <g id="Semibold-S" transform="matrix(1 0 0 1 1989.76 696)">
   <path d="M36.0475 8.32021C38.5996 8.32021 40.5458 7.15059 43.6794 4.36982L56.6101-7.06943L78.3637-7.06943C90.3754-7.06943 97.2487-14.076 97.2487-25.9545L97.2487-55.3973C97.2487-67.2758 90.3754-74.2823 78.3637-74.2823L28.6507-74.2823C16.639-74.2823 9.76562-67.2758 9.76562-55.3973L9.76562-25.9545C9.76562-14.076 16.9495-7.06943 28.1849-7.06943L30.1754-7.06943L30.1754 1.73125C30.1754 5.79912 32.3502 8.32021 36.0475 8.32021ZM38.3354-2.07881L38.3354-12.7701C38.3354-15.3956 37.1771-16.3677 34.7379-16.3677L29.0544-16.3677C22.2023-16.3677 19.0639-19.6771 19.0639-26.3582L19.0639-54.9936C19.0639-61.6413 22.2023-64.9508 29.0544-64.9508L77.96-64.9508C84.812-64.9508 87.9505-61.6413 87.9505-54.9936L87.9505-26.3582C87.9505-19.6771 84.812-16.3677 77.96-16.3677L55.9399-16.3677C53.3167-16.3677 52.0805-15.9017 50.2385-14.0241ZM34.8423-34.6036C38.1869-34.6036 40.899-37.3312 40.899-40.6759C40.899-44.0205 38.1869-46.7481 34.8423-46.7481C31.4821-46.7481 28.77-44.0205 28.77-40.6759C28.77-37.3312 31.4821-34.6036 34.8423-34.6036ZM53.4905-34.6036C56.8352-34.6036 59.5628-37.3312 59.5628-40.6759C59.5628-44.0205 56.8352-46.7481 53.4905-46.7481C50.1459-46.7481 47.4183-44.0205 47.4183-40.6759C47.4183-37.3312 50.1459-34.6036 53.4905-34.6036ZM72.1721-34.6036C75.5322-34.6036 78.2443-37.3312 78.2443-40.6759C78.2443-44.0205 75.5322-46.7481 72.1721-46.7481C68.8274-46.7481 66.1153-44.0205 66.1153-40.6759C66.1153-37.3312 68.8274-34.6036 72.1721-34.6036Z"/>
  </g>
  <g id="Medium-S" transform="matrix(1 0 0 1 1693.56 696)">
   <path d="M35.2793 7.90918C37.6562 7.90918 39.3936 6.75977 42.3115 4.14746L55.3096-7.41309L77.582-7.41309C89.5938-7.41309 96.2178-14.1973 96.2178-26.0488L96.2178-55.0469C96.2178-66.8984 89.5938-73.6826 77.582-73.6826L28.4014-73.6826C16.3896-73.6826 9.76562-66.8984 9.76562-55.0469L9.76562-26.0488C9.76562-14.1973 16.5654-7.41309 28.1377-7.41309L29.8789-7.41309L29.8789 1.78516C29.8789 5.5498 31.8516 7.90918 35.2793 7.90918ZM37.3584-1.45215L37.3584-12.2715C37.3584-14.7959 36.3213-15.7275 33.9023-15.7275L28.6299-15.7275C21.3398-15.7275 18.0801-19.2324 18.0801-26.2773L18.0801-54.8184C18.0801-61.8232 21.3398-65.3281 28.6299-65.3281L77.3535-65.3281C84.6436-65.3281 87.9033-61.8232 87.9033-54.8184L87.9033-26.2773C87.9033-19.2324 84.6436-15.7275 77.3535-15.7275L54.7607-15.7275C52.2588-15.7275 51.0293-15.3154 49.3086-13.5322ZM34.0674-34.6104C37.3379-34.6104 39.9961-37.2773 39.9961-40.5479C39.9961-43.8184 37.3379-46.4854 34.0674-46.4854C30.7881-46.4854 28.1299-43.8184 28.1299-40.5479C28.1299-37.2773 30.7881-34.6104 34.0674-34.6104ZM52.9717-34.6104C56.2422-34.6104 58.9092-37.2773 58.9092-40.5479C58.9092-43.8184 56.2422-46.4854 52.9717-46.4854C49.7012-46.4854 47.0342-43.8184 47.0342-40.5479C47.0342-37.2773 49.7012-34.6104 52.9717-34.6104ZM71.916-34.6104C75.1953-34.6104 77.8535-37.2773 77.8535-40.5479C77.8535-43.8184 75.1953-46.4854 71.916-46.4854C68.6455-46.4854 65.9873-43.8184 65.9873-40.5479C65.9873-37.2773 68.6455-34.6104 71.916-34.6104Z"/>
  </g>
  <g id="Regular-S" transform="matrix(1 0 0 1 1397.53 696)">
   <path d="M34.2773 7.37305C36.4258 7.37305 37.8906 6.25 40.5273 3.85742L53.6133-7.86133L76.5625-7.86133C88.5742-7.86133 94.873-14.3555 94.873-26.1719L94.873-54.5898C94.873-66.4062 88.5742-72.9004 76.5625-72.9004L28.0762-72.9004C16.0645-72.9004 9.76562-66.4062 9.76562-54.5898L9.76562-26.1719C9.76562-14.3555 16.0645-7.86133 28.0762-7.86133L29.4922-7.86133L29.4922 1.85547C29.4922 5.22461 31.2012 7.37305 34.2773 7.37305ZM36.084-0.634766L36.084-11.6211C36.084-14.0137 35.2051-14.8926 32.8125-14.8926L28.0762-14.8926C20.2148-14.8926 16.7969-18.6523 16.7969-26.1719L16.7969-54.5898C16.7969-62.0605 20.2148-65.8203 28.0762-65.8203L76.5625-65.8203C84.4238-65.8203 87.8418-62.0605 87.8418-54.5898L87.8418-26.1719C87.8418-18.6523 84.4238-14.8926 76.5625-14.8926L53.2227-14.8926C50.8789-14.8926 49.6582-14.5508 48.0957-12.8906ZM33.0566-34.6191C36.2305-34.6191 38.8184-37.207 38.8184-40.3809C38.8184-43.5547 36.2305-46.1426 33.0566-46.1426C29.8828-46.1426 27.2949-43.5547 27.2949-40.3809C27.2949-37.207 29.8828-34.6191 33.0566-34.6191ZM52.2949-34.6191C55.4688-34.6191 58.0566-37.207 58.0566-40.3809C58.0566-43.5547 55.4688-46.1426 52.2949-46.1426C49.1211-46.1426 46.5332-43.5547 46.5332-40.3809C46.5332-37.207 49.1211-34.6191 52.2949-34.6191ZM71.582-34.6191C74.7559-34.6191 77.3438-37.207 77.3438-40.3809C77.3438-43.5547 74.7559-46.1426 71.582-46.1426C68.4082-46.1426 65.8203-43.5547 65.8203-40.3809C65.8203-37.207 68.4082-34.6191 71.582-34.6191Z"/>
  </g>
  <g id="Light-S" transform="matrix(1 0 0 1 1101.53 696)">
   <path d="M32.4912 6.28321C34.1704 6.28321 35.3325 5.40235 37.3032 3.63037L50.6616-8.13379L76.5625-8.13379C87.4238-8.13379 93.4351-14.3101 93.4351-25.0064L93.4351-55.0742C93.4351-65.7705 87.4238-71.9468 76.5625-71.9468L26.6382-71.9468C15.7769-71.9468 9.76562-65.8008 9.76562-55.0742L9.76562-25.0064C9.76562-14.2798 15.7769-8.13379 26.6382-8.13379L28.7656-8.13379L28.7656 1.9917C28.7656 4.61915 30.1265 6.28321 32.4912 6.28321ZM33.8589 0.137201L33.8589-11.0156C33.8589-12.8633 33.1616-13.5606 31.314-13.5606L26.6685-13.5606C19.0039-13.5606 15.1924-17.6231 15.1924-25.0366L15.1924-55.0439C15.1924-62.439 19.0039-66.4863 26.6685-66.4863L76.5322-66.4863C84.1362-66.4863 88.0083-62.439 88.0083-55.0439L88.0083-25.0366C88.0083-17.6231 84.1362-13.5606 76.5322-13.5606L50.5283-13.5606C48.6236-13.5606 47.6299-13.2642 46.2793-11.8916ZM33.3291-34.8159C36.2153-34.8159 38.561-37.1616 38.561-40.063C38.561-42.9341 36.2153-45.2798 33.3291-45.2798C30.4429-45.2798 28.082-42.9341 28.082-40.063C28.082-37.1616 30.4429-34.8159 33.3291-34.8159ZM51.5835-34.8159C54.4697-34.8159 56.8003-37.1616 56.8003-40.063C56.8003-42.9341 54.4697-45.2798 51.5835-45.2798C48.6821-45.2798 46.3516-42.9341 46.3516-40.063C46.3516-37.1616 48.6821-34.8159 51.5835-34.8159ZM69.8716-34.8159C72.7427-34.8159 75.1035-37.1616 75.1035-40.063C75.1035-42.9341 72.7427-45.2798 69.8716-45.2798C66.9702-45.2798 64.6245-42.9341 64.6245-40.063C64.6245-37.1616 66.9702-34.8159 69.8716-34.8159Z"/>
  </g>
  <g id="Thin-S" transform="matrix(1 0 0 1 805.773 696)">
   <path d="M30.1289 4.84182C31.1875 4.84182 31.9493 4.28127 33.0391 3.33008L46.7579-8.49414L76.5625-8.49414C85.9024-8.49414 91.5332-14.25 91.5332-23.4649L91.5332-55.7148C91.5332-64.9297 85.9024-70.6856 76.5625-70.6856L24.7364-70.6856C15.3965-70.6856 9.76562-65 9.76562-55.7148L9.76562-23.4649C9.76562-14.1797 15.3965-8.49414 24.7364-8.49414L27.8047-8.49414L27.8047 2.17187C27.8047 3.81837 28.7051 4.84182 30.1289 4.84182ZM30.9161 1.15819L30.9161-10.2149C30.9161-11.3418 30.459-11.7989 29.3321-11.7989L24.8067-11.7989C17.4024-11.7989 13.0703-16.2617 13.0703-23.5352L13.0703-55.6445C13.0703-62.9394 17.4024-67.3672 24.8067-67.3672L76.4922-67.3672C83.7559-67.3672 88.2285-62.9394 88.2285-55.6445L88.2285-23.5352C88.2285-16.2617 83.7559-11.7989 76.4922-11.7989L46.9649-11.7989C45.6407-11.7989 44.9473-11.5625 43.877-10.5703ZM33.6894-35.0762C36.1953-35.0762 38.2207-37.1016 38.2207-39.6426C38.2207-42.1133 36.1953-44.1387 33.6894-44.1387C31.1836-44.1387 29.123-42.1133 29.123-39.6426C29.123-37.1016 31.1836-35.0762 33.6894-35.0762ZM50.6426-35.0762C53.1485-35.0762 55.1387-37.1016 55.1387-39.6426C55.1387-42.1133 53.1485-44.1387 50.6426-44.1387C48.1016-44.1387 46.1113-42.1133 46.1113-39.6426C46.1113-37.1016 48.1016-35.0762 50.6426-35.0762ZM67.6094-35.0762C70.0801-35.0762 72.1407-37.1016 72.1407-39.6426C72.1407-42.1133 70.0801-44.1387 67.6094-44.1387C65.0684-44.1387 63.043-42.1133 63.043-39.6426C63.043-37.1016 65.0684-35.0762 67.6094-35.0762Z"/>
  </g>
  <g id="Ultralight-S" transform="matrix(1 0 0 1 509.549 696)">
   <path d="M28.919 4.10354C29.6597 4.10354 30.2164 3.70705 30.8551 3.17627L44.7584-8.6787L76.5625-8.6787C85.1231-8.6787 90.5591-14.2192 90.5591-22.6753L90.5591-56.043C90.5591-64.499 85.1231-70.0396 76.5625-70.0396L23.7622-70.0396C15.2017-70.0396 9.76562-64.5899 9.76562-56.043L9.76562-22.6753C9.76562-14.1284 15.2017-8.6787 23.7622-8.6787L27.3125-8.6787L27.3125 2.26416C27.3125 3.40822 27.9771 4.10354 28.919 4.10354ZM29.4087 1.68113L29.4087-9.8047C29.4087-10.5625 29.0748-10.8965 28.3169-10.8965L23.8531-10.8965C16.5821-10.8965 11.9834-15.5645 11.9834-22.7661L11.9834-55.9521C11.9834-63.1958 16.5821-67.8183 23.8531-67.8183L76.4717-67.8183C83.561-67.8183 88.3413-63.1958 88.3413-55.9521L88.3413-22.7661C88.3413-15.5645 83.561-10.8965 76.4717-10.8965L45.1397-10.8965C44.1128-10.8965 43.5733-10.6909 42.6465-9.89358ZM33.874-35.2095C36.1851-35.2095 38.0464-37.0708 38.0464-39.4273C38.0464-41.6929 36.1851-43.5542 33.874-43.5542C31.563-43.5542 29.6562-41.6929 29.6562-39.4273C29.6562-37.0708 31.563-35.2095 33.874-35.2095ZM50.1607-35.2095C52.4717-35.2095 54.2876-37.0708 54.2876-39.4273C54.2876-41.6929 52.4717-43.5542 50.1607-43.5542C47.8042-43.5542 45.9883-41.6929 45.9883-39.4273C45.9883-37.0708 47.8042-35.2095 50.1607-35.2095ZM66.4507-35.2095C68.7164-35.2095 70.6231-37.0708 70.6231-39.4273C70.6231-41.6929 68.7164-43.5542 66.4507-43.5542C64.0943-43.5542 62.2329-41.6929 62.2329-39.4273C62.2329-37.0708 64.0943-35.2095 66.4507-35.2095Z"/>
  </g>
 </g>
</svg>
