<?xml version="1.0" encoding="UTF-8"?>
<!--Generator: Apple Native CoreSVG 232.5-->
<!DOCTYPE svg
PUBLIC "-//W3C//DTD SVG 1.1//EN"
       "http://www.w3.org/Graphics/SVG/1.1/DTD/svg11.dtd">
<svg version="1.1" xmlns="http://www.w3.org/2000/svg" xmlns:xlink="http://www.w3.org/1999/xlink" width="3300" height="2200">
 <g id="Notes">
  <rect height="2200" id="artboard" style="fill:white;opacity:1" width="3300" x="0" y="0"/>
  <line style="fill:none;stroke:black;opacity:1;stroke-width:0.5;" x1="263" x2="3036" y1="292" y2="292"/>
  <text style="stroke:none;fill:black;font-family:sans-serif;font-size:13;font-weight:bold;" transform="matrix(1 0 0 1 263 322)">Weight/Scale Variations</text>
  <text style="stroke:none;fill:black;font-family:sans-serif;font-size:13;text-anchor:middle;" transform="matrix(1 0 0 1 559.711 322)">Ultralight</text>
  <text style="stroke:none;fill:black;font-family:sans-serif;font-size:13;text-anchor:middle;" transform="matrix(1 0 0 1 856.422 322)">Thin</text>
  <text style="stroke:none;fill:black;font-family:sans-serif;font-size:13;text-anchor:middle;" transform="matrix(1 0 0 1 1153.13 322)">Light</text>
  <text style="stroke:none;fill:black;font-family:sans-serif;font-size:13;text-anchor:middle;" transform="matrix(1 0 0 1 1449.84 322)">Regular</text>
  <text style="stroke:none;fill:black;font-family:sans-serif;font-size:13;text-anchor:middle;" transform="matrix(1 0 0 1 1746.56 322)">Medium</text>
  <text style="stroke:none;fill:black;font-family:sans-serif;font-size:13;text-anchor:middle;" transform="matrix(1 0 0 1 2043.27 322)">Semibold</text>
  <text style="stroke:none;fill:black;font-family:sans-serif;font-size:13;text-anchor:middle;" transform="matrix(1 0 0 1 2339.98 322)">Bold</text>
  <text style="stroke:none;fill:black;font-family:sans-serif;font-size:13;text-anchor:middle;" transform="matrix(1 0 0 1 2636.69 322)">Heavy</text>
  <text style="stroke:none;fill:black;font-family:sans-serif;font-size:13;text-anchor:middle;" transform="matrix(1 0 0 1 2933.4 322)">Black</text>
  <line style="fill:none;stroke:black;opacity:1;stroke-width:0.5;" x1="263" x2="3036" y1="1903" y2="1903"/>
  <g transform="matrix(0.2 0 0 0.2 263 1933)">
   <path d="m46.2402 4.15039c21.5332 0 39.4531-17.8711 39.4531-39.4043s-17.9688-39.4043-39.502-39.4043c-21.4844 0-39.3555 17.8711-39.3555 39.4043s17.9199 39.4043 39.4043 39.4043Zm0-7.42188c-17.7246 0-31.8848-14.209-31.8848-31.9824s14.1113-31.9824 31.8359-31.9824c17.7734 0 32.0312 14.209 32.0312 31.9824s-14.209 31.9824-31.9824 31.9824Zm-17.9688-31.9824c0 2.14844 1.51367 3.61328 3.75977 3.61328h10.498v10.5957c0 2.19727 1.46484 3.71094 3.61328 3.71094 2.24609 0 3.71094-1.51367 3.71094-3.71094v-10.5957h10.5957c2.19727 0 3.71094-1.46484 3.71094-3.61328 0-2.19727-1.51367-3.71094-3.71094-3.71094h-10.5957v-10.5469c0-2.24609-1.46484-3.75977-3.71094-3.75977-2.14844 0-3.61328 1.51367-3.61328 3.75977v10.5469h-10.498c-2.24609 0-3.75977 1.51367-3.75977 3.71094Z"/>
  </g>
  <g transform="matrix(0.2 0 0 0.2 281.506 1933)">
   <path d="m58.5449 14.5508c27.2461 0 49.8047-22.6074 49.8047-49.8047 0-27.2461-22.6074-49.8047-49.8535-49.8047-27.1973 0-49.7559 22.5586-49.7559 49.8047 0 27.1973 22.6074 49.8047 49.8047 49.8047Zm0-8.30078c-23.0469 0-41.4551-18.457-41.4551-41.5039s18.3594-41.5039 41.4062-41.5039 41.5527 18.457 41.5527 41.5039-18.457 41.5039-41.5039 41.5039Zm-22.6562-41.5039c0 2.39258 1.66016 4.00391 4.15039 4.00391h14.3555v14.4043c0 2.44141 1.66016 4.15039 4.05273 4.15039 2.44141 0 4.15039-1.66016 4.15039-4.15039v-14.4043h14.4043c2.44141 0 4.15039-1.61133 4.15039-4.00391 0-2.44141-1.70898-4.15039-4.15039-4.15039h-14.4043v-14.3555c0-2.49023-1.70898-4.19922-4.15039-4.19922-2.39258 0-4.05273 1.70898-4.05273 4.19922v14.3555h-14.3555c-2.49023 0-4.15039 1.70898-4.15039 4.15039Z"/>
  </g>
  <g transform="matrix(0.2 0 0 0.2 304.924 1933)">
   <path d="m74.8535 28.3203c34.8145 0 63.623-28.8086 63.623-63.5742 0-34.8145-28.8574-63.623-63.6719-63.623-34.7656 0-63.5254 28.8086-63.5254 63.623 0 34.7656 28.8086 63.5742 63.5742 63.5742Zm0-9.08203c-30.1758 0-54.4434-24.3164-54.4434-54.4922 0-30.2246 24.2188-54.4922 54.3945-54.4922 30.2246 0 54.541 24.2676 54.541 54.4922 0 30.1758-24.2676 54.4922-54.4922 54.4922Zm-28.8574-54.4922c0 2.58789 1.85547 4.39453 4.58984 4.39453h19.7266v19.7754c0 2.68555 1.85547 4.58984 4.44336 4.58984 2.68555 0 4.54102-1.85547 4.54102-4.58984v-19.7754h19.7754c2.68555 0 4.58984-1.80664 4.58984-4.39453 0-2.73438-1.85547-4.58984-4.58984-4.58984h-19.7754v-19.7266c0-2.73438-1.85547-4.63867-4.54102-4.63867-2.58789 0-4.44336 1.9043-4.44336 4.63867v19.7266h-19.7266c-2.73438 0-4.58984 1.85547-4.58984 4.58984Z"/>
  </g>
  <text style="stroke:none;fill:black;font-family:sans-serif;font-size:13;font-weight:bold;" transform="matrix(1 0 0 1 263 1953)">Design Variations</text>
  <text style="stroke:none;fill:black;font-family:sans-serif;font-size:13;" transform="matrix(1 0 0 1 263 1971)">Symbols are supported in up to nine weights and three scales.</text>
  <text style="stroke:none;fill:black;font-family:sans-serif;font-size:13;" transform="matrix(1 0 0 1 263 1989)">For optimal layout with text and other symbols, vertically align</text>
  <text style="stroke:none;fill:black;font-family:sans-serif;font-size:13;" transform="matrix(1 0 0 1 263 2007)">symbols with the adjacent text.</text>
  <line style="fill:none;stroke:#00AEEF;stroke-width:0.5;opacity:1.0;" x1="776" x2="776" y1="1919" y2="1933"/>
  <g transform="matrix(0.2 0 0 0.2 776 1933)">
   <path d="m16.5527 0.78125c2.58789 0 3.85742-0.976562 4.78516-3.71094l6.29883-17.2363h28.8086l6.29883 17.2363c0.927734 2.73438 2.19727 3.71094 4.73633 3.71094 2.58789 0 4.24805-1.5625 4.24805-4.00391 0-0.830078-0.146484-1.61133-0.537109-2.63672l-22.9004-60.9863c-1.12305-2.97852-3.125-4.49219-6.25-4.49219-3.02734 0-5.07812 1.46484-6.15234 4.44336l-22.9004 61.084c-0.390625 1.02539-0.537109 1.80664-0.537109 2.63672 0 2.44141 1.5625 3.95508 4.10156 3.95508Zm13.4766-28.3691 11.8652-32.8613h0.244141l11.8652 32.8613Z"/>
  </g>
  <line style="fill:none;stroke:#00AEEF;stroke-width:0.5;opacity:1.0;" x1="792.836" x2="792.836" y1="1919" y2="1933"/>
  <text style="stroke:none;fill:black;font-family:sans-serif;font-size:13;font-weight:bold;" transform="matrix(1 0 0 1 776 1953)">Margins</text>
  <text style="stroke:none;fill:black;font-family:sans-serif;font-size:13;" transform="matrix(1 0 0 1 776 1971)">Leading and trailing margins on the left and right side of each symbol</text>
  <text style="stroke:none;fill:black;font-family:sans-serif;font-size:13;" transform="matrix(1 0 0 1 776 1989)">can be adjusted by modifying the x-location of the margin guidelines.</text>
  <text style="stroke:none;fill:black;font-family:sans-serif;font-size:13;" transform="matrix(1 0 0 1 776 2007)">Modifications are automatically applied proportionally to all</text>
  <text style="stroke:none;fill:black;font-family:sans-serif;font-size:13;" transform="matrix(1 0 0 1 776 2025)">scales and weights.</text>
  <g transform="matrix(0.2 0 0 0.2 1289 1933)">
   <path d="m14.209 9.32617 8.49609 8.54492c4.29688 4.3457 9.22852 4.05273 13.8672-1.07422l53.4668-58.9355-4.83398-4.88281-53.0762 58.3984c-1.75781 2.00195-3.41797 2.49023-5.76172 0.146484l-5.85938-5.81055c-2.34375-2.29492-1.80664-4.00391 0.195312-5.81055l57.373-54.0039-4.88281-4.83398-57.959 54.4434c-4.93164 4.58984-5.32227 9.47266-1.02539 13.8184Zm32.0801-90.9668c-2.09961 2.05078-2.24609 4.93164-1.07422 6.88477 1.17188 1.80664 3.4668 2.97852 6.68945 2.14844 7.32422-1.70898 14.9414-2.00195 22.0703 2.68555l-2.92969 7.27539c-1.70898 4.15039-0.830078 7.08008 1.85547 9.81445l11.4746 11.5723c2.44141 2.44141 4.49219 2.53906 7.32422 2.05078l5.32227-0.976562 3.32031 3.36914-0.195312 2.7832c-0.195312 2.49023 0.439453 4.39453 2.88086 6.78711l3.80859 3.71094c2.39258 2.39258 5.46875 2.53906 7.8125 0.195312l14.5508-14.5996c2.34375-2.34375 2.24609-5.32227-0.146484-7.71484l-3.85742-3.80859c-2.39258-2.39258-4.24805-3.17383-6.64062-2.97852l-2.88086 0.244141-3.22266-3.17383 1.2207-5.61523c0.634766-2.83203-0.146484-5.0293-3.07617-7.95898l-10.9863-10.9375c-16.6992-16.6016-38.8672-16.2109-53.3203-1.75781Zm7.4707 1.85547c12.1582-8.88672 28.6133-7.37305 39.7461 3.75977l12.1582 12.0605c1.17188 1.17188 1.36719 2.09961 1.02539 3.80859l-1.61133 7.42188 7.51953 7.42188 4.93164-0.292969c1.26953-0.0488281 1.66016 0.0488281 2.63672 1.02539l2.88086 2.88086-12.207 12.207-2.88086-2.88086c-0.976562-0.976562-1.12305-1.36719-1.07422-2.68555l0.341797-4.88281-7.4707-7.42188-7.61719 1.26953c-1.61133 0.341797-2.34375 0.195312-3.56445-0.976562l-10.0098-10.0098c-1.26953-1.17188-1.41602-2.00195-0.634766-3.85742l4.39453-10.4492c-7.8125-7.27539-17.9688-10.4004-28.125-7.42188-0.78125 0.195312-1.07422-0.439453-0.439453-0.976562Z"/>
  </g>
  <text style="stroke:none;fill:black;font-family:sans-serif;font-size:13;font-weight:bold;" transform="matrix(1 0 0 1 1289 1953)">Exporting</text>
  <text style="stroke:none;fill:black;font-family:sans-serif;font-size:13;" transform="matrix(1 0 0 1 1289 1971)">Symbols should be outlined when exporting to ensure the</text>
  <text style="stroke:none;fill:black;font-family:sans-serif;font-size:13;" transform="matrix(1 0 0 1 1289 1989)">design is preserved when submitting to Xcode.</text>
  <text id="template-version" style="stroke:none;fill:black;font-family:sans-serif;font-size:13;text-anchor:end;" transform="matrix(1 0 0 1 3036 1933)">Template v.2.0</text>
  <text style="stroke:none;fill:black;font-family:sans-serif;font-size:13;text-anchor:end;" transform="matrix(1 0 0 1 3036 1951)">Requires Xcode 12 or greater</text>
  <text id="descriptive-name" style="stroke:none;fill:black;font-family:sans-serif;font-size:13;text-anchor:end;" transform="matrix(1 0 0 1 3036 1969)">Generated from moon.stars</text>
  <text style="stroke:none;fill:black;font-family:sans-serif;font-size:13;text-anchor:end;" transform="matrix(1 0 0 1 3036 1987)">Typeset at 100.0 points</text>
  <text style="stroke:none;fill:black;font-family:sans-serif;font-size:13;" transform="matrix(1 0 0 1 263 726)">Small</text>
  <text style="stroke:none;fill:black;font-family:sans-serif;font-size:13;" transform="matrix(1 0 0 1 263 1156)">Medium</text>
  <text style="stroke:none;fill:black;font-family:sans-serif;font-size:13;" transform="matrix(1 0 0 1 263 1586)">Large</text>
 </g>
 <g id="Guides">
  <g id="H-reference" style="fill:#27AAE1;stroke:none;" transform="matrix(1 0 0 1 339 696)">
   <path d="M0.993654 0L3.63775 0L29.3281-67.1323L30.0303-67.1323L30.0303-70.459L28.1226-70.459ZM11.6885-24.4799L46.9815-24.4799L46.2315-26.7285L12.4385-26.7285ZM55.1196 0L57.7637 0L30.6382-70.459L29.4326-70.459L29.4326-67.1323Z"/>
  </g>
  <line id="Baseline-S" style="fill:none;stroke:#27AAE1;opacity:1;stroke-width:0.5;" x1="263" x2="3036" y1="696" y2="696"/>
  <line id="Capline-S" style="fill:none;stroke:#27AAE1;opacity:1;stroke-width:0.5;" x1="263" x2="3036" y1="625.541" y2="625.541"/>
  <g id="H-reference" style="fill:#27AAE1;stroke:none;" transform="matrix(1 0 0 1 339 1126)">
   <path d="M0.993654 0L3.63775 0L29.3281-67.1323L30.0303-67.1323L30.0303-70.459L28.1226-70.459ZM11.6885-24.4799L46.9815-24.4799L46.2315-26.7285L12.4385-26.7285ZM55.1196 0L57.7637 0L30.6382-70.459L29.4326-70.459L29.4326-67.1323Z"/>
  </g>
  <line id="Baseline-M" style="fill:none;stroke:#27AAE1;opacity:1;stroke-width:0.5;" x1="263" x2="3036" y1="1126" y2="1126"/>
  <line id="Capline-M" style="fill:none;stroke:#27AAE1;opacity:1;stroke-width:0.5;" x1="263" x2="3036" y1="1055.54" y2="1055.54"/>
  <g id="H-reference" style="fill:#27AAE1;stroke:none;" transform="matrix(1 0 0 1 339 1556)">
   <path d="M0.993654 0L3.63775 0L29.3281-67.1323L30.0303-67.1323L30.0303-70.459L28.1226-70.459ZM11.6885-24.4799L46.9815-24.4799L46.2315-26.7285L12.4385-26.7285ZM55.1196 0L57.7637 0L30.6382-70.459L29.4326-70.459L29.4326-67.1323Z"/>
  </g>
  <line id="Baseline-L" style="fill:none;stroke:#27AAE1;opacity:1;stroke-width:0.5;" x1="263" x2="3036" y1="1556" y2="1556"/>
  <line id="Capline-L" style="fill:none;stroke:#27AAE1;opacity:1;stroke-width:0.5;" x1="263" x2="3036" y1="1485.54" y2="1485.54"/>
  <line id="left-margin" style="fill:none;stroke:#00AEEF;stroke-width:0.5;opacity:1.0;" x1="1394.05" x2="1394.05" y1="1030.79" y2="1150.12"/>
  <line id="right-margin" style="fill:none;stroke:#00AEEF;stroke-width:0.5;opacity:1.0;" x1="1505.64" x2="1505.64" y1="1030.79" y2="1150.12"/>
 </g>
 <g id="Symbols">
  <g id="Black-L" transform="matrix(1 0 0 1 2853.42 1556)">
   <path d="M80.7943 32.3784C106.61 32.3784 129.152 17.6418 139.483-5.54123C142.024-11.2379 141.219-15.6364 138.578-18.1037C135.978-20.5281 131.624-21.003 127.085-18.877C122.393-16.7342 116.255-15.5671 109.925-15.5671C82.5785-15.5671 65.2581-32.0521 65.2581-58.6414C65.2581-65.9914 66.8945-73.2521 69.0893-78.3278C71.3022-83.5544 70.9869-87.3896 68.6393-90.0333C66.0164-92.9523 61.5572-93.3316 56.3165-91.2516C32.4122-81.7224 16.6681-57.9091 16.6681-31.5648C16.6681 5.14724 43.6644 32.3784 80.7943 32.3784ZM80.8347 12.5467C55.1904 12.5467 36.4425-6.33832 36.4425-31.7926C36.4425-42.9117 40.5604-54.4246 48.1346-62.5383C47.6864-60.2564 47.4191-57.4925 47.4191-54.79C47.4191-20.2892 70.0955 2.05789 105.497 2.05789C107.254 2.05789 108.956 1.89063 109.921 1.67696C102.507 8.73442 91.7649 12.5467 80.8347 12.5467ZM131.307-39.5013C133.048-39.5013 134.353-40.7476 134.572-42.5677C136.494-58.8522 137.053-59.4764 153.871-61.967C155.927-62.2642 157.096-63.4481 157.096-65.2317C157.096-66.9153 155.927-68.1396 154.246-68.4745C137.037-72.0661 136.494-71.7049 134.572-87.8738C134.353-89.7159 133.048-90.9413 131.307-90.9413C129.546-90.9413 128.261-89.7159 128.043-87.953C125.94-71.1776 125.507-70.7454 108.406-68.4745C106.745-68.2773 105.497-66.9153 105.497-65.2317C105.497-63.5273 106.686-62.3226 108.348-61.967C125.624-58.3753 125.921-58.6341 128.043-42.4092C128.261-40.7476 129.605-39.5013 131.307-39.5013ZM100.625-85.7366C101.713-85.7366 102.482-86.5052 102.642-87.5943C104.198-97.8016 104.201-97.8564 114.718-99.7297C115.963-99.9478 116.695-100.638 116.695-101.748C116.695-102.858 115.963-103.549 114.893-103.767C104.085-105.94 104.099-105.936 102.642-115.844C102.482-116.991 101.713-117.76 100.625-117.76C99.5162-117.76 98.7476-116.991 98.588-115.902C97.0131-105.527 97.0899-105.415 86.4149-103.767C85.3247-103.607 84.5353-102.858 84.5353-101.748C84.5353-100.638 85.2663-99.9478 86.3565-99.7297C97.0899-97.556 96.9923-97.568 98.588-87.5359C98.7476-86.5052 99.5162-85.7366 100.625-85.7366Z"/>
  </g>
  <g id="Heavy-L" transform="matrix(1 0 0 1 2558.69 1556)">
   <path d="M78.4126 30.6803C103.569 30.6803 125.176 16.7207 135.067-5.59982C137.26-10.5604 136.574-14.3958 134.275-16.5659C132.037-18.6699 128.273-19.0897 124.307-17.2659C119.579-15.1875 113.532-14.0303 106.979-14.0303C79.4021-14.0303 61.8898-30.7811 61.8898-57.6789C61.8898-65.0651 63.4678-72.3969 65.6279-77.2506C67.5893-81.8138 67.3248-85.2332 65.2843-87.5428C63.0049-90.0912 59.1136-90.481 54.4305-88.6166C31.6677-79.4533 16.5302-56.5512 16.5302-30.9238C16.5302 4.33306 42.4103 30.6803 78.4126 30.6803ZM78.4673 13.408C52.481 13.408 33.7635-5.68281 33.7635-31.2502C33.7635-43.5666 38.738-55.7343 47.3644-64.0586C46.6383-61.3145 46.221-57.6998 46.221-54.1701C46.221-20.4626 68.5526 1.48459 103.087 1.48459C105.794 1.48459 108.356 1.17227 109.78 0.777122C102.256 8.84177 90.6534 13.408 78.4673 13.408ZM128.027-37.7697C129.609-37.7697 130.797-38.9074 130.997-40.5641C132.958-56.9815 133.557-57.5351 150.439-60.1112C152.314-60.3858 153.383-61.4329 153.383-63.0809C153.383-64.6238 152.314-65.7257 150.782-66.0148C133.578-69.5463 132.958-69.2281 130.997-85.5618C130.797-87.2544 129.609-88.3618 128.027-88.3618C126.42-88.3618 125.263-87.2544 125.063-85.6366C122.916-68.7917 122.475-68.3563 105.291-66.0148C103.784-65.8451 102.641-64.6238 102.641-63.0809C102.641-61.5077 103.74-60.4305 105.247-60.1112C122.564-56.5796 122.891-56.7817 125.063-40.4145C125.263-38.9074 126.465-37.7697 128.027-37.7697ZM97.4734-83.0652C98.4614-83.0652 99.1446-83.7428 99.2998-84.7364C100.944-95.016 100.932-95.1381 111.571-97.0582C112.674-97.2581 113.343-97.8665 113.343-98.8903C113.343-99.9141 112.674-100.522 111.705-100.722C100.848-102.905 100.939-102.977 99.2998-113C99.1446-114.038 98.4614-114.715 97.4734-114.715C96.4552-114.715 95.7776-114.038 95.6224-113.044C93.8882-102.664 94.0461-102.503 83.2861-100.722C82.2868-100.567 81.5791-99.9141 81.5791-98.8903C81.5791-97.8665 82.2422-97.2581 83.2414-97.0582C94.0461-94.8757 93.9523-94.8375 95.6224-84.6918C95.7776-83.7428 96.4552-83.0652 97.4734-83.0652Z"/>
  </g>
  <g id="Bold-L" transform="matrix(1 0 0 1 2264.36 1556)">
   <path d="M75.5663 28.8209C99.9454 28.8209 120.474 15.7921 129.864-5.47532C131.649-9.55881 131.109-12.7323 129.218-14.5485C127.404-16.2754 124.333-16.6335 121.036-15.1638C116.255-13.1549 110.316-11.9981 103.486-11.9981C75.5946-11.9981 57.8516-29.0569 57.8516-56.4282C57.8516-63.7934 59.3454-71.1726 61.5042-75.869C63.1656-79.6473 62.9551-82.5668 61.2689-84.4838C59.3899-86.5936 56.1607-86.9763 52.1467-85.3584C30.768-76.5591 16.376-54.7939 16.376-30.0354C16.376 3.50526 40.8656 28.8209 75.5663 28.8209ZM75.629 14.6847C49.153 14.6847 30.4962-4.71934 30.4962-30.44C30.4962-44.2618 36.6056-57.2662 46.5457-65.8369C45.4738-62.5464 44.8646-57.9237 44.8646-53.4017C44.8646-20.5361 66.7437 0.896805 100.292 0.896805C104.138 0.896805 107.73 0.392757 109.745-0.240185C102.097 9.14387 89.4046 14.6847 75.629 14.6847ZM124.141-35.6855C125.516-35.6855 126.55-36.6775 126.727-38.1195C128.765-54.6909 129.365-55.1226 146.323-57.8211C147.954-58.0651 148.892-58.9431 148.892-60.4072C148.892-61.766 147.954-62.7068 146.621-62.942C129.425-66.4117 128.765-66.1174 126.727-82.6436C126.55-84.1368 125.516-85.0908 124.141-85.0908C122.741-85.0908 121.745-84.1368 121.568-82.7108C119.345-65.7963 118.941-65.4054 101.665-62.942C100.357-62.8032 99.3521-61.766 99.3521-60.4072C99.3521-59.0103 100.328-58.0943 101.636-57.8211C118.999-54.3514 119.32-54.5141 121.568-37.9851C121.745-36.6775 122.771-35.6855 124.141-35.6855ZM93.7339-79.7609C94.5915-79.7609 95.1671-80.3233 95.3147-81.1942C97.0369-91.5733 97.0316-91.7948 107.832-93.754C108.766-93.9308 109.35-94.4392 109.35-95.3481C109.35-96.2569 108.766-96.7653 107.92-96.9421C96.9864-99.1399 97.177-99.319 95.3147-109.473C95.1671-110.373 94.5915-110.935 93.7339-110.935C92.8383-110.935 92.2759-110.373 92.1283-109.502C90.1944-99.1146 90.4671-98.8771 79.5772-96.9421C78.6932-96.7945 78.0928-96.2569 78.0928-95.3481C78.0928-94.4392 78.664-93.9308 79.548-93.754C90.4671-91.5562 90.3884-91.4565 92.1283-81.165C92.2759-80.3233 92.8383-79.7609 93.7339-79.7609Z"/>
  </g>
  <g id="Semibold-L" transform="matrix(1 0 0 1 1969.29 1556)">
   <path d="M73.6041 27.539C97.4473 27.539 117.232 15.1518 126.277-5.38949C127.781-8.86834 127.342-11.5855 125.732-13.1577C124.21-14.6247 121.616-14.9402 118.781-13.7146C113.963-11.7536 108.098-10.5971 101.078-10.5971C72.9697-10.5971 55.0676-27.8682 55.0676-55.566C55.0676-62.9168 56.5034-70.3286 58.6614-74.9165C60.1159-78.1537 59.9427-80.7285 58.5007-82.3749C56.8977-84.1823 54.125-84.5602 50.5723-83.1122C30.1477-74.5638 16.2697-53.5824 16.2697-29.4229C16.2697 2.93458 39.8007 27.539 73.6041 27.539ZM73.6723 15.5649C46.8586 15.5649 28.2438-4.05514 28.2438-29.8815C28.2438-44.741 35.1356-58.3223 45.9813-67.0628C44.6711-63.3957 43.9296-58.078 43.9296-52.872C43.9296-20.5869 65.4966 0.49159 98.365 0.49159C102.995 0.49159 107.298-0.144631 109.721-0.941509C101.988 9.35214 88.5437 15.5649 73.6723 15.5649ZM121.462-34.2486C122.694-34.2486 123.623-35.1402 123.784-36.4342C125.874-53.1117 126.475-53.4594 143.486-56.2423C144.948-56.4652 145.796-57.2267 145.796-58.5639C145.796-59.7958 144.948-60.6256 143.753-60.8236C126.561-64.2507 125.874-63.9729 123.784-80.6318C123.623-81.9876 122.694-82.8358 121.462-82.8358C120.205-82.8358 119.32-81.9876 119.159-80.6937C116.883-63.7312 116.505-63.3711 99.1649-60.8236C97.9949-60.7061 97.0848-59.7958 97.0848-58.5639C97.0848-57.2886 97.9763-56.4838 99.1464-56.2423C116.542-52.8153 116.858-52.9508 119.159-36.3103C119.32-35.1402 120.224-34.2486 121.462-34.2486ZM91.1559-77.483C91.9236-77.483 92.425-77.966 92.5674-78.7522C94.3433-89.2 94.3427-89.49 105.254-91.4761C106.071-91.637 106.598-92.0765 106.598-92.9061C106.598-93.7356 106.071-94.1751 105.31-94.3361C94.324-96.5444 94.5834-96.7973 92.5674-107.041C92.425-107.846 91.9236-108.329 91.1559-108.329C90.3448-108.329 89.8618-107.846 89.7195-107.06C87.6479-96.6673 87.9997-96.3772 77.0204-94.3361C76.2157-94.1937 75.6894-93.7356 75.6894-92.9061C75.6894-92.0765 76.1971-91.637 77.0018-91.4761C87.9997-89.2678 87.9314-89.1257 89.7195-78.7336C89.8618-77.966 90.3448-77.483 91.1559-77.483Z"/>
  </g>
  <g id="Medium-L" transform="matrix(1 0 0 1 1673.83 1556)">
   <path d="M72.1162 26.567C95.5531 26.567 114.775 14.6664 123.558-5.32441C124.849-8.34481 124.485-10.716 123.089-12.1032C121.788-13.373 119.556-13.6563 117.072-12.6158C112.225-10.6911 106.417-9.53478 99.2517-9.53478C70.9794-9.53478 52.9567-26.9669 52.9567-54.9122C52.9567-62.252 54.3485-69.6886 56.5058-74.1942C57.8035-77.0212 57.6586-79.3347 56.4018-80.7759C55.008-82.354 52.5814-82.7282 49.3785-81.4091C29.6774-73.0509 16.1891-52.6638 16.1891-28.9585C16.1891 2.50187 38.9932 26.567 72.1162 26.567ZM72.1887 16.2322C45.119 16.2322 26.5359-3.55151 26.5359-29.4579C26.5359-45.1044 34.021-59.123 45.5534-67.9923C44.0624-64.0396 43.2206-58.195 43.2206-52.4703C43.2206-20.6253 64.5511 0.18434 96.9039 0.18434C102.129 0.18434 106.971-0.552102 109.702-1.47328C101.905 9.51005 87.8909 16.2322 72.1887 16.2322ZM119.431-33.1592C120.554-33.1592 121.403-33.9746 121.552-35.1563C123.682-51.9144 124.283-52.1983 141.335-55.0452C142.668-55.2521 143.448-55.9252 143.448-57.1663C143.448-58.302 142.668-59.0475 141.578-59.2174C124.39-62.6121 123.682-62.3469 121.552-79.1064C121.403-80.358 120.554-81.126 119.431-81.126C118.282-81.126 117.481-80.358 117.332-79.1643C115.017-62.1654 114.657-61.8286 97.2694-59.2174C96.2036-59.116 95.3657-58.302 95.3657-57.1663C95.3657-55.9832 96.1931-55.2626 97.2588-55.0452C114.678-51.6505 114.992-51.7655 117.332-35.0404C117.481-33.9746 118.293-33.1592 119.431-33.1592ZM89.2011-75.7558C89.9007-75.7558 90.3459-76.1786 90.4843-76.9005C92.3009-87.4004 92.3038-87.7424 103.3-89.7489C104.028-89.8977 104.51-90.285 104.51-91.0545C104.51-91.8239 104.028-92.2112 103.331-92.36C92.3053-94.5763 92.6168-94.8853 90.4843-105.198C90.3459-105.93 89.9007-106.353 89.2011-106.353C88.4542-106.353 88.0314-105.93 87.893-105.208C85.717-94.8117 86.1289-94.4817 75.0816-92.36C74.3372-92.2217 73.867-91.8239 73.867-91.0545C73.867-90.285 74.3267-89.8977 75.0711-89.7489C86.1289-87.5326 86.0684-87.3584 87.893-76.89C88.0314-76.1786 88.4542-75.7558 89.2011-75.7558Z"/>
  </g>
  <g id="Regular-L" transform="matrix(1 0 0 1 1378.74 1556)">
   <path d="M70.1756 25.2992C93.0825 25.2992 111.569 14.0332 120.01-5.23953C121.023-7.66193 120.759-9.58181 119.641-10.7277C118.628-11.7404 116.869-11.9817 114.841-11.1826C109.958-9.30524 104.223-8.14916 96.8699-8.14916C68.3834-8.14916 50.2034-25.7913 50.2034-54.0595C50.2034-61.385 51.5378-68.8538 53.6942-73.2522C54.7873-75.544 54.6793-77.5166 53.664-78.6902C52.5432-79.9692 50.568-80.3386 47.8214-79.1876C29.064-71.0775 16.084-51.4657 16.084-28.3528C16.084 1.93746 37.94 25.2992 70.1756 25.2992ZM70.2535 17.1027C42.8499 17.1027 24.3082-2.8946 24.3082-28.9055C24.3082-45.5784 32.5671-60.1675 44.9951-69.2048C43.2685-64.8795 42.2958-58.3477 42.2958-51.9464C42.2958-20.6754 63.3177-0.216422 94.9981-0.216422C101-0.216422 106.544-1.08359 109.678-2.1669C101.797 9.71603 87.0395 17.1027 70.2535 17.1027ZM116.781-31.7381C117.764-31.7381 118.508-32.4542 118.641-33.4895C120.822-50.3526 121.425-50.5534 138.53-53.4838C139.695-53.6698 140.386-54.2276 140.386-55.3433C140.386-56.3534 139.695-56.9892 138.741-57.1223C121.558-60.4749 120.822-60.226 118.641-77.1167C118.508-78.2324 117.764-78.8957 116.781-78.8957C115.774-78.8957 115.083-78.2324 114.949-77.1695C112.582-60.123 112.248-59.8166 94.7968-57.1223C93.8671-57.0419 93.1233-56.3534 93.1233-55.3433C93.1233-54.2804 93.8671-53.6698 94.7968-53.4838C112.248-50.1313 112.557-50.2194 114.949-33.3839C115.083-32.4542 115.774-31.7381 116.781-31.7381ZM86.6515-73.5029C87.2621-73.5029 87.634-73.8471 87.7672-74.4854C89.6368-85.0532 89.6445-85.4629 100.75-87.496C101.363-87.6291 101.788-87.9483 101.788-88.6393C101.788-89.3303 101.363-89.6494 100.75-89.7826C89.6721-92.0093 90.0517-92.3914 87.7672-102.793C87.634-103.431 87.2621-103.776 86.6515-103.776C85.9881-103.776 85.6439-103.431 85.5107-102.793C83.1985-92.3914 83.6887-92.0093 72.5529-89.7826C71.887-89.6494 71.49-89.3303 71.49-88.6393C71.49-87.9483 71.887-87.6291 72.5529-87.496C83.6887-85.2693 83.6385-85.0532 85.5107-74.4854C85.6439-73.8471 85.9881-73.5029 86.6515-73.5029Z"/>
  </g>
  <g id="Light-L" transform="matrix(1 0 0 1 1083.27 1556)">
   <path d="M68.8778 25.5855C91.4984 25.5855 109.756 14.7584 118.14-3.88447C119.019-5.92517 118.851-7.61602 117.904-8.60923C117.025-9.48833 115.495-9.72959 113.677-9.045C108.699-7.1486 103.002-5.91618 95.4576-5.91618C66.5703-5.91618 48.2758-23.6347 48.2758-52.819C48.2758-59.7055 49.4766-66.9453 51.9002-71.9926C52.8597-73.979 52.7326-75.7035 51.7937-76.7435C50.7874-77.8508 49.003-78.0865 46.5809-76.9737C28.5868-68.5392 16.084-49.7671 16.084-27.1313C16.084 2.5291 36.9284 25.5855 68.8778 25.5855ZM68.8984 19.3357C40.7314 19.3357 22.3806-1.25326 22.3806-27.4551C22.3806-45.3112 31.8991-60.6446 45.3005-69.7582C43.3257-65.2231 42.1813-58.2904 42.1813-51.4121C42.1813-19.8166 62.7261 0.165283 94.2919 0.165283C100.828 0.165283 106.868-0.911818 110.556-2.24324C102.675 11.0138 87.0013 19.3357 68.8984 19.3357ZM115.235-30.6884C116.008-30.6884 116.599-31.2328 116.713-32.039C119.124-48.9402 119.421-48.8357 136.564-51.957C137.424-52.1048 137.982-52.5481 137.982-53.4348C137.982-54.2541 137.424-54.718 136.699-54.8321C119.535-58.2228 119.124-57.8021 116.713-74.7501C116.599-75.6368 116.008-76.1475 115.235-76.1475C114.476-76.1475 113.918-75.6368 113.804-74.7838C111.246-57.7946 111.236-57.8317 93.7853-54.8321C93.0464-54.7517 92.4553-54.2541 92.4553-53.4348C92.4553-52.5818 93.0464-52.1048 93.7853-51.957C111.236-48.5663 111.259-48.8261 113.804-31.9716C113.918-31.2328 114.476-30.6884 115.235-30.6884ZM85.1247-71.2508C85.6017-71.2508 85.8972-71.4996 86.0113-72.0234C87.7283-82.7248 87.9077-83.3063 99.1851-85.2439C99.7219-85.358 100.051-85.6199 100.051-86.1773C100.051-86.7347 99.7219-86.9966 99.1851-87.1107C87.9545-89.3755 88.4294-89.9103 86.0113-100.331C85.8972-100.855 85.6017-101.104 85.1247-101.104C84.614-101.104 84.3652-100.855 84.2511-100.331C81.7862-89.9103 82.4482-89.3755 71.0642-87.1107C70.4937-86.9966 70.2113-86.7347 70.2113-86.1773C70.2113-85.6199 70.4937-85.358 71.0642-85.2439C82.4482-82.9791 82.4743-82.7248 84.2511-72.0234C84.3652-71.4996 84.614-71.2508 85.1247-71.2508Z"/>
  </g>
  <g id="Thin-L" transform="matrix(1 0 0 1 788.201 1556)">
   <path d="M67.1614 25.9642C89.4034 25.9642 107.358 15.7176 115.666-2.0923C116.369-3.62816 116.327-5.01612 115.607-5.80739C114.905-6.5098 113.678-6.75106 112.137-6.21792C107.033-4.29628 101.386-2.96288 93.5897-2.96288C64.1723-2.96288 45.7264-20.7824 45.7264-51.1783C45.7264-57.4842 46.7505-64.4211 49.5275-70.3266C50.3103-71.9092 50.1579-73.3056 49.32-74.1688C48.4651-75.0489 46.9332-75.108 44.9401-74.0457C27.9558-65.182 16.084-47.5206 16.084-25.5159C16.084 3.3116 35.5906 25.9642 67.1614 25.9642ZM67.1062 22.289C37.9296 22.289 19.8312 0.917533 19.8312-25.5367C19.8312-44.9578 31.0157-61.2757 45.7044-70.4902C43.4014-65.6774 42.0298-58.2147 42.0298-50.7053C42.0298-18.6807 61.9436 0.67012 93.358 0.67012C100.601 0.67012 107.298-0.684641 111.717-2.34421C103.836 12.7303 86.9508 22.289 67.1062 22.289ZM113.191-29.3001C113.686-29.3001 114.075-29.6173 114.164-30.1206C116.877-47.0723 116.771-46.564 133.964-49.9377C134.421-50.035 134.801-50.3268 134.801-50.9106C134.801-51.4775 134.421-51.7142 133.998-51.8031C116.86-55.2443 116.877-54.5964 114.164-71.6201C114.075-72.2039 113.686-72.5126 113.191-72.5126C112.759-72.5126 112.379-72.2039 112.29-71.6286C109.479-54.7151 109.899-55.2066 92.4475-51.8031C91.961-51.7227 91.5719-51.4775 91.5719-50.9106C91.5719-50.3353 91.961-50.035 92.4475-49.9377C109.899-46.4965 109.543-46.9835 112.29-30.1037C112.379-29.6173 112.759-29.3001 113.191-29.3001ZM83.1053-68.2723C83.4056-68.2723 83.6002-68.3949 83.6891-68.7672C85.2041-79.6453 85.6107-80.4539 97.1153-82.2654C97.5511-82.3542 97.7541-82.5404 97.7541-82.9211C97.7541-83.3018 97.5511-83.488 97.1153-83.5768C85.6827-85.8921 86.2839-86.6289 83.6891-97.075C83.6002-97.4473 83.4056-97.5699 83.1053-97.5699C82.7966-97.5699 82.674-97.4473 82.5851-97.075C79.9183-86.6289 80.8074-85.8921 69.0954-83.5768C68.6511-83.488 68.5201-83.3018 68.5201-82.9211C68.5201-82.5404 68.6511-82.3542 69.0954-82.2654C80.8074-79.9501 80.9345-79.6453 82.5851-68.7672C82.674-68.3949 82.7966-68.2723 83.1053-68.2723Z"/>
  </g>
  <g id="Ultralight-L" transform="matrix(1 0 0 1 492.33 1556)">
   <path d="M66.2822 26.1581C88.3303 26.1581 106.13 16.2089 114.399-1.17436C115.011-2.45165 115.034-3.68446 114.431-4.3723C113.819-4.98421 112.747-5.22547 111.349-4.7699C106.179-2.83533 100.559-1.45022 92.633-1.45022C62.9441-1.45022 44.4206-19.3214 44.4206-50.3379C44.4206-56.3465 45.3542-63.1283 48.3122-69.4733C49.0045-70.849 48.8392-72.0773 48.0529-72.8501C47.2757-73.6138 45.8731-73.5824 44.0998-72.5459C27.6326-63.4625 16.084-46.3699 16.084-24.6884C16.084 3.71239 34.9054 26.1581 66.2822 26.1581ZM66.1883 23.8016C36.4945 23.8016 18.5254 2.0294 18.5254-24.5541C18.5254-44.7768 30.5632-61.5989 45.9112-70.8652C43.4402-65.9101 41.9522-58.1759 41.9522-50.3433C41.9522-18.0989 61.5428 0.928694 92.8796 0.928694C100.484 0.928694 107.517-0.568283 112.312-2.39592C104.431 13.6094 86.925 23.8016 66.1883 23.8016ZM112.144-28.589C112.496-28.589 112.782-28.7898 112.858-29.138C115.727-46.1156 115.413-45.4004 132.632-48.9034C132.882-48.9748 133.172-49.1891 133.172-49.6177C133.172-50.0553 132.882-50.1757 132.614-50.2516C115.489-53.7187 115.727-52.9545 112.858-70.017C112.782-70.4456 112.496-70.6509 112.144-70.6509C111.88-70.6509 111.59-70.4456 111.514-70.0125C108.574-53.1378 109.213-53.862 91.7623-50.2516C91.4051-50.1712 91.1194-50.0553 91.1194-49.6177C91.1194-49.1846 91.4051-48.9748 91.7623-48.9034C109.213-45.4363 108.663-46.0397 111.514-29.147C111.59-28.7898 111.88-28.589 112.144-28.589ZM82.071-66.7467C82.2808-66.7467 82.4237-66.8047 82.4996-67.0994C83.9112-78.0679 84.4342-78.993 96.0551-80.7398C96.4392-80.8157 96.5776-80.9631 96.5776-81.2533C96.5776-81.5435 96.4392-81.6909 96.0551-81.7668C84.5191-84.108 85.1849-84.9481 82.4996-95.4072C82.4237-95.7019 82.2808-95.7599 82.071-95.7599C81.8657-95.7599 81.8077-95.7019 81.7318-95.4072C78.9616-84.9481 79.9671-84.108 68.0869-81.7668C67.7073-81.6909 67.6538-81.5435 67.6538-81.2533C67.6538-80.9631 67.7073-80.8157 68.0869-80.7398C79.9671-78.3986 80.1459-78.0679 81.7318-67.0994C81.8077-66.8047 81.8657-66.7467 82.071-66.7467Z"/>
  </g>
  <g id="Black-M" transform="matrix(1 0 0 1 2869.91 1126)">
   <path d="M64.4658 18.6473C84.9935 18.6473 103.23 6.62202 111.606-11.9948C113.855-16.9893 113.143-20.8498 110.825-22.996C108.518-25.1316 104.668-25.5469 100.688-23.6556C97.0708-21.9374 92.2417-21.0144 87.504-21.0144C66.4612-21.0144 53.1918-33.568 53.1918-54.0268C53.1918-59.6305 54.4918-65.1636 56.2582-69.3746C58.1706-73.9527 57.8802-77.2477 55.8078-79.565C53.496-82.1216 49.5789-82.3884 45.0836-80.5969C25.6862-72.8556 13.0319-53.7373 13.0319-32.7758C13.0319-3.16805 34.7694 18.6473 64.4658 18.6473ZM64.4771 1.34699C44.7999 1.34699 30.2749-13.1873 30.2749-32.8365C30.2749-40.5821 32.8996-49.0399 37.9951-55.1552C37.8532-53.756 37.7518-52.2917 37.7518-50.8442C37.7518-23.3892 55.5517-5.79697 83.709-5.79697C84.3251-5.79697 84.9728-5.83031 85.4011-5.87351C79.752-1.08523 72.0443 1.34699 64.4771 1.34699ZM104.338-39.885C105.795-39.885 106.888-40.9207 107.07-42.44C108.556-54.9473 108.914-55.4502 121.894-57.3322C123.601-57.5768 124.574-58.596 124.574-60.0634C124.574-61.4628 123.601-62.4933 122.201-62.7895C108.868-65.6289 108.556-65.2888 107.07-77.6816C106.888-79.2062 105.795-80.2364 104.338-80.2364C102.876-80.2364 101.789-79.2062 101.607-77.7442C99.9897-64.815 99.7044-64.5295 86.5269-62.7895C85.1327-62.613 84.0973-61.4628 84.0973-60.0634C84.0973-58.6586 85.0756-57.6339 86.4698-57.3322C99.8186-54.4928 99.9839-54.7653 101.607-42.3149C101.789-40.9207 102.933-39.885 104.338-39.885ZM80.4599-76.3503C81.3704-76.3503 82.0308-77.011 82.1557-77.9212C83.264-85.7853 83.303-85.7932 91.369-87.1913C92.4447-87.3733 93.0536-87.9712 93.0536-88.8869C93.0536-89.8026 92.4447-90.4004 91.5403-90.5824C83.1885-92.2641 83.1456-92.2152 82.1557-99.7954C82.0308-100.763 81.3704-101.423 80.4599-101.423C79.5439-101.423 78.8832-100.763 78.7583-99.8525C77.6545-91.8155 77.6676-91.7502 69.4366-90.5824C68.5267-90.4575 67.8604-89.8026 67.8604-88.8869C67.8604-87.9712 68.4696-87.3733 69.3795-87.1913C77.6676-85.5097 77.5989-85.5569 78.7583-77.8642C78.8832-77.011 79.5439-76.3503 80.4599-76.3503Z"/>
  </g>
  <g id="Heavy-M" transform="matrix(1 0 0 1 2575.01 1126)">
   <path d="M62.2572 16.9609C82.1672 16.9609 99.511 5.65468 107.461-12.1771C109.383-16.4871 108.777-19.8183 106.779-21.6881C104.813-23.5229 101.519-23.8843 98.0799-22.2778C94.4362-20.6244 89.6931-19.7181 84.7546-19.7181C63.5234-19.7181 50.0769-32.5244 50.0769-53.2003C50.0769-58.88 51.332-64.5036 53.0399-68.4378C54.7188-72.3955 54.4798-75.307 52.7005-77.3099C50.714-79.5202 47.3346-79.8095 43.3543-78.2252C25.0025-70.8717 12.8972-52.5665 12.8972-32.2618C12.8972-4.01855 33.6368 16.9609 62.2572 16.9609ZM62.2878 1.98301C42.3467 1.98301 27.8337-12.6979 27.8337-32.44C27.8337-41.247 31.1797-50.2761 37.2141-56.5903C36.8233-54.7587 36.5911-52.4996 36.5911-50.2875C36.5911-23.638 54.0981-6.39262 81.418-6.39262C82.9142-6.39262 84.356-6.54841 85.1819-6.74612C79.425-1.10001 70.9612 1.98301 62.2878 1.98301ZM101.275-38.2891C102.595-38.2891 103.587-39.2344 103.753-40.6153C105.256-53.2489 105.681-53.711 118.72-55.6589C120.278-55.8849 121.166-56.7809 121.166-58.1369C121.166-59.4164 120.278-60.343 119.003-60.5962C105.673-63.3733 105.256-63.0911 103.753-75.6398C103.587-77.0394 102.595-77.9682 101.275-77.9682C99.9396-77.9682 98.9648-77.0394 98.7988-75.6998C97.1562-62.6975 96.8335-62.3771 83.5751-60.5962C82.3143-60.4466 81.3667-59.4164 81.3667-58.1369C81.3667-56.841 82.2707-55.9285 83.5315-55.6589C96.9207-52.8817 97.142-53.0829 98.7988-40.4952C98.9648-39.2344 99.9832-38.2891 101.275-38.2891ZM77.52-73.9465C78.3452-73.9465 78.928-74.5271 79.0504-75.3546C80.2595-83.277 80.2676-83.3348 88.4374-84.7875C89.3817-84.9535 89.9373-85.4763 89.9373-86.3202C89.9373-87.1642 89.3817-87.687 88.5683-87.8529C80.1826-89.5397 80.2064-89.5516 79.0504-97.2422C78.928-98.1134 78.3452-98.6939 77.52-98.6939C76.6783-98.6939 76.0977-98.1134 75.9754-97.2859C74.7299-89.2463 74.8064-89.1471 66.5153-87.8529C65.6855-87.7306 65.0885-87.1642 65.0885-86.3202C65.0885-85.4763 65.6419-84.9535 66.4716-84.7875C74.8064-83.1008 74.7345-83.1025 75.9754-75.311C76.0977-74.5271 76.6783-73.9465 77.52-73.9465Z"/>
  </g>
  <g id="Bold-M" transform="matrix(1 0 0 1 2280.34 1126)">
   <path d="M59.7867 15.0744C79.0056 15.0744 95.3504 4.57257 102.824-12.381C104.379-15.9254 103.894-18.6646 102.253-20.2251C100.669-21.7232 97.9973-22.0243 95.1621-20.7365C91.489-19.1556 86.842-18.268 81.679-18.268C60.2369-18.268 46.5925-31.3571 46.5925-52.2758C46.5925-58.0404 47.7974-63.7654 49.4398-67.3899C50.8575-70.6537 50.6759-73.136 49.2247-74.7873C47.602-76.61 44.824-76.9246 41.4199-75.5721C24.2376-68.6523 12.7464-51.2568 12.7464-31.6868C12.7464-4.96995 32.3698 15.0744 59.7867 15.0744ZM59.8388 2.69449C39.6024 2.69449 25.103-12.1504 25.103-31.9965C25.103-41.9908 29.2557-51.659 36.3404-58.1957C35.6712-55.8804 35.2927-52.7322 35.2927-49.6647C35.2927-23.9162 52.4719-7.05894 78.8552-7.05894C81.3359-7.05894 83.666-7.35171 84.9366-7.72226C79.0591-1.11655 69.7496 2.69449 59.8388 2.69449ZM97.8473-36.5039C99.0161-36.5039 99.894-37.3481 100.042-38.574C101.565-51.349 102.065-51.7653 115.169-53.7871C116.562-53.9923 117.354-54.7506 117.354-55.9818C117.354-57.1271 116.562-57.9376 115.426-58.1427C102.098-60.8502 101.565-60.6327 100.042-73.3557C99.894-74.6154 99.0161-75.431 97.8473-75.431C96.655-75.431 95.8058-74.6154 95.6577-73.4129C93.9865-60.3287 93.622-59.9694 80.2732-58.1427C79.1616-58.0233 78.3122-57.1271 78.3122-55.9818C78.3122-54.8078 79.133-54.0208 80.2446-53.7871C93.6791-51.0796 93.963-51.201 95.6577-38.4597C95.8058-37.3481 96.6836-36.5039 97.8473-36.5039ZM74.2312-71.2576C74.9611-71.2576 75.4571-71.7485 75.5766-72.4835C76.8985-80.471 76.872-80.5848 85.158-82.0986C85.9552-82.2466 86.4513-82.6855 86.4513-83.4491C86.4513-84.2127 85.9552-84.6515 85.2437-84.7996C76.82-86.4921 76.9184-86.5721 75.5766-94.3862C75.4571-95.1497 74.9611-95.6406 74.2312-95.6406C73.4728-95.6406 72.9819-95.1497 72.8624-94.4147C71.4583-86.3723 71.6058-86.2351 63.2473-84.7996C62.5072-84.6801 61.9877-84.2127 61.9877-83.4491C61.9877-82.6855 62.4787-82.2466 63.2188-82.0986C71.6058-80.4061 71.5303-80.3569 72.8624-72.4549C72.9819-71.7485 73.4728-71.2576 74.2312-71.2576Z"/>
  </g>
  <g id="Semibold-M" transform="matrix(1 0 0 1 1985.03 1126)">
   <path d="M58.0835 13.7739C76.826 13.7739 92.482 3.82656 99.6279-12.5216C100.93-15.5381 100.527-17.8691 99.1325-19.2165C97.8119-20.4826 95.5692-20.7421 93.1505-19.674C89.4572-18.1431 84.8765-17.2684 79.5587-17.2684C57.9713-17.2684 44.1903-30.5524 44.1903-51.6384C44.1903-57.4616 45.3607-63.2565 46.958-66.6674C48.1956-69.4528 48.0536-71.6393 46.8284-73.0482C45.4566-74.6038 43.0932-74.9358 40.0863-73.743C23.7103-67.1223 12.6425-50.3539 12.6425-31.2904C12.6425-5.62584 31.4963 13.7739 58.0835 13.7739ZM58.1504 3.18498C37.7105 3.18498 23.2204-11.773 23.2204-31.6908C23.2204-42.5035 27.9293-52.6124 35.738-59.3024C34.877-56.6537 34.3976-52.8926 34.3976-49.2354C34.3976-24.1081 51.3508-7.5183 77.0884-7.5183C80.2478-7.5183 83.1904-7.9055 84.7675-8.39521C78.8069-1.12795 68.9143 3.18498 58.1504 3.18498ZM95.4846-35.2731C96.5485-35.2731 97.3483-36.0476 97.484-37.1668C99.0204-50.0393 99.5714-50.424 112.722-52.4966C113.999-52.6875 114.726-53.3509 114.726-54.496C114.726-55.5489 113.999-56.2793 112.961-56.4512C99.6344-59.1107 99.0204-58.9378 97.484-71.7811C97.3483-72.9444 96.5485-73.6819 95.4846-73.6819C94.3907-73.6819 93.628-72.9444 93.4923-71.8363C91.8013-58.6957 91.408-58.3095 77.9968-56.4512C76.9881-56.3526 76.2065-55.5489 76.2065-54.496C76.2065-53.4061 76.9699-52.7057 77.9787-52.4966C91.4443-49.8372 91.7714-49.9036 93.4923-37.0564C93.628-36.0476 94.4088-35.2731 95.4846-35.2731ZM71.964-69.4038C72.6281-69.4038 73.0643-69.8329 73.1818-70.5041C74.5815-78.5367 74.5311-78.6889 82.8973-80.2448C83.593-80.3805 84.0481-80.7615 84.0481-81.4697C84.0481-82.178 83.593-82.5589 82.9517-82.6946C74.5019-84.391 74.6517-84.518 73.1818-92.4172C73.0643-93.1065 72.6281-93.5356 71.964-93.5356C71.2629-93.5356 70.8338-93.1065 70.7163-92.4353C69.2029-84.3909 69.3993-84.2276 60.9944-82.6946C60.3161-82.5771 59.85-82.178 59.85-81.4697C59.85-80.7615 60.298-80.3805 60.9763-80.2448C69.3993-78.5484 69.3213-78.464 70.7163-70.4859C70.8338-69.8329 71.2629-69.4038 71.964-69.4038Z"/>
  </g>
  <g id="Medium-M" transform="matrix(1 0 0 1 1689.38 1126)">
   <path d="M56.792 12.7878C75.1733 12.7878 90.3071 3.26091 97.2042-12.6282C98.315-15.2444 97.9745-17.266 96.7666-18.4517C95.6456-19.5419 93.7281-19.7699 91.6253-18.8683C87.9166-17.3753 83.3862-16.5104 77.951-16.5104C56.2534-16.5104 42.3689-29.9422 42.3689-51.1552C42.3689-57.0227 43.513-62.8706 45.0761-66.1196C46.1772-68.5423 46.0652-70.5045 45.0115-71.7296C43.8298-73.0826 41.7808-73.4277 39.0751-72.3562C23.3105-65.9622 12.5637-49.6693 12.5637-30.9899C12.5637-6.12316 30.834 12.7878 56.792 12.7878ZM56.8703 3.55689C36.2759 3.55689 21.7929-11.4869 21.7929-31.459C21.7929-42.8923 26.9236-53.3352 35.2813-60.1416C34.2748-57.2401 33.7188-53.0142 33.7188-48.9099C33.7188-24.2535 50.5008-7.8666 75.7488-7.8666C79.4228-7.8666 82.8297-8.3254 84.6393-8.90546C78.6157-1.13659 68.281 3.55689 56.8703 3.55689ZM93.6931-34.3399C94.6775-34.3399 95.4181-35.0616 95.5443-36.0998C97.0908-49.0461 97.681-49.407 110.866-51.5182C112.056-51.6982 112.733-52.2895 112.733-53.3695C112.733-54.3523 112.056-55.0219 111.091-55.1687C97.7661-57.7918 97.0908-57.6527 95.5443-70.5872C95.4181-71.6774 94.6775-72.3556 93.6931-72.3556C92.6738-72.3556 91.9767-71.6774 91.8504-70.6409C90.1444-57.4574 89.7293-57.0509 76.2708-55.1687C75.34-55.0859 74.6098-54.3523 74.6098-53.3695C74.6098-52.3432 75.3298-51.7085 76.2606-51.5182C89.7498-48.8951 90.1096-48.9199 91.8504-35.9923C91.9767-35.0616 92.684-34.3399 93.6931-34.3399ZM70.2449-67.9982C70.8591-67.9982 71.2499-68.3804 71.366-69.0033C72.8246-77.0699 72.7562-77.2514 81.1831-78.8392C81.8019-78.9655 82.2258-79.3026 82.2258-79.9689C82.2258-80.6351 81.8019-80.9722 81.2139-81.0985C72.7442-82.798 72.933-82.9605 71.366-90.9242C71.2499-91.5573 70.8591-91.9395 70.2449-91.9395C69.5873-91.9395 69.205-91.5573 69.089-90.9345C67.4928-82.8886 67.7263-82.7055 59.2862-81.0985C58.6548-80.9825 58.2291-80.6351 58.2291-79.9689C58.2291-79.3026 58.6445-78.9655 59.2759-78.8392C67.7263-77.1398 67.6464-77.0288 69.089-68.993C69.205-68.3804 69.5873-67.9982 70.2449-67.9982Z"/>
  </g>
  <g id="Regular-M" transform="matrix(1 0 0 1 1394.05 1126)">
   <path d="M55.1075 11.5015C73.0176 11.5015 87.4703 2.52311 94.043-12.7672C94.9037-14.8614 94.6449-16.4794 93.6807-17.4541C92.82-18.3148 91.3267-18.5018 89.6359-17.8174C85.9071-16.3738 81.4423-15.5217 75.854-15.5217C54.0127-15.5217 39.9931-29.1463 39.9931-50.5248C39.9931-56.4503 41.1031-62.3673 42.6215-65.4051C43.5445-67.3546 43.4716-69.0243 42.6416-70.0096C41.708-71.0985 40.069-71.4607 37.7562-70.5473C22.789-64.449 12.4609-48.7763 12.4609-30.5979C12.4609-6.77184 29.9701 11.5015 55.1075 11.5015ZM55.2005 4.04199C34.4048 4.04199 19.931-11.1136 19.931-31.1566C19.931-43.3995 25.6118-54.2781 34.6856-61.2362C33.4893-58.0049 32.8336-53.1727 32.8336-48.4853C32.8336-24.4433 49.3921-8.32091 74.0014-8.32091C78.3466-8.32091 82.3593-8.87311 84.4721-9.57101C78.3662-1.14786 67.4549 4.04199 55.2005 4.04199ZM91.3563-33.1227C92.2371-33.1227 92.9004-33.7754 93.0144-34.708C94.574-47.7508 95.2152-48.0804 108.445-50.242C109.522-50.4078 110.134-50.9052 110.134-51.9001C110.134-52.7914 109.522-53.3818 108.652-53.4959C95.3292-56.0715 94.574-55.9765 93.0144-69.0299C92.9004-70.0247 92.2371-70.6257 91.3563-70.6257C90.4343-70.6257 89.8228-70.0247 89.7087-69.0816C87.9833-55.8424 87.5396-55.4092 74.0195-53.4959C73.1904-53.4336 72.5272-52.7914 72.5272-51.9001C72.5272-50.957 73.1904-50.4078 74.0195-50.242C87.5396-47.6664 87.9421-47.6367 89.7087-34.6045C89.8228-33.7754 90.4343-33.1227 91.3563-33.1227ZM68.0026-66.1648C68.5518-66.1648 68.8834-66.4859 68.9975-67.0457C70.533-75.1568 70.441-75.3764 78.9471-77.0059C79.4657-77.1199 79.849-77.3998 79.849-78.0113C79.849-78.6228 79.4657-78.9026 78.9471-79.0167C70.4516-80.72 70.6912-80.929 68.9975-88.9769C68.8834-89.5366 68.5518-89.8577 68.0026-89.8577C67.4017-89.8577 67.0806-89.5366 66.9665-88.9769C65.2622-80.929 65.5441-80.72 57.0581-79.0167C56.4878-78.9026 56.115-78.6228 56.115-78.0113C56.115-77.3998 56.4878-77.1199 57.0581-77.0059C65.5441-75.3025 65.4617-75.1568 66.9665-67.0457C67.0806-66.4859 67.4017-66.1648 68.0026-66.1648Z"/>
  </g>
  <g id="Light-M" transform="matrix(1 0 0 1 1098.45 1126)">
   <path d="M53.944 11.7582C71.5974 11.7582 85.8448 3.17332 92.3661-11.5523C93.107-13.3043 92.9338-14.7169 92.1236-15.5548C91.3826-16.2958 90.0947-16.4827 88.5921-15.901C84.7778-14.4403 80.3472-13.5197 74.5878-13.5197C52.3872-13.5197 38.2649-27.2128 38.2649-49.4126C38.2649-54.9446 39.2551-60.6562 41.0131-64.2758C41.8163-65.9515 41.7263-67.3988 40.9647-68.2643C40.1338-69.1991 38.6659-69.4416 36.644-68.5624C22.3612-62.1732 12.4609-47.2534 12.4609-29.5028C12.4609-6.2414 29.0632 11.7582 53.944 11.7582ZM53.9856 6.04397C32.5055 6.04397 18.2028-9.64207 18.2028-29.8562C18.2028-43.1599 25.0129-54.7059 34.9594-61.7324C33.5406-58.3129 32.7309-53.1214 32.7309-48.0062C32.7309-23.6733 48.8616-7.97869 73.3683-7.97869C78.1926-7.97869 82.6501-8.71911 85.2592-9.63946C79.1533 0.0156823 67.4207 6.04397 53.9856 6.04397ZM89.9703-32.1816C90.6629-32.1816 91.1893-32.6803 91.2862-33.4076C93.0512-46.4846 93.4185-46.5404 106.682-48.8731C107.486-49.0047 107.978-49.3994 107.978-50.189C107.978-50.9092 107.486-51.3456 106.821-51.4426C93.5155-54.0524 93.0512-53.8034 91.2862-66.9081C91.1893-67.6976 90.6629-68.1617 89.9703-68.1617C89.2707-68.1617 88.779-67.6976 88.6821-66.9427C86.7855-53.7548 86.6327-53.6297 73.1126-51.4426C72.4547-51.3803 71.9283-50.9092 71.9283-50.189C71.9283-49.4341 72.4547-49.0047 73.1126-48.8731C86.6327-46.2633 86.7786-46.3876 88.6821-33.3383C88.779-32.6803 89.2707-32.1816 89.9703-32.1816ZM66.6337-64.1458C67.0631-64.1458 67.3263-64.3813 67.4233-64.8383C68.8219-73.0693 68.8839-73.4428 77.544-74.9868C77.9941-75.0837 78.2919-75.3123 78.2919-75.804C78.2919-76.2957 77.9941-76.5242 77.544-76.6212C68.9116-78.3587 69.2368-78.7046 67.4233-86.7696C67.3263-87.2267 67.0631-87.4622 66.6337-87.4622C66.1697-87.4622 65.9341-87.2267 65.8372-86.7696C63.996-78.7046 64.4319-78.3587 55.7234-76.6212C55.2387-76.5242 54.9685-76.2957 54.9685-75.804C54.9685-75.3123 55.2387-75.0837 55.7234-74.9868C64.4319-73.2492 64.4179-73.0693 65.8372-64.8383C65.9341-64.3813 66.1697-64.1458 66.6337-64.1458Z"/>
  </g>
  <g id="Thin-M" transform="matrix(1 0 0 1 803.212 1126)">
   <path d="M52.4051 12.0977C69.7191 12.0977 83.6949 4.03329 90.1483-9.94554C90.7308-11.245 90.6707-12.386 90.0642-13.0428C89.4817-13.6253 88.4653-13.8123 87.2116-13.3664C83.2842-11.8831 78.8989-10.8719 72.9131-10.8719C50.2372-10.8719 35.9792-24.6555 35.9792-47.9416C35.9792-52.9531 36.811-58.3931 38.8858-62.7822C39.5306-64.0958 39.418-65.2489 38.7469-65.956C38.0518-66.6872 36.8102-66.7712 35.173-65.9373C21.7954-59.1633 12.4609-45.2393 12.4609-28.0544C12.4609-5.53986 27.8638 12.0977 52.4051 12.0977ZM52.3788 8.69175C29.9935 8.69175 15.9171-7.69583 15.9171-28.1363C15.9171-42.8431 24.2208-55.2717 35.3215-62.3887C33.6085-58.7202 32.5951-53.0535 32.5951-47.3726C32.5951-22.6549 48.1601-7.52608 72.531-7.52608C77.989-7.52608 83.0349-8.51543 86.3002-9.72998C80.1943 1.55456 67.3754 8.69175 52.3788 8.69175ZM88.1372-30.9369C88.5809-30.9369 88.9262-31.232 89.0005-31.6876C91.037-44.8099 91.0423-44.5036 104.352-47.0626C104.793-47.149 105.126-47.4079 105.126-47.9259C105.126-48.4199 104.793-48.6526 104.4-48.7269C91.1166-51.382 91.037-50.9293 89.0005-64.1019C88.9262-64.6199 88.5809-64.9029 88.1372-64.9029C87.7319-64.9029 87.3986-64.6199 87.3242-64.1139C85.2014-50.9939 85.4333-51.2761 71.9132-48.7269C71.4816-48.6646 71.1362-48.4199 71.1362-47.9259C71.1362-47.42 71.4816-47.149 71.9132-47.0626C85.4333-44.4076 85.2397-44.7356 87.3242-31.6636C87.3986-31.232 87.7319-30.9369 88.1372-30.9369ZM64.8233-61.4753C65.0943-61.4753 65.2669-61.5977 65.3412-61.919C66.5588-70.3083 66.8245-70.8856 75.6883-72.3164C76.0479-72.3907 76.2326-72.5513 76.2326-72.8846C76.2326-73.2179 76.0479-73.3786 75.6883-73.4529C66.8748-75.2357 67.3132-75.7626 65.3412-83.8502C65.2669-84.1715 65.0943-84.2939 64.8233-84.2939C64.5403-84.2939 64.4179-84.1715 64.3436-83.8502C62.3213-75.7626 62.9609-75.2357 53.9582-73.4529C53.5867-73.3786 53.4523-73.2179 53.4523-72.8846C53.4523-72.5513 53.5867-72.3907 53.9582-72.3164C62.9609-70.5335 63.0374-70.3083 64.3436-61.919C64.4179-61.5977 64.5403-61.4753 64.8233-61.4753Z"/>
  </g>
  <g id="Ultralight-M" transform="matrix(1 0 0 1 507.254 1126)">
   <path d="M51.6169 12.2715C68.757 12.2715 82.5937 4.47375 89.0123-9.12256C89.5137-10.1902 89.5116-11.1921 89.0094-11.7562C88.508-12.2576 87.6307-12.4445 86.5046-12.0681C82.5192-10.5732 78.157-9.51574 72.0554-9.51574C49.1361-9.51574 34.8085-23.3457 34.8085-47.1882C34.8085-51.933 35.5591-57.234 37.7962-62.0171C38.3599-63.1453 38.2357-64.1477 37.611-64.7737C36.9854-65.4005 35.8597-65.4035 34.4195-64.5927C21.5056-57.6217 12.4609-44.2077 12.4609-27.3126C12.4609-5.18053 27.2495 12.2715 51.6169 12.2715ZM51.5559 10.0479C28.7069 10.0479 14.7464-6.69898 14.7464-27.2553C14.7464-42.6808 23.8151-55.5615 35.5069-62.7248C33.6433-58.9289 32.5256-53.0187 32.5256-47.048C32.5256-22.1333 47.8007-7.29426 72.1021-7.29426C77.8846-7.29426 83.2319-8.41111 86.8334-9.77634C80.7275 2.34277 67.3522 10.0479 51.5559 10.0479ZM87.1983-30.2994C87.5145-30.2994 87.7671-30.4901 87.8298-30.8067C90.0054-43.9521 89.8252-43.4604 103.158-46.1353C103.414-46.1985 103.666-46.3879 103.666-46.7668C103.666-47.1448 103.414-47.2732 103.159-47.3359C89.888-50.0142 90.0054-49.4573 87.8298-62.6646C87.7671-63.0435 87.5145-63.2337 87.1983-63.2337C86.9437-63.2337 86.6915-63.0435 86.6288-62.665C84.39-49.5798 84.819-50.0706 71.2989-47.3359C70.9831-47.2736 70.7305-47.1448 70.7305-46.7668C70.7305-46.3883 70.9831-46.1985 71.2989-46.1353C84.819-43.4571 84.4515-43.8894 86.6288-30.8058C86.6915-30.4901 86.9437-30.2994 87.1983-30.2994ZM63.896-60.1076C64.0858-60.1076 64.2121-60.172 64.2748-60.4237C65.3997-68.8942 65.7697-69.5758 74.7378-70.9486C75.051-71.0113 75.1777-71.1372 75.1777-71.3893C75.1777-71.6415 75.051-71.7674 74.7378-71.8301C65.8316-73.6361 66.328-74.2558 64.2748-82.355C64.2121-82.6067 64.0858-82.6711 63.896-82.6711C63.7057-82.6711 63.6413-82.6067 63.5786-82.355C61.4636-74.2558 62.2074-73.6361 53.0541-71.8301C52.7405-71.7674 52.6757-71.6415 52.6757-71.3893C52.6757-71.1372 52.7405-71.0113 53.0541-70.9486C62.2074-69.1426 62.3304-68.8942 63.5786-60.4237C63.6413-60.172 63.7057-60.1076 63.896-60.1076Z"/>
  </g>
  <g id="Black-S" transform="matrix(1 0 0 1 2883.16 696)">
   <path d="M51.123 7.51953C67.3828 7.51953 81.9336-2.09961 88.623-16.8945C90.4785-20.9961 89.8926-24.1699 87.9883-25.9277C86.084-27.6855 82.9102-28.0273 79.6387-26.4648C76.8066-25.0977 72.998-24.3652 69.3359-24.3652C52.8809-24.3652 42.5293-34.1309 42.5293-50.1465C42.5293-54.4922 43.5547-58.7891 44.9707-62.207C46.5332-65.9668 46.2891-68.6523 44.5801-70.5566C42.6758-72.6562 39.4531-72.8516 35.791-71.3867C20.3125-65.1855 10.2539-50 10.2539-33.3984C10.2539-9.81445 27.5391 7.51953 51.123 7.51953ZM51.123-6.64062C35.7422-6.64062 24.3652-18.0176 24.3652-33.3984C24.3652-39.209 26.2695-45.7031 30.0293-50.4395C29.9805-49.4629 29.9316-48.5352 29.9316-47.6074C29.9316-25.8301 43.9453-11.9629 66.2598-11.9629C66.5039-11.9629 66.7969-11.9629 67.041-11.9629C62.6465-8.39844 56.7871-6.64062 51.123-6.64062ZM82.6172-39.3066C83.7891-39.3066 84.668-40.1367 84.8145-41.3574C85.9863-51.123 86.2305-51.5137 96.3867-52.9785C97.7539-53.1738 98.5352-54.0039 98.5352-55.1758C98.5352-56.2988 97.7539-57.1289 96.6309-57.373C86.1816-59.6191 85.9863-59.3262 84.8145-68.9941C84.668-70.2148 83.7891-71.0449 82.6172-71.0449C81.4453-71.0449 80.5664-70.2148 80.4199-69.043C79.1504-58.9355 78.9551-58.7402 68.6523-57.373C67.5293-57.2266 66.6992-56.2988 66.6992-55.1758C66.6992-54.0527 67.4805-53.2227 68.6035-52.9785C79.0527-50.7324 79.1504-50.9766 80.4199-41.2598C80.5664-40.1367 81.4941-39.3066 82.6172-39.3066ZM63.8672-68.0664C64.5996-68.0664 65.1367-68.6035 65.2344-69.3359C66.0645-75.4883 66.1133-75.4883 72.4121-76.5625C73.291-76.709 73.7793-77.1973 73.7793-77.9297C73.7793-78.6621 73.291-79.1504 72.5586-79.2969C66.0156-80.6152 65.9668-80.5664 65.2344-86.4746C65.1367-87.2559 64.5996-87.793 63.8672-87.793C63.1348-87.793 62.5977-87.2559 62.5-86.5234C61.6699-80.2246 61.6699-80.1758 55.2246-79.2969C54.4922-79.1992 53.9551-78.6621 53.9551-77.9297C53.9551-77.1973 54.4434-76.709 55.1758-76.5625C61.6699-75.2441 61.6211-75.293 62.5-69.2871C62.5977-68.6035 63.1348-68.0664 63.8672-68.0664Z"/>
  </g>
  <g id="Heavy-S" transform="matrix(1 0 0 1 2587.86 696)">
   <path d="M49.3829 6.0444C65.1471 6.0444 78.9603-3.01004 85.2925-17.2057C86.8829-20.7656 86.3776-23.513 84.7269-25.0519C83.0991-26.5677 80.3748-26.8634 77.5412-25.5314C74.6977-24.2218 70.9582-23.5124 67.1463-23.5124C50.576-23.5124 40.0861-33.4855 40.0861-49.5818C40.0861-54.0427 41.0885-58.4433 42.4238-61.5501C43.8019-64.8144 43.6039-67.2003 42.1369-68.851C40.4977-70.674 37.7129-70.9039 34.4542-69.612C19.7824-63.7796 10.1387-49.1933 10.1387-33.0988C10.1387-10.6096 26.6863 6.0444 49.3829 6.0444ZM49.4059-6.35251C33.8867-6.35251 22.4983-17.7871 22.4983-33.2256C22.4983-39.8083 24.8751-46.7058 29.3263-51.6034C29.0931-50.2811 28.9521-48.7195 28.9521-47.1925C28.9521-26.1412 42.7698-12.5161 64.3813-12.5161C65.3169-12.5161 66.2322-12.5967 66.7529-12.7005C62.2662-8.55978 55.8652-6.35251 49.4059-6.35251ZM80.174-38.062C81.2537-38.062 82.0634-38.8345 82.1984-39.963C83.3588-49.8323 83.6951-50.2229 93.8974-51.7223C95.1724-51.9061 95.8961-52.644 95.8961-53.7467C95.8961-54.7891 95.1724-55.5501 94.1301-55.7596C83.6808-57.9481 83.3588-57.7243 82.1984-67.519C82.0634-68.659 81.2537-69.42 80.174-69.42C79.0828-69.42 78.2846-68.659 78.1496-67.5678C76.8801-57.3913 76.6156-57.1268 66.2437-55.7596C65.2129-55.6362 64.4404-54.7891 64.4404-53.7467C64.4404-52.6928 65.1756-51.9434 66.2064-51.7223C76.6902-49.5339 76.8685-49.6973 78.1496-39.8653C78.2846-38.8345 79.1201-38.062 80.174-38.062ZM61.5277-66.2686C62.2025-66.2686 62.682-66.7481 62.7797-67.4229C63.7135-73.6098 63.7162-73.6328 70.0842-74.7647C70.8594-74.8996 71.3131-75.3303 71.3131-76.0166C71.3131-76.703 70.8594-77.1336 70.1961-77.2686C63.6416-78.5869 63.6389-78.5727 62.7797-84.5731C62.682-85.2852 62.2025-85.7647 61.5277-85.7647C60.8414-85.7647 60.3619-85.2852 60.2643-84.6104C59.3305-78.3115 59.365-78.2512 52.8967-77.2686C52.2219-77.1709 51.7309-76.703 51.7309-76.0166C51.7309-75.3303 52.1846-74.8996 52.8594-74.7647C59.365-73.4463 59.3047-73.4606 60.2643-67.3856C60.3619-66.7481 60.8414-66.2686 61.5277-66.2686Z"/>
  </g>
  <g id="Bold-S" transform="matrix(1 0 0 1 2292.72 696)">
   <path d="M47.4365 4.39453C62.6465 4.39453 75.6348-4.02832 81.5674-17.5537C82.8613-20.5078 82.4463-22.7783 81.0791-24.0723C79.7607-25.3174 77.5391-25.5615 75.1953-24.4873C72.3389-23.2422 68.6768-22.5586 64.6973-22.5586C47.998-22.5586 37.3535-32.7637 37.3535-48.9502C37.3535-53.54 38.3301-58.0566 39.5752-60.8154C40.7471-63.5254 40.6006-65.5762 39.4043-66.9434C38.0615-68.457 35.7666-68.7256 32.959-67.627C19.1895-62.207 10.0098-48.291 10.0098-32.7637C10.0098-11.499 25.7324 4.39453 47.4365 4.39453ZM47.4854-6.03027C31.8115-6.03027 20.4102-17.5293 20.4102-33.0322C20.4102-40.4785 23.3154-47.8271 28.54-52.9053C28.1006-51.1963 27.8564-48.9258 27.8564-46.7285C27.8564-26.4893 41.4551-13.1348 62.2803-13.1348C63.9893-13.1348 65.6006-13.3057 66.4307-13.5254C61.8408-8.74023 54.834-6.03027 47.4854-6.03027ZM77.4414-36.6699C78.418-36.6699 79.1504-37.3779 79.2725-38.4033C80.4199-48.3887 80.8594-48.7793 91.1133-50.3174C92.2852-50.4883 92.9443-51.123 92.9443-52.1484C92.9443-53.1006 92.2852-53.7842 91.333-53.9551C80.8838-56.0791 80.4199-55.9326 79.2725-65.8691C79.1504-66.9189 78.418-67.6025 77.4414-67.6025C76.4404-67.6025 75.7324-66.9189 75.6104-65.918C74.3408-55.6641 73.999-55.3223 63.5498-53.9551C62.6221-53.8574 61.9141-53.1006 61.9141-52.1484C61.9141-51.1719 62.5977-50.5127 63.5254-50.3174C74.0479-48.1934 74.3164-48.2666 75.6104-38.3057C75.7324-37.3779 76.4648-36.6699 77.4414-36.6699ZM58.9111-64.2578C59.5215-64.2578 59.9365-64.6729 60.0342-65.2832C61.084-71.5088 61.0352-71.5576 67.4805-72.7539C68.1396-72.876 68.5547-73.2422 68.5547-73.877C68.5547-74.5117 68.1396-74.8779 67.5537-75C60.9863-76.3184 61.0352-76.3428 60.0342-82.4463C59.9365-83.0811 59.5215-83.4961 58.9111-83.4961C58.2764-83.4961 57.8613-83.0811 57.7637-82.4707C56.7139-76.1719 56.7871-76.0986 50.293-75C49.6826-74.9023 49.2432-74.5117 49.2432-73.877C49.2432-73.2422 49.6582-72.876 50.2686-72.7539C56.7871-71.4355 56.7139-71.4111 57.7637-65.2588C57.8613-64.6729 58.2764-64.2578 58.9111-64.2578Z"/>
  </g>
  <g id="Semibold-S" transform="matrix(1 0 0 1 1997.1 696)">
   <path d="M46.0946 3.25703C60.9225 3.25703 73.342-4.73037 78.9991-17.7937C80.0887-20.3301 79.7358-22.2718 78.5642-23.3969C77.4591-24.4554 75.584-24.664 73.5779-23.7675C70.7126-22.5668 67.1038-21.901 63.0088-21.901C46.2207-21.901 35.4695-32.266 35.4695-48.5147C35.4695-53.1935 36.4283-57.79 37.6112-60.3089C38.6409-62.6367 38.53-64.4564 37.5203-65.6281C36.3819-66.9285 34.4247-67.2237 31.9281-66.2584C18.7807-61.1229 9.9209-47.6689 9.9209-32.5326C9.9209-12.1122 25.0748 3.25703 46.0946 3.25703ZM46.1612-5.80811C30.3808-5.80811 18.9705-17.3516 18.9705-32.8989C18.9705-40.9406 22.2401-48.6003 27.9979-53.8028C27.4163-51.8272 27.1011-49.068 27.1011-46.4086C27.1011-26.7292 40.5486-13.5613 60.8317-13.5613C63.0739-13.5613 65.1651-13.7944 66.2085-14.0941C61.5476-8.86465 54.123-5.80811 46.1612-5.80811ZM75.5574-35.7102C76.4629-35.7102 77.142-36.3737 77.2552-37.328C78.3937-47.3934 78.9043-47.784 89.1937-49.3487C90.2945-49.5107 90.9093-50.0744 90.9093-51.0465C90.9093-51.9364 90.2945-52.5667 89.4046-52.7109C78.9554-54.7905 78.3937-54.6974 77.2552-64.7316C77.142-65.7192 76.4629-66.3495 75.5574-66.3495C74.6187-66.3495 73.9729-65.7192 73.8597-64.7805C72.5901-54.4732 72.195-54.0781 61.6925-52.7109C60.8358-52.6311 60.1723-51.9364 60.1723-51.0465C60.1723-50.1232 60.8203-49.5263 61.677-49.3487C72.2261-47.2691 72.5568-47.2802 73.8597-37.2304C73.9729-36.3737 74.6342-35.7102 75.5574-35.7102ZM57.1071-62.8715C57.673-62.8715 58.0437-63.2421 58.1413-63.808C59.2711-70.0603 59.1867-70.1269 65.6854-71.3676C66.2646-71.4808 66.6529-71.8025 66.6529-72.4018C66.6529-73.001 66.2646-73.3228 65.7319-73.4359C59.1557-74.7543 59.24-74.8054 58.1413-80.98C58.0437-81.5614 57.673-81.932 57.1071-81.932C56.5079-81.932 56.1373-81.5614 56.0396-80.9955C54.9099-74.6967 55.0098-74.6146 48.4979-73.4359C47.9319-73.3383 47.528-73.001 47.528-72.4018C47.528-71.8025 47.9164-71.4808 48.4823-71.3676C55.0098-70.0492 54.9276-69.9981 56.0396-63.7925C56.1373-63.2421 56.5079-62.8715 57.1071-62.8715Z"/>
  </g>
  <g id="Medium-S" transform="matrix(1 0 0 1 1701.22 696)">
   <path d="M45.0771 2.39453C59.6152 2.39453 71.6035-5.2627 77.0518-17.9756C77.9863-20.1953 77.6807-21.8877 76.6572-22.8848C75.7139-23.8018 74.1016-23.9834 72.3516-23.2217C69.4795-22.0547 65.9111-21.4023 61.7285-21.4023C44.873-21.4023 34.041-31.8887 34.041-48.1846C34.041-52.9307 34.9863-57.5879 36.1221-59.9248C37.0439-61.9629 36.96-63.6074 36.0918-64.6309C35.1084-65.7695 33.4072-66.085 31.1465-65.2207C18.4707-60.3008 9.85352-47.1973 9.85352-32.3574C9.85352-12.5771 24.5762 2.39453 45.0771 2.39453ZM45.1572-5.63965C29.2959-5.63965 17.8789-17.2168 17.8789-32.7979C17.8789-41.291 21.4248-49.1865 27.5869-54.4834C26.8975-52.3057 26.5283-49.1758 26.5283-46.166C26.5283-26.9111 39.8613-13.8848 59.7334-13.8848C62.3799-13.8848 64.835-14.165 66.04-14.5254C61.3252-8.95898 53.584-5.63965 45.1572-5.63965ZM74.1289-34.9824C74.9805-34.9824 75.6191-35.6123 75.7256-36.5127C76.8574-46.6387 77.4219-47.0293 87.7383-48.6143C88.7852-48.7695 89.3662-49.2793 89.3662-50.2109C89.3662-51.0537 88.7852-51.6436 87.9424-51.7676C77.4932-53.8135 76.8574-53.7607 75.7256-63.8691C75.6191-64.8096 74.9805-65.3994 74.1289-65.3994C73.2373-65.3994 72.6387-64.8096 72.5322-63.918C71.2627-53.5703 70.8271-53.1348 60.2842-51.7676C59.4814-51.7012 58.8516-51.0537 58.8516-50.2109C58.8516-49.3281 59.4727-48.7783 60.2754-48.6143C70.8447-46.5684 71.2227-46.5322 72.5322-36.415C72.6387-35.6123 73.2461-34.9824 74.1289-34.9824ZM55.7393-61.8203C56.2715-61.8203 56.6084-62.1572 56.7061-62.6895C57.8965-68.9619 57.7852-69.042 64.3242-70.3164C64.8428-70.4229 65.2109-70.7109 65.2109-71.2832C65.2109-71.8555 64.8428-72.1436 64.3506-72.25C57.7676-73.5684 57.8789-73.6396 56.7061-79.8682C56.6084-80.4092 56.2715-80.7461 55.7393-80.7461C55.167-80.7461 54.8301-80.4092 54.7324-79.877C53.542-73.5781 53.6621-73.4893 47.1367-72.25C46.6045-72.1523 46.2275-71.8555 46.2275-71.2832C46.2275-70.7109 46.5957-70.4229 47.1279-70.3164C53.6621-68.998 53.5732-68.9268 54.7324-62.6807C54.8301-62.1572 55.167-61.8203 55.7393-61.8203Z"/>
  </g>
  <g id="Regular-S" transform="matrix(1 0 0 1 1405.58 696)">
   <path d="M43.75 1.26953C57.9102 1.26953 69.3359-5.95703 74.5117-18.2129C75.2441-20.0195 75-21.3867 74.1699-22.2168C73.4375-22.9492 72.168-23.0957 70.752-22.5098C67.8711-21.3867 64.3555-20.752 60.0586-20.752C43.1152-20.752 32.1777-31.3965 32.1777-47.7539C32.1777-52.5879 33.1055-57.3242 34.1797-59.4238C34.9609-61.084 34.9121-62.5 34.2285-63.3301C33.4473-64.2578 32.0801-64.5996 30.127-63.8672C18.0664-59.2285 9.76562-46.582 9.76562-32.1289C9.76562-13.1836 23.9258 1.26953 43.75 1.26953ZM43.8477-5.41992C27.8809-5.41992 16.4551-17.041 16.4551-32.666C16.4551-41.748 20.3613-49.9512 27.0508-55.3711C26.2207-52.9297 25.7812-49.3164 25.7812-45.8496C25.7812-27.1484 38.9648-14.3066 58.3008-14.3066C61.4746-14.3066 64.4043-14.6484 65.8203-15.0879C61.0352-9.08203 52.8809-5.41992 43.8477-5.41992ZM72.2656-34.0332C73.0469-34.0332 73.6328-34.6191 73.7305-35.4492C74.8535-45.6543 75.4883-46.0449 85.8398-47.6562C86.8164-47.8027 87.3535-48.2422 87.3535-49.1211C87.3535-49.9023 86.8164-50.4395 86.0352-50.5371C75.5859-52.5391 74.8535-52.5391 73.7305-62.7441C73.6328-63.623 73.0469-64.1602 72.2656-64.1602C71.4355-64.1602 70.8984-63.623 70.8008-62.793C69.5312-52.3926 69.043-51.9043 58.4473-50.5371C57.7148-50.4883 57.1289-49.9023 57.1289-49.1211C57.1289-48.291 57.7148-47.8027 58.4473-47.6562C69.043-45.6543 69.4824-45.5566 70.8008-35.3516C70.8984-34.6191 71.4355-34.0332 72.2656-34.0332ZM53.9551-60.4492C54.4434-60.4492 54.7363-60.7422 54.834-61.2305C56.1035-67.5293 55.957-67.627 62.5488-68.9453C62.9883-69.043 63.3301-69.2871 63.3301-69.8242C63.3301-70.3613 62.9883-70.6055 62.5488-70.7031C55.957-72.0215 56.1035-72.1191 54.834-78.418C54.7363-78.9062 54.4434-79.1992 53.9551-79.1992C53.418-79.1992 53.125-78.9062 53.0273-78.418C51.7578-72.1191 51.9043-72.0215 45.3613-70.7031C44.873-70.6055 44.5312-70.3613 44.5312-69.8242C44.5312-69.2871 44.873-69.043 45.3613-68.9453C51.9043-67.627 51.8066-67.5293 53.0273-61.2305C53.125-60.7422 53.418-60.4492 53.9551-60.4492Z"/>
  </g>
  <g id="Light-S" transform="matrix(1 0 0 1 1109.85 696)">
   <path d="M42.7207 1.49658C56.6538 1.49658 67.898-5.38184 73.0283-17.1382C73.6548-18.6421 73.4863-19.8276 72.7925-20.5366C72.166-21.1631 71.0781-21.3096 69.8286-20.8145C66.8721-19.6763 63.3867-18.981 58.9385-18.981C41.6773-18.981 30.6489-29.686 30.6489-46.77C30.6489-51.2559 31.4707-55.8106 32.7568-58.4248C33.4321-59.8428 33.3682-61.062 32.7451-61.7861C32.0547-62.5776 30.8389-62.8135 29.1431-62.1113C17.688-57.2153 9.76562-45.2349 9.76562-31.1602C9.76562-12.7144 23.1235 1.49658 42.7207 1.49658ZM42.773-3.64894C26.2007-3.64894 14.9263-15.7393 14.9263-31.5156C14.9263-41.5361 19.8315-50.3296 27.293-55.8101C26.2661-53.2021 25.6904-49.271 25.6904-45.4258C25.6904-26.4673 38.4956-14.0039 57.7407-14.0039C61.3384-14.0039 64.6616-14.5122 66.5166-15.1484C61.7314-8.05274 52.8506-3.64894 42.773-3.64894ZM71.0396-33.2007C71.6543-33.2007 72.1192-33.6504 72.2017-34.2988C73.5064-44.5342 73.8989-44.6826 84.2808-46.4453C85.0152-46.5615 85.4463-46.9102 85.4463-47.6074C85.4463-48.2373 85.0152-48.6382 84.4155-48.7207C73.9815-50.7529 73.5064-50.6167 72.2017-60.8672C72.1192-61.5645 71.6543-61.9805 71.0396-61.9805C70.4063-61.9805 69.9751-61.5645 69.8926-60.9009C68.4717-50.5459 68.2407-50.3301 57.645-48.7207C57.064-48.6719 56.5991-48.2373 56.5991-47.6074C56.5991-46.9439 57.064-46.5615 57.645-46.4453C68.2407-44.4131 68.4531-44.4517 69.8926-34.2315C69.9751-33.6504 70.4063-33.2007 71.0396-33.2007ZM52.7442-58.6631C53.1265-58.6631 53.3589-58.8804 53.4414-59.2778C54.5899-65.6826 54.5796-65.9165 61.3076-67.1592C61.6865-67.2417 61.9526-67.4404 61.9526-67.8716C61.9526-68.3028 61.6865-68.5015 61.3076-68.584C54.5947-69.9326 54.8169-70.1514 53.4414-76.4653C53.3589-76.8628 53.1265-77.0801 52.7442-77.0801C52.3281-77.0801 52.1108-76.8628 52.0283-76.4653C50.6377-70.1514 50.9204-69.9326 44.1807-68.584C43.7681-68.5015 43.5171-68.3028 43.5171-67.8716C43.5171-67.4404 43.7681-67.2417 44.1807-67.1592C50.9204-65.8106 50.8833-65.6826 52.0283-59.2778C52.1108-58.8804 52.3281-58.6631 52.7442-58.6631Z"/>
  </g>
  <g id="Thin-S" transform="matrix(1 0 0 1 814.445 696)">
   <path d="M41.3594 1.79687C54.9922 1.79687 65.9961-4.6211 71.0664-15.7168C71.5528-16.8203 71.4844-17.7657 70.9707-18.3145C70.4844-18.8008 69.6367-18.9473 68.6074-18.5723C65.5508-17.4141 62.1055-16.6387 57.4571-16.6387C39.7754-16.6387 28.627-27.4239 28.627-45.4688C28.627-49.4942 29.3086-53.8086 30.875-57.1035C31.4102-58.2012 31.3262-59.1602 30.7832-59.7442C30.2129-60.3555 29.1973-60.4512 27.8418-59.7891C17.1875-54.5528 9.76562-43.4531 9.76562-29.8789C9.76562-12.0938 22.0625 1.79687 41.3594 1.79687ZM41.3516-1.30667C23.9785-1.30667 12.9043-14.0176 12.9043-29.9942C12.9043-41.2559 19.1309-50.8301 27.6133-56.3906C26.3262-53.5625 25.5703-49.2109 25.5703-44.8652C25.5703-25.5664 37.875-13.6035 57-13.6035C61.1582-13.6035 65.0019-14.332 67.4375-15.2285C62.6523-6.69143 52.8105-1.30667 41.3516-1.30667ZM69.418-32.0996C69.8125-32.0996 70.1172-32.3692 70.1797-32.7774C71.7246-43.0528 71.7969-42.8809 82.2188-44.8438C82.6328-44.9199 82.9239-45.1485 82.9239-45.6055C82.9239-46.0352 82.6328-46.2559 82.2735-46.3184C71.8594-48.3907 71.7246-48.0743 70.1797-58.3848C70.1172-58.8418 69.8125-59.0977 69.418-59.0977C69.0449-59.0977 68.7539-58.8418 68.6914-58.3985C67.0703-48.1035 67.1797-48.2481 56.584-46.3184C56.2031-46.2696 55.8984-46.0352 55.8984-45.6055C55.8984-45.1621 56.2031-44.9199 56.584-44.8438C67.1797-42.7715 67.0918-42.9903 68.6914-32.75C68.7539-32.3692 69.0449-32.0996 69.418-32.0996ZM51.1426-56.3008C51.3848-56.3008 51.5371-56.418 51.5996-56.6953C52.5879-63.2403 52.7578-63.6543 59.666-64.7969C59.9649-64.8594 60.1309-64.9981 60.1309-65.2891C60.1309-65.5801 59.9649-65.7188 59.666-65.7813C52.793-67.17 53.1153-67.5489 51.5996-73.8828C51.5371-74.1602 51.3848-74.2774 51.1426-74.2774C50.8867-74.2774 50.7695-74.1602 50.707-73.8828C49.1563-67.5489 49.6192-67.17 42.6192-65.7813C42.3067-65.7188 42.1758-65.5801 42.1758-65.2891C42.1758-64.9981 42.3067-64.8594 42.6192-64.7969C49.6192-63.4082 49.6621-63.2403 50.707-56.6953C50.7695-56.418 50.8867-56.3008 51.1426-56.3008Z"/>
  </g>
  <g id="Ultralight-S" transform="matrix(1 0 0 1 518.4 696)">
   <path d="M40.6621 1.95068C54.1411 1.95068 65.022-4.23146 70.0616-14.9888C70.4761-15.8872 70.459-16.7095 70.0376-17.1763C69.6231-17.5909 68.8985-17.7373 67.982-17.4239C64.874-16.2554 61.4492-15.439 56.6983-15.439C38.8013-15.439 27.5913-26.2652 27.5913-44.8023C27.5913-48.5918 28.2012-52.7832 29.9112-56.4268C30.3745-57.3604 30.2803-58.1861 29.7784-58.6983C29.2696-59.2173 28.3565-59.2413 27.1753-58.5997C16.9312-53.189 9.76562-42.5406 9.76562-29.2227C9.76562-11.7759 21.5191 1.95068 40.6621 1.95068ZM40.6236-0.106975C22.8404-0.106975 11.8687-13.1358 11.8687-29.2149C11.8687-41.1123 18.772-51.0864 27.7773-56.688C26.3569-53.7471 25.5088-49.1802 25.5088-44.5781C25.5088-25.105 37.5571-13.3984 56.6206-13.3984C61.0659-13.3984 65.1763-14.2397 67.9092-15.2695C63.124-5.99416 52.79-0.106975 40.6236-0.106975ZM68.5874-31.5357C68.8692-31.5357 69.0918-31.7129 69.1441-31.9981C70.812-42.294 70.7203-41.958 81.1626-44.0235C81.4126-44.0791 81.6319-44.2461 81.6319-44.5801C81.6319-44.9073 81.4126-45.0357 81.1763-45.0879C70.7725-47.1807 70.812-46.772 69.1441-57.1133C69.0918-57.4473 68.8692-57.6211 68.5874-57.6211C68.3477-57.6211 68.1284-57.4473 68.0762-57.1167C66.3526-46.8526 66.6362-47.1817 56.0405-45.0879C55.7622-45.0391 55.5396-44.9073 55.5396-44.5801C55.5396-44.2495 55.7622-44.0791 56.0405-44.0235C66.6362-41.9307 66.3946-42.2417 68.0762-31.9912C68.1284-31.7129 68.3477-31.5357 68.5874-31.5357ZM50.3223-55.0909C50.4927-55.0909 50.604-55.1568 50.6563-55.3726C51.5625-61.9893 51.8247-62.4956 58.8252-63.587C59.083-63.6392 59.1978-63.7471 59.1978-63.9664C59.1978-64.1856 59.083-64.2935 58.8252-64.3458C51.8701-65.7549 52.2437-66.2159 50.6563-72.5601C50.604-72.7759 50.4927-72.8418 50.3223-72.8418C50.1485-72.8418 50.0825-72.7759 50.0303-72.5601C48.3975-66.2159 48.9527-65.7549 41.8194-64.3458C41.5581-64.2935 41.4888-64.1856 41.4888-63.9664C41.4888-63.7471 41.5581-63.6392 41.8194-63.587C48.9527-62.1778 49.0366-61.9893 50.0303-55.3726C50.0825-55.1568 50.1485-55.0909 50.3223-55.0909Z"/>
  </g>
 </g>
</svg>
